/* XPM */
static char *collectable21684247357[] = {
/* columns rows colors chars-per-pixel */
"64 64 28 1 ",
"  c #3E292A",
". c #1F140E",
"X c #523B31",
"o c #795E3F",
"O c #8E7046",
"+ c #4E3321",
"@ c #8E6F46",
"# c #8D6F46",
"$ c #342216",
"% c #2D1E13",
"& c #8C6E45",
"* c #94764C",
"= c #A18457",
"- c #26130F",
"; c #8C7250",
": c #574136",
"> c #503930",
", c #160C0A",
"< c #795D3E",
"1 c #FFC7B7",
"2 c #ED9981",
"3 c #BD715E",
"4 c #FF4040",
"5 c #C0C0C0",
"6 c white",
"7 c #93754B",
"8 c #9F8256",
"9 c #A5895C",
/* pixels */
"                           .........                            ",
"XXXXXXXXXXXXXXXXXXXXXXXXXXX.........XXXXXXXXXXXXXXXXXXXXXXXXXXXX",
"ooooooooooooooooooooooooooo.........oooooooooooooooooooooooooooo",
"OOOOOOOOOOOOOOOOOOOOOOOO...+++++++++......OOOOOOOOOOOOOOOOOOOOOO",
"@@@@@@@@@@@@@@@@@@@@@@@@...+++++++++......@@@@@@@@@@@@@@@@@@@@@@",
"########################...+++++++++......######################",
"#####################...+++$$$$$$$$$$$$%%%...###################",
"#####################...+++$$$$$$$$$$$$%%%...###################",
"#####################...+++$$$$$$$$$$$$%%%...###################",
"&&&&&&&&&&&&&&&&&&&..$$$$$$.........%%%%%%...&&&&&&&&&&&&&&&&&&&",
"&&&&&&&&&&&&&&&&&&&..$$$$$$.........%%%%%%...&&&&&&&&&&&&&&&&&&&",
"*******************..$$$$$$.........%%%%%%...*******************",
"=====================---......%%%...------======================",
";;;;;;;;;;;;;;;;;;;;;---......%%%...------;;;;;;;;;;;;;;;;;;;;;;",
":::::::::::::::::::::---......%%%...------::::::::::::::::::::::",
">>>>>>>>>>>>>>>>>>>>>---+++$$$...$$$%%%---,,,--->>>>>>>>>>>>>>>>",
"<<<<<<<<<<<<<<<<<<<<<---+++$$$...$$$%%%---,,,---<<<<<<<<<<<<<<<<",
"OOOOOOOOOOOOOOOO---,,...+++$$$...$$$$$$...111111---OOOOOOOOOOOOO",
"@@@@@@@@@@@@@@@@---,,...+++$$$...$$$$$$...111111---@@@@@@@@@@@@@",
"################---,,...+++$$$...$$$$$$...111111---#############",
"#############---11111...$$$%%%...%%%$$$...111111---#############",
"#############---11111...$$$%%%...%%%$$$...111111---#############",
"#############---11111...$$$%%%...%%%$$$...111111---#############",
"#############---11111---%%%.........%%%---111222---#############",
"#############---11111---%%%.........%%%---111222---#############",
"#############---11111---%%%.........%%%---111222---#############",
"#############---22211333---222111111---333222---,,,#############",
"#############---22211333---222111111---333222---,,,#############",
"#############---22211333---222111111---333222---,,,#############",
"&&&&&&&&&&&&&---222--222333---------333222---222---&&&&&&&&&&&&&",
"&&&&&&&&&&&&&---222--222333---------333222---222---&&&&&&&&&&&&&",
"*************---222--222333---------333222---222---*************",
"=============,,,---11111222222111222222111111---,,,=============",
";;;;;;;;;;;;;,,,---11111222222111222222111111---,,,;;;;;;;;;;;;;",
":::::::::::::,,,---11111222222111222222111111---,,,:::::::::::::",
">>>>>>>>>>>>>,,,---11444222---111---222111444---,,,>>>>>>>>>>>>>",
"<<<<<<<<<<<<<,,,---11444222---111---222111444---,,,<<<<<<<<<<<<<",
"OOOOOOOOOOOOO,,,---11444222---111---222111444---,,,OOOOOOOOOOOOO",
"@@@@@@@@@@@@@---222--------333222333---------222---@@@@@@@@@@@@@",
"#############---222--------333222333---------222---#############",
"#############---222--------333222333---------222---#############",
"################---22111,,,---,,,---,,,111222---################",
"################---22111,,,---,,,---,,,111222---################",
"################---22111,,,---,,,---,,,111222---################",
"###################-----222222---222222------###################",
"&&&&&&&&&&&&&&&&&&&-----222222---222222------&&&&&&&&&&&&&&&&&&&",
"&&&&&&&&&&&&&&&&&&&-----222222---222222------&&&&&&&&&&&&&&&&&&&",
"*******************,,---111111---111111---,,,*******************",
"===================,,---111111---111111---,,,===================",
";;;;;;;;;;;;;;;;;;;--222------,,,------,,,---;;;;;;;;;;;;;;;;;;;",
":::::::::::::::::::--222------,,,------,,,---:::::::::::::::::::",
">>>>>>>>>>>>>>>>>>>--222------,,,------,,,--->>>>>>>>>>>>>>>>>>>",
"<<<<<<<<<<<<<<<<<<<,,,,,555555---555555---<<<<<<<<<<<<<<<<<<<<<<",
"OOOOOOOOOOOOOOOOOOO,,,,,555555---555555---OOOOOOOOOOOOOOOOOOOOOO",
"@@@@@@@@@@@@@@@@@@@,,,,,555555---555555---@@@@@@@@@@@@@@@@@@@@@@",
"###################-----------------------######################",
"###################-----------------------######################",
"###################-----------------------######################",
"###################--555666------666555---######################",
"&&&&&&&&&&&&&&&&&&&--555666------666555---&&&&&&&&&&&&&&&&&&&&&&",
"&&&&&&&&&&&&&&&&&&&--555666------666555---&&&&&&&&&&&&&&&&&&&&&&",
"777777777777777777777------777777------7777777777777777777777777",
"888888888888888888888------888888------8888888888888888888888888",
"999999999999999999999------999999------9999999999999999999999999"
};
