/* XPM */
static char *collectable1684247158[] = {
/* columns rows colors chars-per-pixel */
"64 64 28 1 ",
"  c #3E292A",
". c #1F140E",
"X c #523B31",
"o c #795E3F",
"O c #8E7046",
"+ c #4E3321",
"@ c #8E6F46",
"# c #8D6F46",
"$ c #2D1E13",
"% c #342216",
"& c #8C6E45",
"* c #94764C",
"= c #A18457",
"- c #26130F",
"; c #8C7250",
": c #574136",
"> c #503930",
", c #160C0A",
"< c #795D3E",
"1 c #FFC7B7",
"2 c #ED9981",
"3 c #BD715E",
"4 c #FF4040",
"5 c #C0C0C0",
"6 c white",
"7 c #93754B",
"8 c #9F8256",
"9 c #A5895C",
/* pixels */
"                            ........                            ",
"XXXXXXXXXXXXXXXXXXXXXXXXXXXX........XXXXXXXXXXXXXXXXXXXXXXXXXXXX",
"oooooooooooooooooooooooooooo........oooooooooooooooooooooooooooo",
"OOOOOOOOOOOOOOOOOOOOOO......++++++++...OOOOOOOOOOOOOOOOOOOOOOOOO",
"@@@@@@@@@@@@@@@@@@@@@@......++++++++...@@@@@@@@@@@@@@@@@@@@@@@@@",
"######################......++++++++...#########################",
"###################...$$$%%%%%%%%%%%+++...######################",
"###################...$$$%%%%%%%%%%%+++...######################",
"###################...$$$%%%%%%%%%%%+++...######################",
"&&&&&&&&&&&&&&&&&&&...$$$$$$........%%%%%%...&&&&&&&&&&&&&&&&&&&",
"&&&&&&&&&&&&&&&&&&&...$$$$$$........%%%%%%...&&&&&&&&&&&&&&&&&&&",
"*******************...$$$$$$........%%%%%%...*******************",
"======================------...$$......---======================",
";;;;;;;;;;;;;;;;;;;;;;------...$$......---;;;;;;;;;;;;;;;;;;;;;;",
"::::::::::::::::::::::------...$$......---::::::::::::::::::::::",
">>>>>>>>>>>>>>>>---,,,---$$$%%%..%%%+++--->>>>>>>>>>>>>>>>>>>>>>",
"<<<<<<<<<<<<<<<<---,,,---$$$%%%..%%%+++---<<<<<<<<<<<<<<<<<<<<<<",
"OOOOOOOOOOOOO---111111...%%%%%%..%%%+++...,,,---OOOOOOOOOOOOOOOO",
"@@@@@@@@@@@@@---111111...%%%%%%..%%%+++...,,,---@@@@@@@@@@@@@@@@",
"#############---111111...%%%%%%..%%%+++...,,,---################",
"#############---111111...%%%$$$..$$$%%%...111111---#############",
"#############---111111...%%%$$$..$$$%%%...111111---#############",
"#############---111111...%%%$$$..$$$%%%...111111---#############",
"#############---222111---$$$........$$$---111111---#############",
"#############---222111---$$$........$$$---111111---#############",
"#############---222111---$$$........$$$---111111---#############",
"#############,,,---222333---11111222---333111222---#############",
"#############,,,---222333---11111222---333111222---#############",
"#############,,,---222333---11111222---333111222---#############",
"&&&&&&&&&&&&&---222---222333--------333222---222---&&&&&&&&&&&&&",
"&&&&&&&&&&&&&---222---222333--------333222---222---&&&&&&&&&&&&&",
"*************---222---222333--------333222---222---*************",
"=============,,,---11111122222211222222111111---,,,=============",
";;;;;;;;;;;;;,,,---11111122222211222222111111---,,,;;;;;;;;;;;;;",
":::::::::::::,,,---11111122222211222222111111---,,,:::::::::::::",
">>>>>>>>>>>>>,,,---444111222---11---222444111---,,,>>>>>>>>>>>>>",
"<<<<<<<<<<<<<,,,---444111222---11---222444111---,,,<<<<<<<<<<<<<",
"OOOOOOOOOOOOO,,,---444111222---11---222444111---,,,OOOOOOOOOOOOO",
"@@@@@@@@@@@@@---222---------33322333---------222---@@@@@@@@@@@@@",
"#############---222---------33322333---------222---#############",
"#############---222---------33322333---------222---#############",
"################---222111,,,---,,---,,,111222---################",
"################---222111,,,---,,---,,,111222---################",
"################---222111,,,---,,---,,,111222---################",
"###################------222222--222222------###################",
"&&&&&&&&&&&&&&&&&&&------222222--222222------&&&&&&&&&&&&&&&&&&&",
"&&&&&&&&&&&&&&&&&&&------222222--222222------&&&&&&&&&&&&&&&&&&&",
"*******************,,,---111111--111111---,,,*******************",
"===================,,,---111111--111111---,,,===================",
";;;;;;;;;;;;;;;;;;;---,,,------,,------222---;;;;;;;;;;;;;;;;;;;",
":::::::::::::::::::---,,,------,,------222---:::::::::::::::::::",
">>>>>>>>>>>>>>>>>>>---,,,------,,------222--->>>>>>>>>>>>>>>>>>>",
"<<<<<<<<<<<<<<<<<<<<<<---555555--555555,,,,,,<<<<<<<<<<<<<<<<<<<",
"OOOOOOOOOOOOOOOOOOOOOO---555555--555555,,,,,,OOOOOOOOOOOOOOOOOOO",
"@@@@@@@@@@@@@@@@@@@@@@---555555--555555,,,,,,@@@@@@@@@@@@@@@@@@@",
"######################-----------------------###################",
"######################-----------------------###################",
"######################-----------------------###################",
"######################---555666-----666555---###################",
"&&&&&&&&&&&&&&&&&&&&&&---555666-----666555---&&&&&&&&&&&&&&&&&&&",
"&&&&&&&&&&&&&&&&&&&&&&---555666-----666555---&&&&&&&&&&&&&&&&&&&",
"7777777777777777777777777------77777------7777777777777777777777",
"8888888888888888888888888------88888------8888888888888888888888",
"9999999999999999999999999------99999------9999999999999999999999"
};
