/* XPM */
static char *collectable_resized[] = {
/* columns rows colors chars-per-pixel */
"64 64 31 1 ",
"  c #3E292A",
". c #523B31",
"X c #795E3F",
"o c #8E7046",
"O c #8E6F46",
"+ c #8D6F46",
"@ c black",
"# c #55AA00",
"$ c #8C6E45",
"% c #ED9981",
"& c #6AD500",
"* c #FFC7B7",
"= c #94764C",
"- c #80FF00",
"; c #A18457",
": c #8C7250",
"> c #574136",
", c #503930",
"< c #795D3E",
"1 c #3D7900",
"2 c #884400",
"3 c #FFFF80",
"4 c #FFFF40",
"5 c #C0C000",
"6 c #C4BA0B",
"7 c #F3E91D",
"8 c white",
"9 c #C0C0C0",
"0 c #93754B",
"q c #9F8256",
"w c #A5895C",
/* pixels */
"                                                                ",
"................................................................",
"XXXXXXXXXXXXXXXXXXXXXXXXXXXXXXXXXXXXXXXXXXXXXXXXXXXXXXXXXXXXXXXX",
"oooooooooooooooooooooooooooooooooooooooooooooooooooooooooooooooo",
"OOOOOOOOOOOOOOOOOOOOOOOOOOOOOOOOOOOOOOOOOOOOOOOOOOOOOOOOOOOOOOOO",
"+++++++++++++++++++++++@@@@@@@@@@@@@@@++++++++++++++++++++++++++",
"+++++++++++++++++++++++@@@@@@@@@@@@@@@++++++++++++++++++++++++++",
"+++++++++++++++++++++@@#############@@@@++++++++++++++++++++++++",
"+++++++++++++++++++++@@#############@@@@++++++++++++++++++++++++",
"$$$$$$$$$$$$$$$$$$$@@%%@##&&&&&&##@@%%**@@$$$$$$$$$$$$$$$$$$$$$$",
"$$$$$$$$$$$$$$$$$$$@@%%@##&&&&&&##@@%%**@@$$$$$$$$$$$$$$$$$$$$$$",
"===================@@**%@@&&----&&@@%%**@@======================",
";;;;;;;;;;;;;;;;;;;@@**%@@&&----&&@@%%**@@;;;;;;;;;;;;;;;;;;;;;;",
":::::::::::::::::::@@**%@@@@@@@@@@@@%%**@@::::::::::::::::::::::",
">>>>>>>>>>>>>>>>>>>@@**%@@@@@@@@@@@@%%**@@>>>>>>>>>>>>>>>>>>>>>>",
",,,,,,,,,,,,,,,,,,,@@**@%%%%%%%%****@@**@@,,,,,,,,,,,,,,,,,,,,,,",
"<<<<<<<<<<<<<<<<<<<@@**@%%%%%%%%****@@**@@<<<<<<<<<<<<<<<<<<<<<<",
"ooooooooooooooooooo@@**@************@@**@@oooooooooooooooooooooo",
"OOOOOOOOOOOOOOOOOOO@@**@************@@**@@OOOOOOOOOOOOOOOOOOOOOO",
"+++++++++++++++++++@@%%@************@@%%@@++++++++++++++++++++++",
"+++++++++++++++++++@@%%@************@@%%@@++++++++++++++++++++++",
"+++++++++++++++++++@@%%@************@@%%@@++++++++++++++++++++++",
"+++++++++++++++++++@@%%@************@@%%@@++++++++++++++++++++++",
"+++++++++++++++++@@&&@@@**********%%@@@@++++++++++++++++++++++++",
"+++++++++++++++++@@--&&@**********%%@@&&@@++++++++++++++++++++++",
"+++++++++++++++++@@--&&@**********%%@@&&@@++++++++++++++++++++++",
"+++++++++++++++++@@&&@@1%%%%%%%%%%##11--@@++++++++++++++++++++++",
"+++++++++++++++++@@&&@@1%%%%%%%%%%##11--@@++++++++++++++++++++++",
"+++++++++++++++++@@@@11###############--@@++++++++++++++++++++++",
"$$$$$$$$$$$$$$$$$@@@@11###############--@@$$$$$$$$$$$$$$$$$$$$$$",
"$$$$$$$$$$$$$$$@@@@%%%%#**********%%11@@$$$$$$$$$$$$$$$$$$$$$$$$",
"===============@@@@%%%%#**********%%11@@========================",
";;;;;;;;;;;;;@@******%%#**********##%%%%@@@@;;;;;;;;;;;;;;;;;;;;",
":::::::::::::@@******%%#**********##%%%%@@@@::::::::::::::::::::",
">>>>>>>>>>>>>@@******%%1**********11%%******@>>>>>>>>>>>>>>>>>>>",
",,,,,,,,,,,,,@@******%%1**********11%%******@,,,,,,,,,,,,,,,,,,,",
"<<<<<<<<<<<<<@@%%@@@@@@@@@@@****%%@@%%*******@@<<<<<<<<<<<<<<<<<",
"ooooooooooooo@@%%@@@@@@@@@@@****%%@@%%*******@@ooooooooooooooooo",
"OOOOOOOOOOOOO@@****@@OOOOO@@%%%%22OO@@@@@@%%*@@OOOOOOOOOOOOOOOOO",
"+++++++++++++@@****@@+++++@@%%%%22++@@@@@@%%*@@+++++++++++++++++",
"+++++++++++++@@****@@+++222222223322++++++@@%@@+++++++++++++++++",
"+++++++++++++@@****@@+++222222223322++++++@@%@@+++++++++++++++++",
"+++++++++++++@@****@@++222444444332222@@@@***@@+++++++++++++++++",
"+++++++++++++@@****@@++222444444332222@@@@***@@+++++++++++++++++",
"+++++++++++++@@%%%%**@@23322225544226622%%***@@+++++++++++++++++",
"$$$$$$$$$$$$$@@******@@23377552244554422%%**@$$$$$$$$$$$$$$$$$$$",
"$$$$$$$$$$$$$@@******@@23377552244554422%%**@$$$$$$$$$$$$$$$$$$$",
"===============@@@@@@@@22233442244444422@@@@=======88===========",
";;;;;;;;;;;;;;;@@@@@@@@22233442244444422@@@@;;;;;;;88;;;;;;;;;;;",
":::::::::::::::::::::::255222244444422::::::98899:::::::::::::::",
">>>>>>>>>>>>>>>>>>>>>>>255222244444422>>>>>>98899>>>>>>>>>>>>>>>",
",,,,,,,,,,,,,,,,,,,,,,,,224444444422,,,,998888888,,,,,,,,,,,,,,,",
"<<<<<<<<<<<<<<<<<<<<<<<<224444444422<<<<998888888<<<<<<<<<<<<<<<",
"oooooooooooooooooooooooooo22222222oooo9988888888899ooooooooooooo",
"OOOOOOOOOOOOOOOOOOOOOOOOOO22222222OOOO9988888888899OOOOOOOOOOOOO",
"++++++++++++++++++++++++++++++++++++++99888888899++++88+++++++++",
"++++++++++++++++++++++++++++++++++++++99888888899++++88+++++++++",
"++++++++++++++++++++++++++++++++++++88++998888899+++++++++++++++",
"++++++++++++++++++++++++++++++++++++88++998888899+++++++++++++++",
"$$$$$$$$$$$$$$$$$$$$$$$$$$$$$$$$$$$$$$$$$$999$$$$$$$$$$$$$$$$$$$",
"$$$$$$$$$$$$$$$$$$$$$$$$$$$$$$$$$$$$$$$$$$999$$$$$$$$$$$$$$$$$$$",
"0000000000000000000000000000000000000000000000000000000000000000",
"qqqqqqqqqqqqqqqqqqqqqqqqqqqqqqqqqqqqqqqqqqqqqqqqqqqqqqqqqqqqqqqq",
"wwwwwwwwwwwwwwwwwwwwwwwwwwwwwwwwwwwwwwwwwwwwwwwwwwwwwwwwwwwwwwww"
};
