/* XPM */
static char *dead1683909237[] = {
/* columns rows colors chars-per-pixel */
"64 64 31 1 ",
"  c #3E292A",
". c #523B31",
"X c #795E3F",
"o c #8E7046",
"O c #8E6F46",
"+ c #8D6F46",
"@ c #8C6E45",
"# c #94764C",
"$ c black",
"% c #A18457",
"& c #8C7250",
"* c #A2A2A2",
"= c white",
"- c #574136",
"; c #A27C4A",
": c #503930",
"> c #795D3E",
", c #FFD79F",
"< c red",
"1 c #800000",
"2 c #C00000",
"3 c #400000",
"4 c #FF4040",
"5 c #FF8080",
"6 c #00C0C0",
"7 c #80FFFF",
"8 c #634D2E",
"9 c #FFE4BF",
"0 c #93754B",
"q c #9F8256",
"w c #A5895C",
/* pixels */
"                                                                ",
"................................................................",
"XXXXXXXXXXXXXXXXXXXXXXXXXXXXXXXXXXXXXXXXXXXXXXXXXXXXXXXXXXXXXXXX",
"oooooooooooooooooooooooooooooooooooooooooooooooooooooooooooooooo",
"OOOOOOOOOOOOOOOOOOOOOOOOOOOOOOOOOOOOOOOOOOOOOOOOOOOOOOOOOOOOOOOO",
"++++++++++++++++++++++++++++++++++++++++++++++++++++++++++++++++",
"++++++++++++++++++++++++++++++++++++++++++++++++++++++++++++++++",
"++++++++++++++++++++++++++++++++++++++++++++++++++++++++++++++++",
"++++++++++++++++++++++++++++++++++++++++++++++++++++++++++++++++",
"@@@@@@@@@@@@@@@@@@@@@@@@@@@@@@@@@@@@@@@@@@@@@@@@@@@@@@@@@@@@@@@@",
"@@@@@@@@@@@@@@@@@@@@@@@@@@@@@@@@@@@@@@@@@@@@@@@@@@@@@@@@@@@@@@@@",
"########################################$$$$$$$$$$$#############",
"%%%%%%%%%%%%%%%%%%%%%%%%%%%%%%%%%%%%%%%%$$$$$$$$$$$%%%%%%%%%%%%%",
"&&&&$$$&&&&&&&&&$$$$$$$$&&&&&&&&&&&&$$$$**=======**$&&&&&&&&&&&&",
"----$$*$$----$$$**$===$$$-----------$;;$**=========$$$----------",
"::::$$*$$::::$$$**$===$$$:::::::::::$;;$**=========$$$::::::::::",
">>>>$$*==$$$$===**$=====$$$>>>>>>>$$,,,$$$$$$*======$$$>>>>>>>>>",
"oooo$$*==$**======*$$=<<=$$ooooooo$$$$$$ooooo$$$*===**$ooooooooo",
"OOOO$$*==$**======*$$=<<=$$OOOOOOO$$$$$$OOOOO$$$*===**$OOOOOOOOO",
"++++$$*==$**===***1$$====$$$++++++++++++++++++++$===**$+++++++++",
"++++$$*$$*==$$$$$$$$$====11$++++++++++++++++++++$=====$+++++++++",
"++++$$*$$*==$$$$$$$$$====11$++++++++++++++++++++$=====$+++++++++",
"++++++$$$$$$$++++++$$=<<=22$+++333++++++++++++++$=====$+++++++++",
"+++++++++++++++++++$$=<<222$++344533+++++++$$$$$$=====$+++++++++",
"+++++++++++++++++++$$=<<222$++344533+++++++$$$$$$=====$+++++++++",
"+++++++++++++++++++$$=11$11$++355355<33<$$****========$+++++++++",
"+++++++++++++++++++$$<221$$2<<5334332112$$$<<$$$$$$***$+++++++++",
"+++++++++++++++++++$$<221$$2<<5334332112$$$<<$$$$$$***$+++++++++",
"+++++++++++++++++++$$====<<$<<1<<2553<<3<<<======**$$$$+++++++++",
"@@@@@@@@@@@@@@@@@@@$$<<<=22$<<<11<33511<<<$$$$$$$$$*$$$$$$$$$$$@",
"@@@@@@@@@@@@@@@@@@@$$<<<=22$<<<11<33511<<<$$$$$$$$$*$$$$$$$$$$$@",
"###################$$*===55522<221223<<<;;$667776,,$$$,,,,88,$$$",
"%%%%%%%%%%%%%%%%%%%$$*===11$11211344511<,,,;;766,;;$;;$$$,,,,;;$",
"&&&&&&&&&&&&&&&&&&&$$*===11$11211344511<,,,;;766,;;$;;$$$,,,,;;$",
"------------------$**=<<=224<<333533133<<<677766,;;$<<2$$,,,,;;$",
"::::::::::::::::::$**===<<<$44555533255<<<<777776,,$$$;,,,88,$$$",
">>>>>>>>>>>>>>>>>>$**===<<<$44555533255<<<<777776,,$$$;,,,88,$$$",
"oooooooooooooooooo$<<===2$$$115333<<433$<<$33$$$$$$$$$$$$$$$$$$o",
"OOOOOOOOOOOOOOOOOO$===<<$22$33433233533$**=======**$$$OOOOOOOOOO",
"++++++++++++++++++$==<22$<<$553++355,33$$$$$$$$$$$$*$$++++++++++",
"++++++++++++++++++$==<22$<<$553++355,33$$$$$$$$$$$$*$$++++++++++",
"$$$$$$$$$$++++++$$$===<<$+++334555443+++$$$$$2<<***$++++++++++++",
"$*****$**$$$$$$$$$*===**$$$$$$$33333+++$$$$**======$++++++++++++",
"$*****$**$$$$$$$$$*===**$$$$$$$33333+++$$$$**======$++++++++++++",
"$=====$***===**$<<====$$$$$,99$$$$$$$$$$**=======$$$++++++++++++",
"@$$$$$$***===$$====<<=$$@@@$;;$**======*======$$$$$@@@@@@@@@@@@@",
"@$$$$$$***===$$====<<=$$@@@$;;$**======*======$$$$$@@@@@@@@@@@@@",
"######$$$$***$$======$$$###$$$*======<<======$$$################",
"%%%%%%%%%$$$$$$====$$$%%%%%%$$$$$$========*$$$%%%%%%%%%%%%%%%%%%",
"&&&&&&&&&$$$$$$====$$$&&&&&&$$$$$$========*$$$&&&&&&&&&&&&&&&&&&",
"------------$$$$$$$$$------------$$$$$$$$$$$$-------------------",
"::::::::::::::::::::::::::::::::::::::::::::::::::::::::::::::::",
">>>>>>>>>>>>>>>>>>>>>>>>>>>>>>>>>>>>>>>>>>>>>>>>>>>>>>>>>>>>>>>>",
"oooooooooooooooooooooooooooooooooooooooooooooooooooooooooooooooo",
"OOOOOOOOOOOOOOOOOOOOOOOOOOOOOOOOOOOOOOOOOOOOOOOOOOOOOOOOOOOOOOOO",
"++++++++++++++++++++++++++++++++++++++++++++++++++++++++++++++++",
"++++++++++++++++++++++++++++++++++++++++++++++++++++++++++++++++",
"++++++++++++++++++++++++++++++++++++++++++++++++++++++++++++++++",
"++++++++++++++++++++++++++++++++++++++++++++++++++++++++++++++++",
"@@@@@@@@@@@@@@@@@@@@@@@@@@@@@@@@@@@@@@@@@@@@@@@@@@@@@@@@@@@@@@@@",
"@@@@@@@@@@@@@@@@@@@@@@@@@@@@@@@@@@@@@@@@@@@@@@@@@@@@@@@@@@@@@@@@",
"0000000000000000000000000000000000000000000000000000000000000000",
"qqqqqqqqqqqqqqqqqqqqqqqqqqqqqqqqqqqqqqqqqqqqqqqqqqqqqqqqqqqqqqqq",
"wwwwwwwwwwwwwwwwwwwwwwwwwwwwwwwwwwwwwwwwwwwwwwwwwwwwwwwwwwwwwwww"
};
