/* XPM */
static char *exit_resized[] = {
/* columns rows colors chars-per-pixel */
"64 64 12 1 ",
"  c #503930",
". c #574136",
"X c #795D3E",
"o c #4F4F55",
"O c #8C6E45",
"+ c #8D6F46",
"@ c #8E6F46",
"# c #8E7046",
"$ c #94764C",
"% c #8C7250",
"& c #AA9A05",
"* c #A18457",
/* pixels */
"oooooooooooooooooooooooooooooooooooooooooooooooooooooooooooooooo",
"oooooooooooooooooooooooooooooooooooooooooooooooooooooooooooooooo",
"oooooooooooooooooooooooooooooooooooooooooooooooooooooooooooooooo",
"oooooooooooooooooooooooooooooooooooooooooooooooooooooooooooooooo",
"oooo@@@@@@@@@@@@@@@@@@@@@@@@@@@@@@@@@@@@@@@@@@@@@@@@@@@@@@@@oooo",
"oooo++++++++++++++++++++++++++++++++++++++++++++++++++++++++oooo",
"oooo++++++++++++++++++++++++++++++++++++++++++++++++++++++++oooo",
"oooo++++++++++++++++++++++++++++++++++++++++++++++++++++++++oooo",
"oooo++++++++++++++++++++++++++++++++++++++++++++++++++++++++oooo",
"ooooOOOOOOOOOOOOOOOOOOOOOOOOOOOOOOOOOOOOOOOOOOOOOOOOOOOOOOOOoooo",
"ooooOOOOOOOOOOOOOOOOOOOOOOOOOOOOOOOOOOOOOOOOOOOOOOOOOOOOOOOOoooo",
"oooo$$$$$$$$$$$$$$$$$$$$$$$$$$$$$$$$$$$$$$$$$$$$$$$$$$$$$$$$oooo",
"oooo********************************************************oooo",
"oooo%%%%%%%%%%%%%%%%%%%%%%%%%%%%%%%%%%%%%%%%%%%%%%%%%%%%%%%%oooo",
"oooo........................................................oooo",
"oooo                                                        oooo",
"ooooXXXXXXXXXXXXXXXXXXXXXXXXXXXXXXXXXXXXXXXXXXXXXXXXXXXXXXXXoooo",
"oooo########################################################oooo",
"oooo@@@@@@@@@@@@@@@@@@@@@@@@@@@@@@@@@@@@@@@@@@@@@@@@@@@@@@@@oooo",
"oooo++++++++++++++++++++++++++++++++++++++++++++++++++++++++oooo",
"oooo++++++++++++++++++++++++++++++++++++++++++++++++++++++++oooo",
"oooo++++++++++++++++++++++++++++++++++++++++++++++++++++++++oooo",
"oooo++++++++++++++++++++++++++++++++++++++++++++++++++++++++oooo",
"oooo++++++++++++++++++++++++++++++++++++++++++++++++++++++++oooo",
"oooo++++++++++++++++++++++++++++++++++++++++++++++++++++++++oooo",
"oooo++++++++++++++++++++++++++++++++++++++++++++++++++++++++oooo",
"oooo++++++++++++++++++++++++++++++++++++++++++++++++++++++++oooo",
"oooo++++++++++++++++++++++++++++++++++++++++++++++++++++++++oooo",
"oooo++++++++++++++++++++++++++++++++++++++++++++++++++++++++oooo",
"ooooOOOOOOOOOOOOOOOOOOOOOOOOOOOOOOOOOOOOOOOOOOOOOOOOOOOOOOOOoooo",
"ooooOOOOOOOOOOOOOOOOOOOOOOOOOOOOOOOOOOOOOOOOOOOOOOOOOOOOOOOOoooo",
"oooo$$$$$$$$$$$$$$$$$$$$$$$$$$$$$$$$$$$$$$$$$$$$$$$$$$$$$$$$oooo",
"oooo********************************************************oooo",
"oooo%%%%%%%%%%%%%%%%%%%%%%%%%%%%%%%%%%%%%%%%%%%%%%%%%%%%%%%%oooo",
"oooo........................................................oooo",
"oooo                                                        oooo",
"ooooXXXXXXXXXXXXXXXXXXXXXXXXXXXXXXXXXXXXXXXXXXXXXXXXXXXXXXXXoooo",
"oooo########################################################oooo",
"oooo@@@@@@@@@@@@@@@@@@@@@@@@@@@@@@@@@@@@@@@@@@@@@@@@@@@@@@@@oooo",
"oooo++++++++++++++++++++++++++++++++++++++++++++++++++++++++oooo",
"oooo++++++++++++++++++++++++++++++++++++++++++++++++++++++++oooo",
"oooo++++++++++++++++++++++++++++++++++++++++++++++++++++++++oooo",
"oooo++++++++++++++++++++++++++++++++++++++++++++++++++++++++oooo",
"oooo++++++++++++++++++++++++++++++++++++++++++++++++++++++++oooo",
"oooo++++++++++++++++++++++++++++++++++++++++++++++++++++++++oooo",
"ooooOOOOOOOOOOOOOOOOOOOOOOOOOOOOOOOOOOOOOOOOOOOOOOOOOOOOOOOOoooo",
"ooooOOOOOOOOOOOOOOOOOOOOOOOOOOOOOOOOOOOOOOOOOOOOOOOOOOOOOOOOoooo",
"oooo$$$$$$$$$$$$$$$$$$$$$$$$$$$$$$$$$$$$$$$$$$$$$$$$$$$$$$$$oooo",
"oooo********************************************************oooo",
"oooo%%%%%%%%%%%%%%%%%%%%%%%%%%%%%%%%%%%%%%%%%%%%%%%%%%%%%%%%oooo",
"oooo........................................................oooo",
"oooo                                                        oooo",
"ooooXXXXXXXXXXXXXXXXXXXXXXXXXXXXXXXXXXXXXXXXXXXXXXXXXXXXXXXXoooo",
"oooo########################&&&oo&&&########################oooo",
"oooo@@@@@@@@@@@@@@@@@@@@@@@&&&&oo&&&&@@@@@@@@@@@@@@@@@@@@@@@oooo",
"oooo+++++++++++++++++++++++&&++++++&&+++++++++++++++++++++++oooo",
"oooo+++++++++++++++++++++++&&++++++&&+++++++++++++++++++++++oooo",
"oooo+++++++++++++++++++++++&&&&&&&&&&+++++++++++++++++++++++oooo",
"oooo++++++++++++++++++++++++&&&&&&&&++++++++++++++++++++++++oooo",
"ooooOOOOOOOOOOOOOOOOOOOOOOOOOOOOOOOOOOOOOOOOOOOOOOOOOOOOOOOOoooo",
"oooooooooooooooooooooooooooooooooooooooooooooooooooooooooooooooo",
"oooooooooooooooooooooooooooooooooooooooooooooooooooooooooooooooo",
"oooooooooooooooooooooooooooooooooooooooooooooooooooooooooooooooo",
"oooooooooooooooooooooooooooooooooooooooooooooooooooooooooooooooo"
};
