/* XPM */
static char *housetileset_copy_4_resized[] = {
/* columns rows colors chars-per-pixel */
"64 64 28 1 ",
"  c #3E292A",
". c #523B31",
"X c #795E3F",
"o c #462800",
"O c #8E7046",
"+ c #8E6F46",
"@ c #FFB148",
"# c #8D6F46",
"$ c #FF9D1A",
"% c #8C6E45",
"& c #94764C",
"* c #A18457",
"= c #8C7250",
"- c #574136",
"; c #503930",
": c #795D3E",
"> c black",
", c white",
"< c #A2A2A2",
"1 c #C47100",
"2 c #A27C4A",
"3 c #FFD79F",
"4 c #00AEAE",
"5 c #40FFFF",
"6 c #634D2E",
"7 c #93754B",
"8 c #9F8256",
"9 c #A5895C",
/* pixels */
"                                                                ",
"................................................................",
"XXXXXXXXXXXXXXXXXXXXXXXoooooooXXXXXXXXXXXXXXXXXXXXXXXXXXXXXXXXXX",
"OOOOOOOOOOOOOOOOOOOOOOOoooooooOOOOOOOOOOOOOOOOOOOOOOOOOOOOOOOOOO",
"+++++++++++++++++++++oo@@@@@oo++++++++++++++++++++++++++++++++++",
"#####################oo@@@@@oo##################################",
"#####################oo$$$$$oo##################################",
"#####################oo$$$$$oo##################################",
"#####################oo$$$$$oo##################################",
"%%%%%%%%%%%%%%%%%%%%%oo$$$$$oo%%%%%%%%%%%%%%%%%%%%%%%%%%%%%%%%%%",
"%%%%%%%%%%%%%%%%%%%%%oo$$$$$oo%%%%%%%%%%%%%%%%%%%%%%%%%%%%%%%%%%",
"&&&&&&&&&&&&&&&&&&&&&oo$$$$$oo&&&&&&&&&&&&&&&&&&&&&&&&&&&&&&&&&&",
"*********************oo$$$oo************************************",
"=====================oo$$$oo====================================",
"---------------------oo$$$oo------------------------------------",
";;;;;;;;;;;;;;;;;;;;;oo$$$oo;;;;;;;;;;;;;;;;;;;;;;;;;;;;;;;;;;;;",
":::::::::::::::::::::oo$$$oo::::::::::::::::::::::::::::::::::::",
"OOOOOOOOOOOOOOOOOOOOOoo$$$ooOOOOOOOOOOOOOOOOOOOOOOOOOOOOOOOOOOOO",
"+++++++++++++++++++++oo$$$oo++++++++++++++++++++++++++++++++++++",
"#####################oo$$$oo##>>>>>>>>##########################",
"#####################oo$$$oo##>>>>>>>>##########################",
"###################oo$$ooo>>>>,,<<<<<<>>########################",
"###################oo$$ooo>>>>,,<<<<<<>>########################",
"###################oo11ooo,,,,<<,,,,,,,,>>>#####################",
"###################oo11ooo,,,,<<,,,,,,,,>>>#####################",
"###################>>>>>>><<,,,,<<<<,,<<<<<>>>>#################",
"###################>>>>>>><<,,,,<<<<,,<<<<<>>>>#################",
"###################>>22333>>,,<<,,,,<<,,,,,,,>>#################",
"###################>>22333>>,,<<,,,,<<,,,,,,,>>#################",
"%%%%%%%%%%%%%%%%%%%>>22333>><<>>>>>>,,,,,,,,,<<>>%%%%%%%%%%%%%%%",
"%%%%%%%%%%%%%%%%%%%>>22333>><<>>>>>>,,,,,,,,,<<>>%%%%%%%%%%%%%%%",
"&&&&&&&&&&&&&&&&&&&>>>>>>>>>>>,,>>>>>>>>,,,,,,,>>&&&&&&&&&&&&&&&",
"*******************>>>>>>>>>>>,,>>>>>>>>,,,,,,,>>***************",
"===================>>>>>>>>>>>,,>>>>>>>>,,,,,,,>>===============",
"----------------->>2233>>>,,,,,,>><<,,,,,,,,,,,>>---------------",
";;;;;;;;;;;;;;;;;>>2233>>>,,,,,,>><<,,,,,,,,,,,>>;;;;;;;;;;;;;;;",
":::::::::::::::::>>2233>>><<>>>>44>>>>>>,,,,,>>:::::::::::::::::",
"OOOOOOOOOOOOOOOOO>>2233>>><<>>>>44>>>>>>,,,,,>>OOOOOOOOOOOOOOOOO",
"+++++++++++++++++>>>>33>>>>>>>55555555>>>>>,,>>+++++++++++++++++",
"#################>>>>33>>>>>>>55555555>>>>>,,>>#################",
"###############>>>><<>><<<>>>>>>>>>>>>>>>>><<>>#################",
"###############>>>><<>><<<>>>>>>>>>>>>>>>>><<>>#################",
"###############>><<,,>>>>>>>6633333322>>>>><<>>#################",
"###############>><<,,>>>>>>>6633333322>>>>><<>>#################",
"###############>>,,<<>>>>>22333333333322>>>>>###################",
"%%%%%%%%%%%%%%%>>,,<<>>>>>22333333333322>>>>>%%%%%%%%%%%%%%%%%%%",
"%%%%%%%%%%%%%%%>>,,,,>>>>>22333333333322>>>>>%%%%%%%%%%%%%%%%%%%",
"&&&&&&&&&&&&&&&>>,,,,>>>>>22333333333322>>>>>&&&&&&&&&&&&&&&&&&&",
"***************>><<,,>><<<>>6633333322>>>>>>>*******************",
"===============>><<,,>><<<>>6633333322>>>>>>>===================",
"--------------->><<,,>><<<>>6633333322>>>>>>>-------------------",
";;;;;;;;;;;;;;;>>,,,,<<>>><<>>>>>>>>>>>>>>>;;;;;;;;;;;;;;;;;;;;;",
":::::::::::::::>>,,,,<<>>><<>>>>>>>>>>>>>>>:::::::::::::::::::::",
"OOOOOOOOOOOOOOO>>>>,,<<>>>,,>>55555555>>>>>OOOOOOOOOOOOOOOOOOOOO",
"+++++++++++++++>>>>,,<<>>>,,>>55555555>>>>>+++++++++++++++++++++",
"#################>>>>,,>>>,,,,>>>>>>>>>>########################",
"#################>>>>,,>>>,,,,>>>>>>>>>>########################",
"###################>>>>,,,,,,,,,,,<<>>>>########################",
"###################>>>>,,,,,,,,,,,<<>>>>########################",
"%%%%%%%%%%%%%%%%%%%%%>>>>>>>>>>>>>>>>>%%%%%%%%%%%%%%%%%%%%%%%%%%",
"%%%%%%%%%%%%%%%%%%%%%>>>>>>>>>>>>>>>>>%%%%%%%%%%%%%%%%%%%%%%%%%%",
"7777777777777777777777777777777777777777777777777777777777777777",
"8888888888888888888888888888888888888888888888888888888888888888",
"9999999999999999999999999999999999999999999999999999999999999999"
};
