/* XPM */
static char *P_look_U_resized[] = {
/* columns rows colors chars-per-pixel */
"64 64 220 2 ",
"   c #020201",
".  c #0C0405",
"X  c #0B0906",
"o  c #0C0C0B",
"O  c #050A0A",
"+  c #160309",
"@  c #110D0A",
"#  c #170409",
"$  c #16110B",
"%  c #1B150D",
"&  c #1F180E",
"*  c #1F0C12",
"=  c #0A1C1A",
"-  c #081514",
";  c #131313",
":  c #1B1512",
">  c #1C1C1C",
",  c #1B1618",
"<  c #05100F",
"1  c #23060E",
"2  c #2B0A13",
"3  c #360816",
"4  c #390917",
"5  c #3D0B1A",
"6  c #310A16",
"7  c #231B12",
"8  c #291F13",
"9  c #271918",
"0  c #37131B",
"q  c #12221E",
"w  c #2C2316",
"e  c #2C241A",
"r  c #322617",
"t  c #34291B",
"y  c #3A2D1C",
"u  c #34261A",
"i  c #3E311F",
"p  c #371922",
"a  c #0E2926",
"s  c #152826",
"d  c #14322E",
"f  c #153A36",
"g  c #232424",
"h  c #2B2B2B",
"j  c #232B2A",
"k  c #3E292A",
"l  c #372A24",
"z  c #3A3528",
"x  c #293937",
"c  c #333333",
"v  c #3B3B3B",
"b  c #323E3D",
"n  c #372E30",
"m  c #450A1C",
"M  c #42331E",
"N  c #530C21",
"B  c #5D0E25",
"V  c #461625",
"C  c #581629",
"Z  c #4D0F21",
"A  c #620F27",
"S  c #67122B",
"D  c #74122E",
"F  c #631F33",
"G  c #7A1633",
"H  c #482625",
"J  c #443521",
"K  c #4D3C25",
"L  c #433329",
"P  c #4A3929",
"I  c #533B29",
"U  c #513A30",
"Y  c #502F31",
"T  c #692436",
"R  c #79223C",
"E  c #16423D",
"W  c #32413F",
"Q  c #54422B",
"!  c #5A452B",
"~  c #59452A",
"^  c #4B4132",
"/  c #564136",
"(  c #5D4C35",
")  c #594939",
"_  c #624C2F",
"`  c #624D30",
"'  c #6B5434",
"]  c #6A553A",
"[  c #675338",
"{  c #735B3A",
"}  c #795D3E",
"|  c #715634",
" . c #7D623E",
".. c #7E2D45",
"X. c #5C3641",
"o. c #194843",
"O. c #1C534E",
"+. c #1E5953",
"@. c #274B46",
"#. c #334542",
"$. c #26534E",
"%. c #285C56",
"&. c #22625C",
"*. c #346358",
"=. c #266B64",
"-. c #28746D",
";. c #347168",
":. c #2A7B73",
">. c #444444",
",. c #4C4C4C",
"<. c #575757",
"1. c #574D4A",
"2. c #685845",
"3. c #715E45",
"4. c #695655",
"5. c #796447",
"6. c #716758",
"7. c #6C6B6B",
"8. c #646363",
"9. c #7D7D7D",
"0. c #757473",
"q. c #757269",
"w. c #5D625F",
"e. c #89193A",
"r. c #98183E",
"t. c #84653D",
"y. c #AE1C47",
"u. c #852843",
"i. c #982749",
"p. c #9B3150",
"a. c #AD2E54",
"s. c #B8395F",
"d. c #B7325A",
"f. c #B0264F",
"g. c #BC3A61",
"h. c #9D1C42",
"j. c #C32E5A",
"k. c #CB3C67",
"l. c #D63E6B",
"z. c #856942",
"x. c #8D6F46",
"c. c #846A47",
"v. c #8E7046",
"b. c #8C714B",
"n. c #94764C",
"m. c #9A7748",
"M. c #8C7250",
"N. c #86755F",
"B. c #89755A",
"V. c #8B7658",
"C. c #987C53",
"Z. c #A47E4C",
"A. c #857A6B",
"S. c #837D76",
"D. c #D7436F",
"F. c #2D847B",
"G. c #31877E",
"H. c #728168",
"J. c #9F8256",
"K. c #9D825B",
"L. c #A8824F",
"P. c #A18457",
"I. c #A5895C",
"U. c #AA8656",
"Y. c #B38D5A",
"T. c #B7915D",
"R. c #978365",
"E. c #8F8878",
"W. c #A88C64",
"Q. c #B18F61",
"!. c #AD936C",
"~. c #BA9767",
"^. c #B49870",
"/. c #C39D69",
"(. c #CAA36F",
"). c #CAA675",
"_. c #D5AE79",
"`. c #D1AA75",
"'. c #DAB37E",
"]. c #36958B",
"[. c #3B9E93",
"{. c #328D84",
"}. c #3DA297",
"|. c #42A99E",
" X c #4AB4A9",
".X c #54BCB1",
"XX c #49B0A5",
"oX c #539B88",
"OX c #59C6BA",
"+X c #69C9BF",
"@X c #68CDC2",
"#X c #79D3C9",
"$X c #70CEC4",
"%X c #828282",
"&X c #8C8C8C",
"*X c #939393",
"=X c #9C9B9B",
"-X c #958D89",
";X c #A7A7A7",
":X c #BCBCBC",
">X c #B4B4B4",
",X c #B8B3AD",
"<X c #9CB391",
"1X c #CFAF81",
"2X c #DAB583",
"3X c #E2BB86",
"4X c #ECC48E",
"5X c #E7C08A",
"6X c #F2CB96",
"7X c #FAD29B",
"8X c #F7D099",
"9X c #ECC893",
"0X c #85D7CE",
"qX c #99DDD6",
"wX c #8CD8D1",
"eX c #A5E1DB",
"rX c #C1C1C1",
"tX c gray81",
"yX c #D7D6D5",
"uX c #E6E6E6",
/* pixels */
"k k k k H L k k k k H k k L k k H L H n H n H H k n H n H H n H n Y -XyXuX,X-X%X9.%X9.9.%X%X%X8.X.k k k H k k H n k H k k L k k ",
"U U U U U U U U U U U U U U U U U I U U U U U I U U U U U Y U U U 1.-XyXuXrX-X%X&X%X%X9.9.9.%X7.2.U U U U Y U U U U U U U U U U ",
"} } 5.} } } } 3.3.t.3.} } t.3.3.} 3.} 3.3.t.3.3.t.3.3.t.t.3.t.3.3.c.E.,XrXrX:X;X=X&X9.7.7.0.9.q.5.t.3.3.3.t.t.3.3.3.t.} } t.3.3.",
"v.v.v.v.v.v.v.v.v.v.v.v.x.v.v.v.v.v.v.v.v.v.x.v.x.x.x.x.x.x.x.v.v.v.A.-X;XrXuXyX>X*X9.<.<.7.9.S.B.v.v.v.x.x.x.x.v.v.x.v.x.v.v.v.",
"v.v.v.v.v.v.v.v.v.x.x.x.x.v.x.x.x.v.v.v.x.x.x.x.x.x.x.x.x.x.v.v.x.x.A.S.=XrXuXuXrX;X%Xw.<.7.9.A.B.v.x.x.v.x.n.x.x.x.x.x.x.x.v.v.",
"x.x.x.x.x.x.v.x.x.x.x.x.x.x.x.x.x.x.x.x.x.x.x.x.x.x.x.x.v.x.x.x.x.x.B.S.&X>XyXtXrX;X&X0.8.0.%XA.B.v.x.v.x.x.x.x.x.x.x.x.x.x.x.x.",
"x.x.x.x.x.x.x.x.x.x.x.x.x.x.v.x.x.x.x.x.x.x.x.x.x.x.x.x.v.v.x.x.x.b.N.S.&X;XrXrXrX:X=X&X9.%X%XA.B.x.x.x.x.x.x.x.x.x.x.x.x.x.x.x.",
"x.x.v.x.v.x.x.x.x.x.x.x.x.x.x.x.x.x.x.x.x.x.x.x.x.x.x.x.v.v.x.x.x.b.N.S.&X;X:XrXrX:X>X=X&X&X%XS.B.x.x.x.v.x.x.v.x.x.x.x.x.x.x.x.",
"x.x.x.x.x.x.x.x.x.x.x.x.x.x.x.x.x.x.x.x.x.x.x.x.x.x.x.x.x.x.x.x.x.b.A.S.&X;X:XrXrXrX>X>X;X*X%XA.M.x.x.x.x.x.x.x.x.x.x.x.x.x.x.x.",
"x.x.x.x.x.x.x.x.x.x.x.x.x.x.x.x.x.x.x.x.x.x.x.x.x.x.x.x.x.x.x.x.x.x.B.S.&X=X:XrXrXrXrX:X>X=X%XA.B.x.x.x.x.x.x.x.x.x.x.x.x.x.x.x.",
"x.z.x.x.x.x.x.x.x.x.x.x.x.x.x.x.x.x.x.x.x.x.x.x.x.z.x.x.x.x.n.x.x.x.N.S.&X;X:XrXrXrXrXrX>X=X&XA.B.x.x.x.x.x.v.x.x.x.x.x.x.x.x.x.",
"n.n.n.n.n.n.n.n.m.n.n.n.n.n.n.n.n.n.n.n.n.n.n.n.n.n.n.n.n.n.n.n.n.n.A.S.&X;X:XrX:XrXrXrX:X=X%XA.B.n.n.n.n.n.n.M.m.n.n.n.n.n.n.n.",
"P.P.P.P.I.U.K.P.U.I.C.U.C.Z.W.C.P.P.P.U.P.P.P.P.P.P.P.P.P.P.P.P.Z.P.R.E.&X;X:XrXrXrXrXrX>X=X%XS.R.P.P.P.U.U.P.P.I.C.W.Z.C.I.Z.I.",
"M.M.M.M.M.M.M.M.M.M.M.M.M.M.M.M.M.V.M.M.M.M.M.M.b.M.M.M.M.M.M.M.M.B.A.S.&X;XrXrXrXrXrXrX>X=X%XS.A.x.M.M.M.V.M.M.M.M.M.M.M.M.M.M.",
"U / U / / / / U U / 1.U ` U / / / U / / U / / / / / U / U / / / U 1.4.0.&X;X:XrXrXrXrXrX>X=X%Xq.4./ U / / / U ) U / U ` U 1.U U ",
"U U U U U U U U U U U U Y U U U U U U U U U U U U U U U U U U U U U 2.4.0.&X;X;X;X;X;X=X*X&X%X7.1.U U U U U U U Y U U U U U U U ",
"3.t.3.t.} } } } } } } } } } } } } } } } } } } } } } } } } } } } } 3.5.5.6.S.-X*X*X*X%X0.7.0.E.q.5.} } } 3.t.3.} } } t.} } } } } ",
"v.v.v.v.x.x.x.x.v.v.x.v.v.x.v.v.v.v.v.v.v.v.v.v.v.v.v.v.v.x.v.v.v.x.n.v.n.A.E.9.9.0.8.,.,.8.0.9.V.n.x.x.v.v.v.v.v.v.v.v.x.x.x.x.",
"v.x.x.x.x.v.v.v.x.v.v.x.x.x.v.x.x.v.v.v.x.v.v.v.x.x.x.x.x.x.v.x.v.v.x.v.b.B.A.A.7.8.<.>.,.<.w.6.c.v.v.v.v.v.v.v.x.v.x.v.x.x.x.x.",
"x.v.x.v.x.x.x.x.x.x.x.x.x.x.x.x.x.x.x.x.v.x.x.x.x.x.v.x.x.x.x.x.x.v.v.b.b.b.b.6.2.,.>.>.>.#.,.2.5.x.x.x.x.x.x.x.x.x.x.x.x.x.x.x.",
"x.x.x.x.x.x.x.x.v.v.x.x.v.v.v.v.x.x.x.x.x.x.v.x.v.x.x.x.v.x.x.v.x.x.x.x.x. .{ ( U c c c c c c ) 3.x.x.x.x.x.v.x.x.x.x.x.x.x.x.x.",
"x.x.x.x.v.x.x.x.v.v.x.v.x.v.v.v.x.x.x.x.x.x.x.x.x.x.x.v.x.x.x.x.x.v.x.v. .( M t s > > > > > > z ] x.x.x.x.x.x.x.x.x.x.x.x.x.x.x.",
"x.x.x.x.x.x.x.x.v.v.v.v.x.x.v.v.x.x.x.x.x.x.x.v.v.v.x.x.x.x.x.x.x.x.x.x.} J @               O r ` x.x.x.x.x.x.x.x.x.x.x.x.x.x.x.",
"x.x.x.x.z.} ` _ ` ` ! _ ( ( ` ` ` ` _ _ ` ` ` ` _ ( { z.x.v.x.x.x.x.} ' K r   % z Q v d a -   8 ` x.x.x.b.x.x.x.x.x.x.x.x.x.x.x.",
"x.x.x.x. .Q r w w w w w w w w w w w w w w w w w w r ~  .x.x.x.x.x.z._ i 7 $   l 6.!.H.F.E E O 8 ( x.v.v.x.x.x.x.x.v.x.x.x.x.x.v.",
"x.x.x.z.' i O   X @ @ @ X X X             . .     X i ' z.z.z.z.z.t.K 7 .     ^ !.8X<XoX=.E O 8 ~ z.z.c.z.z.x.x.v.v.v.x.x.x.x.x.",
"x.x.{ ! J 7   w ^ 3.3.3.[ ) K r @       X 8 M r $   7 i Q K I K K I Y F C 6 . z 6.E.0.*.E q O % y K K K ! { x.x.v.x.x.x.x.v.x.x.",
"x.z.! u $ X   z V.1X1X1X(.U.t.! 8       % K { ! w   X $ % % % $ % 7 F p.p.V . q #.*.@.s - < O O @ % % % t ! z.x.v.x.x.x.x.x.x.x.",
"{ [ M $ X : e 2.^.4X4X6X'.T.t.! 8       $ K } ! w             . # 2 G d.a.F . - d o.s , # +   . $ % @   $ J '  .c.x.x.x.x.x.x.x.",
"l y 7 X : / B.K.~.(.(.(.Q.t.Q w $       X 8 M r @             1 m S r.f.i.C . < = s p C N 2   % M Q r @ X 7 y Q { x.x.x.x.x.x.x.",
". .     e V.5X'.~.L.L.L.v.Q @ .           . X                 3 D y.y.y.r.m .     X m e.e.m . r | t.~ %     . u ` x.x.x.x.x.x.x.",
"    8 L ] R.'.'.(.~.(.T.C.Q X . 1 3 # .     O o o @ o ; ; ; ; p B G e.G A 3 .     . B i.h.B . r | m.! %       u ` n.n.n.n.n.n.n.",
"  < ^ V.!.~.~.(._.3X3X3X~.[ X 1 N D m + . o , , > g g g h h c k p 4 4 4 2 #       . C a.a.F . t ' m._ %       r ] P.P.P.P.P.P.P.",
"  @ 3.).4X(.Y.~.'.8X8X6X).2.@ 3 D h.A 1 O ; > g j h h c v >.>.c >           O .   . F g.g.F * t ' t.! w X O   w ) c.c.b.V.M.M.M.",
"  X ( Y._.`.(.`._._.~.R.3.z O 1 m A 5 , ; , g g h h c c c v >.c h > ;   o g c g ; . F s.k.p.T T I ! ' ] ) t . @ 7 l k U / U / / ",
"  X Q m.~.`.4X'.(.U.5.P 9 ;   . + 1 * , > g h g h h c c c v v v v v g o ; v 8.>.> O F s.D.l.g.u.H w 2.!.!.) X   o @ e L U U U U ",
"    K t.Y.'.8X1XU. .( L h *         o > g j x x x b b v #.b v W >.>.h o ; >.7.<.g . C p.s.s.d...V @ 3.1X2X5.w & % 7 y Q [ ] } } ",
"  . J t.Y._.7X).c.K <.E.0.v o       o > g x @.@.$.%.%.%.%.$.@.#.W v g o ; v <.>.g   2 C F F F V 1 @ 3.1X3XW.` ~ ! ~ I J K ' x.v.",
"  X J t.Y._.8X^.) : 7.rXrX7.< O     o > h f O.%.=.-.-.:.-.&.%.$.W c > o o c ,.v ,     . . . . .   @ 3.1X4X/.Z.m.m.t.Q 7 7 I z.x.",
"w r J _ z.Q.'.K.P o ,.*X=X8.C 0 + O ; s f $.=.-.{.].].].{.:.=.%.@.b s < o > c k p 4 m V p 1       X [ ^._.~.Z.U.T.T.z.K y K _ ` ",
"_ _ K i K  .T.c.i O g ^ <...p.F 6   = f +.=.:.].}. XXX X|.].F.-.%.@.s < O o , p B G e.p...V       X ~ C.T.U.Z.T.`.'.T.x._ K r w ",
"v.z.Q & 7 ~ v.' l o O   2 ..D.p.V O a o.=.:.].}..XOXOXOXOXXX[.F.-.O.f <     O 3 D y.j.l.s.F . . X % I t.L.Z.L./.3X7X_.Y.t.M .   ",
"v.z.' P J K ~ ( 1.,.h $ 9 u.l.p.V O a O.-.{.|..XOX$X$X#X$X.XXX].:.&.f < . ; g p C S i.k.g.F X 9 ^ 5.x.m.L.T.(.'.6X8X_.Y.t.J X   ",
"x.x.t. .` J & ^ 0.*X<.> 6 ..l.p.V O d &.F.[..XOX$X#X0XqXwX$XOX|.{.=.o.- < g v n g 2 G k.g.F X L V.).~.L.Y.`.4X6X7X7X_.Y.t.J .   ",
"v.v.x.v. .K 7 P 0.*X<.> 2 R k.p.p O f &.{.|.OX@X#X0XqXeXqX0XOXXX].-.o.- - c <.v > . F s.s.F . ^ !.7X2X(./.`.5X6X7X7X(.C.| J 8 % ",
"v.v.z.v.5.' ^ ^ 1.,.c < 2 D d.e.5 O f -.].XXOXOX#X0XqXeXeX#XOX X].{.O.- ; v 8.>.g . F s.s.F . / !.7X4X2X_.`.(.'.4X6X!.] J K K K ",
"z.v.v.v.v.z.z.` t o     1 S y.G 4 O o.:.[.XXOX@X$X0XqXeXqX#XOX.X}.{.O.= , >.0.<.g + F g.s.F . ^ ^.7X7X7X4X(.U./.5X6XV.l & Q  .t.",
"n.n.n.n.n.n.b. .P r & . # m D N 1 O a O.:.]. XOX@X#X0XwX0X@X.X[.{.&.o.x c >.<.v > . C a.a.F . l 5.^.2X6X4X(.L.U.I.W.5.K z ' v.n.",
"K.P.P.P.P.P.P.n.c.] z @ . 1 3 1 .   - a E -.}. XOX@X@X@X+X.X|.F.O.d #.,.,.v h , o . C h.i.N . : z ) R.5X9X(.L.x.] / ( ] 5.b.K.J.",
"M.M.M.M.M.M.M.M.M.c.U 7 .               - O.F.[.|..X.X.XXX|.{.&.a O c 8.8.c . .   + N e.e.C ; o   o 3.).3X/.m.' r o J 3.b.M.M.b.",
"/ / / / / / / U / U L l 7 @             < d O.%.&.;.-.;.=.&.+.f = O g v v s   # 3 N B A F 4.q.,.g X ( !./.n._ K y 9 k U / / / / ",
"U U U U U U U U U U L L u :               < = = a s a a a = = < O   X ; ; @   2 A e.A 5 V S.rX*X>.X K n.n._ 8 8 t L P U U U U U ",
"} } } } } } } } } } } } ` J : $ $ $ X     + 1 # + . . . . .                   2 A e.F p >.%XrX*X1.7 K | ' r . 7 I } } } } } } } ",
"v.v.v.v.v.v.v.v.x.x.x.x.z.[ Q I I K w @ + 4 A B m 3 6 6 1 #                   + 4 N X.8.7.q.0.8.[ ~ Q J y &   r ` v.v.v.x.v.v.x.",
"v.x.v.x.x.x.v.v.v.v.x.x.x.x.z.z.t.} K $ 1 B r.e.S m N N m 1 .                     * 1.*X*X<.> i ' t.! 7 X     w ` v.x.v.x.x.x.x.",
"x.x.x.x.x.x.x.x.x.x.x.x.x.x.x.x.x.x._ M u C G G e.e.G G A m 1 # # # # # 1 2 3 1 + o v 7.7.v   7 K ' ~ i w w w K | v.x.x.x.b.x.x.",
"x.x.x.x.x.x.x.x.x.x.x.x.x.x.x.x.v.z. .' Q H 5 A u.d.f.h.e.A m 4 m 4 4 5 m B D N 2   > c c , O @ 8 r K ! ( _ _ ' 5.v.x.x.x.x.x.x.",
"x.x.x.x.x.x.x.x.x.x.x.x.x.x.x.x.x.v.v.v.{ M @ V p.D.j.y.r.G A N A A B B D r.y.G 4     . X     X   o J { v.v.v.x.v.v.x.x.x.x.x.v.",
"x.x.x.x.x.x.x.x.x.x.x.x.x.x.x.x.v.v.x.v. .` J Y T R G S S D e.e.e.i.i.i.h.d.j.u.5   % u i i i i M J `  .x.x.x.x.x.x.x.x.x.x.x.x.",
"x.x.x.x.x.x.x.x.x.x.x.x.x.x.x.x.v.z.x.v.z. .{ ! M 2 1 1 m S r.f.d.k.k.k.l.l.l.i.V   u ! { | { | { {  .t.x.x.x.x.x.x.x.x.x.x.x.x.",
"x.x.x.x.x.x.x.x.x.x.x.x.x.x.x.x.v.v.z.v.v.v.z.' M % $ % 0 B e.h.a.s.s.s.g.s.s.u.H 7 K } x.x.x.x.x.x.x.x.x.x.x.x.x.x.x.x.x.x.x.x.",
"b.n.n.n.n.n.n.n.n.n.n.n.n.n.n.n.n.n.n.n.v.n.n. .' Q Q Q I H Z C C F F F F F F Y I Q ] x.v.n.n.n.n.n.n.v.n.n.b.n.v.n.n.n.n.n.n.v.",
"P.J.C.J.J.J.J.P.C.P.P.P.P.P.C.P.J.J.J.J.J.J.K.J.C.C.n.C.5.P @ . + X . . . . + y ] C.C.J.J.J.J.J.J.J.J.J.J.J.J.J.J.J.J.J.J.J.J.J.",
"I.I.I.I.I.I.I.I.I.P.I.I.P.I.I.P.I.I.I.I.I.I.I.I.I.I.I.I.c.P .                 t { I.I.I.I.I.I.I.I.I.I.I.I.I.I.I.I.I.I.I.I.I.I.I."
};
