/* XPM */
static char *P_look_D_resized[] = {
/* columns rows colors chars-per-pixel */
"64 64 223 2 ",
"   c #020202",
".  c #0C0405",
"X  c #0B0906",
"o  c #0C0C0B",
"O  c #050A0A",
"+  c #160309",
"@  c #110D0A",
"#  c #170409",
"$  c #16110C",
"%  c #1B150D",
"&  c #1F180E",
"*  c #1F0C12",
"=  c #0A1C1A",
"-  c #081514",
";  c #131313",
":  c #1A1512",
">  c #1C1C1C",
",  c #1B1618",
"<  c #05100F",
"1  c #23060E",
"2  c #2B0A13",
"3  c #360816",
"4  c #390917",
"5  c #3D0B1A",
"6  c #310A16",
"7  c #231B12",
"8  c #291E13",
"9  c #261817",
"0  c #37131B",
"q  c #12221E",
"w  c #2C2316",
"e  c #2C241A",
"r  c #322617",
"t  c #33291B",
"y  c #392B1C",
"u  c #3E311F",
"i  c #371922",
"p  c #0E2926",
"a  c #152826",
"s  c #14322E",
"d  c #153A36",
"f  c #232424",
"g  c #2B2B2B",
"h  c #232B2A",
"j  c #3E292A",
"k  c #382A24",
"l  c #3A3528",
"z  c #293937",
"x  c #333333",
"c  c #3B3B3B",
"v  c #323E3D",
"b  c #372E30",
"n  c #450A1C",
"m  c #42331E",
"M  c #530C21",
"N  c #5D0E25",
"B  c #471724",
"V  c #581629",
"C  c #4D0E20",
"Z  c #620F27",
"A  c #67122B",
"S  c #74122E",
"D  c #631F33",
"F  c #7A1633",
"G  c #472825",
"H  c #443521",
"J  c #4C3B25",
"K  c #4D3A2C",
"L  c #47362A",
"P  c #503F27",
"I  c #56392B",
"U  c #513A30",
"Y  c #4D2F31",
"T  c #672435",
"R  c #79223C",
"E  c #16423D",
"W  c #32413F",
"Q  c #53422A",
"!  c #5A452A",
"~  c #59452B",
"^  c #4B4132",
"/  c #574136",
"(  c #5D4C34",
")  c #584939",
"_  c #624C2F",
"`  c #614C30",
"'  c #6B5434",
"]  c #675439",
"[  c #745B3A",
"{  c #795D3E",
"}  c #715634",
"|  c #7D623E",
" . c #7E2D45",
".. c #5C3641",
"X. c #194843",
"o. c #1C534E",
"O. c #1E5953",
"+. c #274B46",
"@. c #334542",
"#. c #26534E",
"$. c #285C56",
"%. c #22625C",
"&. c #346358",
"*. c #266B64",
"=. c #28746D",
"-. c #347168",
";. c #2A7B73",
":. c #444444",
">. c #4C4C4C",
",. c #575757",
"<. c #564F4B",
"1. c #695945",
"2. c #715E45",
"3. c #685755",
"4. c #796448",
"5. c #726958",
"6. c #6C6B6B",
"7. c #636362",
"8. c #7D7D7D",
"9. c #767473",
"0. c #747269",
"q. c #5D625F",
"w. c #89193A",
"e. c #98183E",
"r. c #83653D",
"t. c #AE1C47",
"y. c #852843",
"u. c #982749",
"i. c #9B3050",
"p. c #9A324F",
"a. c #AD2E54",
"s. c #B8395F",
"d. c #B7325A",
"f. c #B0264F",
"g. c #BC3A61",
"h. c #9D1C42",
"j. c #C32E5A",
"k. c #CB3C67",
"l. c #D63E6B",
"z. c #826741",
"x. c #856942",
"c. c #8D6F46",
"v. c #856C4A",
"b. c #8E7046",
"n. c #8C704B",
"m. c #94764C",
"M. c #9A7748",
"N. c #8C7250",
"B. c #89755A",
"V. c #8A765B",
"C. c #977B54",
"Z. c #A47E4C",
"A. c #857A6B",
"S. c #827D76",
"D. c #D7436F",
"F. c #2D847B",
"G. c #31877E",
"H. c #728168",
"J. c #9F8256",
"K. c #9D825A",
"L. c #A8824F",
"P. c #A18457",
"I. c #A5895C",
"U. c #AA8656",
"Y. c #B38D5A",
"T. c #B7915D",
"R. c #988364",
"E. c #8F8776",
"W. c #A88B64",
"Q. c #B18F61",
"!. c #AD926B",
"~. c #BA9767",
"^. c #B49870",
"/. c #C39D69",
"(. c #CAA36F",
"). c #CAA675",
"_. c #D5AE79",
"`. c #D1AA75",
"'. c #DAB37E",
"]. c #338D84",
"[. c #36958B",
"{. c #3B9E93",
"}. c #2E8D83",
"|. c #3DA297",
" X c #42A99E",
".X c #4AB4A9",
"XX c #54BCB1",
"oX c #49B0A5",
"OX c #539B88",
"+X c #59C6BA",
"@X c #69C9BF",
"#X c #68CDC2",
"$X c #79D3C9",
"%X c #70CEC4",
"&X c #828282",
"*X c #8C8C8C",
"=X c #939393",
"-X c #9C9B9A",
";X c #969088",
":X c #A7A7A7",
">X c #BCBCBC",
",X c #B5B4B4",
"<X c #A3A689",
"1X c #CFAF81",
"2X c #DAB583",
"3X c #C6B59D",
"4X c #E2BB86",
"5X c #CCBDA3",
"6X c #ECC48E",
"7X c #E7C08A",
"8X c #F2CB96",
"9X c #FAD29B",
"0X c #F7D099",
"qX c #ECC893",
"wX c #85D7CE",
"eX c #99DDD6",
"rX c #8CD8D1",
"tX c #A5E1DB",
"yX c #C1C1C1",
"uX c gray81",
"iX c gray84",
"pX c #E7E6E5",
"aX c #E6E1D9",
/* pixels */
"j j j j G G b G b j G j j j j j G j j j j j G 9 ;                   : i j j j j G j j j j j G j j j j j G j j j j j G j j G b j ",
"U U U U U U U U U U U I U U U U U U U U U U U k 9 . . . + . . . . . 9 H K K U U U I U U U U U I U U / U U U U U U U U U U U U U ",
"{ { 4.{ { { { 2.2.2.r.{ { { 2.2.2.{ [ | ' ! J G D D D D D D D D V M B G H H H K ' 2.{ { 4.{ 2.{ { 2.4.[ { { r.2.2.2.r.{ { { 2.2.",
"b.b.b.b.b.b.b.b.b.b.c.c.b.b.b.M.b.b.b.b.4.J 7 G y.s.s.g.s.s.s.f.h.w.Z 8 % % % l ' b.b.b.b.b.b.b.b.b.b.b.c.c.c.b.b.b.b.b.b.c.c.M.",
"b.b.b.b.b.b.c.c.b.c.c.c.c.{ [ [ } [ [ [ ( r . B p.l.l.k.k.k.k.d.t.e.A 4 1 1 9 G I [ r.x.c.c.c.c.b.b.b.b.b.b.b.b.b.b.b.b.c.c.b.b.",
"c.b.b.c.c.c.c.c.c.b.c.b.r.( m m u u u u r %   5 w.j.a.u.u.u.u.y.w.w.S Z S F R T I H ( | c.b.c.b.b.b.c.c.b.c.c.c.c.b.c.c.c.b.c.c.",
"c.c.b.c.c.c.c.c.c.c.b.c.[ H @ . X X   .       3 F t.e.S N Z Z N N Z w.e.f.d.D.p.B $ H [ b.c.c.c.b.c.c.c.c.c.b.c.c.c.c.c.c.c.c.c.",
"c.c.c.c.c.b.c.r.} ` ` ` ! H r 7 @   > x x > . 1 M F N n 4 4 4 5 3 n Z w.h.f.d.y.V 5 G I ' | c.b.c.c.c.b.c.c.c.c.b.c.b.c.c.c.b.c.",
"c.c.c.c.b.b.b.} J w w w y Q ' J 7 . c 6.6.c O + 1 3 2 # # # # # # 1 n Z S F w.w.F S V i u ` x.b.b.b.b.b.c.c.b.b.c.c.c.c.c.c.c.c.",
"x.c.c.c.b.b.b.! w     . 7 ! r.' k > ,.=X=X,.*                       1 n M M C A w.h.Z 1 $ J | r.z.r.x.x.c.c.c.b.c.c.c.c.c.c.c.c.",
"b.b.c.c.c.c.b.( w   7 y J P _ ] 7.6.6.6.3...C 3 #                   + 1 3 3 6 n M Z 4 + @ w J J Q Q ' | x.b.b.b.c.c.c.c.c.c.c.c.",
"m.m.m.m.m.m.m.] e . y ' } J 7 <.-XyX&X:.j D w.Z 3                     . . . + + # 1 +     o % % % & Q 4.m.m.m.m.m.m.m.m.m.m.m.b.",
"J.J.P.P.J.m.v.` u w ` C.r.Q X W *XyXS.Y 3 Z w.Z 2   o ; ; o   O - = q p p q p = q = <             X y ] v.C.J.J.P.P.P.P.Z.P.P.P.",
"n.N.N.N.4.( l J P ` m.~.T.] o e >.6.3.S Z M M 3 #   9 c c a   = d #.%.*.-.-.-.*.%.X.s <             & t K ] v.N.N.N.N.C.B.N.N.N.",
"/ / / / L e X t ' M.~.6X).2.@   o ; V e.w.M + .   o x 7.7.x O p %.[.|..XXXXXXX X{.F.o.=                 $ k U / U ) U U <.U U ` ",
"U K L k k L / ' r.L.).qX7XR.( k ; . V h.h.M . o > g c >.>.W s o.F.|.XX@X%X#X#X+XoX|.=.E p <   + 1 3 * X . , k G Y U U U I U U Y ",
"2.[ I t H 4.W.W.L.L.`.6X8X1X^.4.l + V a.a.V . > c ,.:.x z +.%.}.|.XX#XwXrX$X$X#X+X.X[.=.o.s O 1 M S n + . $ 7 l _ { | [ 4.{ { { ",
"x.r.P & k C.8X4X/.L.(.7X9X9X9X!./ . D s.s.T + h ,.9.:., = o.}.|.XX+X$XeXtXeXwX$X+X+X.X|.;.d O 3 w.t.A #   O o t ( x.x.b.b.b.b.c.",
"P P J J ] !.8XqX'.`.`.`.4X6X9X!.^ + T s.s.D . f :.7.c ; = X.}.{..X+X$XtXtXeXwX$X#X+XoX[.=.d O 5 w.d.S 2 $ g >.<./ Q ' | c.b.c.c.",
"% & H } C.).0X9X0X4X_././.'.9X^.^ X D s.s.D . , c ,.x ; - X.=.[..X+X$XeXtXeXrX$X+X+X X}.%.d O B u.k.R 2 > ,.=X9.L > J | c.c.c.c.",
"  . H r.Y._.9X9X8X4X`.Y.P.~._.V.L . D s.k.R 2 9 x c h o - X.*.]. XXX%XrXeXwX$X%X+X.X|.}.$.d O B i.D. .2 a ,.=X0.^ 7 H ` { r.b.b.",
"  X H r.Y._.9X6X'.(.T.L.M.v.4.^ 9 . D s.k.u.A V i > ; . - d %.;.{.oXXX%X$X$X#X+XXX X}.=.o.p   B i.D.y.2 ; b >.<.) ! J m J ' x.c.",
"  . H r.Y._.9X4X/.L.L.Z.r.P % X   . D s.l.d.t.S 4 O     < s o.*.F.{.oX+X+X+X+XXX X[.;.*.X.p O B i.D.y.2   o o y ' c.~ 7 & Q z.b.",
"w r J _ x.T.'.`.Y.Z.Y.T.C.Q X     . B y.u.w.w.V i , o O < p +.$.=.}.[. XoXoXoX|.[.;.*.o.d p   2 T i. .,.c f   l v.T.z.J u Q ! ` ",
"` ! J u J r.T.Y.L.L.~._.^.] o       * 0 B 5 5 i b x > . O a v #.$.*.;.].[.[.[.G.;.*.o.z a ;   # 0 V 7.-X*X>.o L C.2XQ.x.` J r w ",
"b.x.Q 7 & ~ b.M.M.Z.(.6X1X2.o   . . + . .     > x >.g ; . f x W #.O.%.=.=.;.=.*.$.o.d h > o       @ 6.yXyX6.: ( !.9X_.Y.r.H X   ",
"b.x.' J H Q ! ~ ~ ` P.2X1X1.@ 1 B D D D B 2 . > :.7.c ; < f Y @.@.+.#.$.$.$.$.+.+.+.z a > o O     O ^ 9.E.3.J 4.).9X_.Y.r.H .   ",
"b.b.r.[ ` H 7 & & e v.2X_.4.o n  .s.s.s.i.V . f ,.6.:.; ; h :.@.W v c @.v v v v z g h f > o       O : f W ( | I.2X9X_.Y.r.H .   ",
"b.b.c.c.[ J & @ X X ( !.!.1.8 G y.g.D.D.s.D . f :.7.c ; o f c c c c x c b b g g g f f > , * 1 # . . $ 7 L | U.(.'.7X_.~.m.Q X   ",
"c.c.c.c.| ] Q y $ X t ) ] ] _ I T D i.k.s.D . ; f x > o . ; > g c :.c x x x g g g f 9 ; * n Z n # . l 4.I.~._.`.`.(.`._.Y.( X   ",
"c.b.b.b.b.x.r.~ w     X e ~ b.' y * D s.s.T .   O O .       . , x :.:.c x x g h f a ; o 1 N h.S 6 o 1.).9X0X9X'./.U.(.6X).1.o   ",
"n.m.m.m.m.m.m.] w       & ! M.' r . D f.a.V .       + 2 3 3 3 i j x g g f f > > , ; o   # n S M 1 o ] ^.'.7X'._.(./.~.^.V.^ X   ",
"P.P.P.P.P.P.K.[ t       % _ M.} r . N h.u.V X       3 A F F F Z 0 ; ; ; o o o o X X X   . # 3 1 + X ~ C./.~./.(.'._.K.1.l w     ",
"N.N.N.N.N.N.N.] t .     % ! r._ r . n w.w.C X O   . M e.t.t.t.S 3 O             . X               $ Q r.L.L.L.T.'.7XB.e   X   X ",
"/ / U / / / / L k 7 $   @ r Q u &   1 M M i a = O + V u.f.e.A n #             $ r m 8 X       $ r P r.Q.`.(.(.~.W.B./ : . ; 7 8 ",
"U U U U U U I Y L j 8 X   @ & $ .   + # 9 s E E - . D a.s.F 6 # .             w ! [ J $       7 ! c.Q.'.6X6X6X!.] e : X X 8 k j ",
"{ { { { 2.{ { { [ [ J 8 @ $ $ @ .   < - s +.-.W q . V p.p.D & @ $ $ $ $ @ .   w ! { J %       8 ! r.I.(.1X1X1XV.H   X @ w K [ { ",
"c.b.b.b.b.b.b.b.b.c.[ ! I I P y $   p X.%.H.E.5.l   2 B D I P P Q J Q Q m 7   @ w m 8 X       $ r J ( ] 2.1.4.^ w   7 H ~ [ c.b.",
"b.b.b.b.b.b.b.c.c.c.c.x.x.z.z._ w O d =.OX<XqX!.^   . . & I | z.r.z.z.z.' u X   . X             . X X X o $ o X     y ' x.c.c.c.",
"c.c.c.c.c.c.c.c.c.c.c.c.c.c.c.` w O p o.-.H.!.4.k   @ 7 l ` x.c.b.b.c.c.| ~ r w w w w w w w w w w w w w w w w w e t Q | c.c.c.c.",
"b.c.c.c.c.c.c.c.c.c.c.c.n.c.c.` w   - p s x ^ l %   w J ' | c.c.b.c.c.c.z.[ ` ` ` ` ` ` ( ` ` ` ` ` ` ` _ _ ( ( ( ` [ z.b.c.c.c.",
"c.c.c.c.b.c.c.b.c.c.c.c.c.c.c.` e   X     X     . o H [ c.b.n.c.c.b.c.b.c.b.b.n.c.c.c.c.c.c.c.c.c.c.c.c.b.b.c.b.b.b.c.b.c.b.c.b.",
"c.c.c.b.c.c.c.c.c.c.c.c.c.n.c.' l > > > > > > e k H ` 2.c.c.c.c.b.c.c.c.c.c.c.c.b.c.c.c.c.b.c.c.c.c.c.b.c.c.c.c.b.b.b.c.n.c.c.c.",
"c.b.c.c.c.b.b.n.c.c.c.c.c.c.c.2.) x x x x x z ^ ` [ z.x.b.c.b.c.c.c.c.b.c.b.c.c.c.c.c.b.c.c.b.c.c.c.c.c.b.c.c.c.b.b.c.c.c.c.c.b.",
"c.c.c.c.c.c.c.c.c.c.c.c.c.c.c.2.<.>.:.:.:.:.>.3.4.N.n.c.c.c.c.c.c.c.c.c.c.c.c.c.c.c.c.c.c.c.c.b.b.c.c.c.c.c.c.c.c.c.c.c.c.c.c.c.",
"c.c.c.c.c.c.c.c.c.c.c.c.c.c.c.v.5.7.,.>.:.,.q.6.A.A.B.n.c.c.c.c.c.c.c.c.c.c.c.c.c.c.c.c.c.c.c.c.c.c.c.c.c.c.c.c.x.c.c.c.c.c.c.c.",
"c.c.c.c.c.c.c.c.c.c.c.c.c.c.c.B.A.9.7.>.<.3.9.E.S.S.A.m.c.c.c.c.c.c.c.c.c.b.c.c.c.c.c.c.c.c.c.c.c.c.c.c.c.c.c.c.c.c.c.c.c.c.c.c.",
"m.m.m.m.m.m.m.m.m.m.m.m.m.m.M.V.S.&X9.6.9.OX*X=X=X=XE.A.V.N.m.m.m.m.m.m.n.m.m.m.m.m.m.m.m.m.n.m.m.m.m.m.m.m.m.m.m.m.m.m.m.m.m.m.",
"P.P.P.P.Z.W.C.P.P.P.Z.Z.W.C.P.R.S.&X;X=X-X:X:X:X,X:X-XE.E.C.I.P.W.Z.Z.W.P.P.P.P.P.P.P.I.P.P.P.P.J.J.P.P.P.P.P.P.P.P.Z.W.C.P.P.P.",
"N.N.N.N.N.C.N.N.N.N.N.m.N.N.N.A.S.&X-X,XyXyXyXyXyX>X:X*XS.A.N.N.N.N.B.C.N.N.N.C.N.N.n.N.N.N.N.N.n.n.N.N.N.N.N.N.N.N.N.C.N.N.N.N.",
"/ U U / ) U U I U ) U <.U U U 3.6.&X-X,XyXyXyXyXyX>X:X*XS.3...I U U U U U ) U U U / / / / U / / / / / / U ` / U U U <.U ) U U ) ",
"U U U U U U U Y U U U U U U U 1.6.&X-X,XyXyXyXyXyX>X:X*X9.3.U Y U U U U U U U I U U U U U U U U U U U U U U U U U U I U U U U U ",
"2.r.2.r.{ { 2.r.2.r.2.r.z.2.r.4.A.&X-X,XyXyXyXyXyX>X-X*XS.B.z.2.2.{ { { { { { { 2.{ { { { { { { 2.{ { { { { { { 2.r.r.r.z.2.r.2.",
"b.b.b.b.c.c.b.b.c.c.c.b.n.c.c.B.S.&X-X,X>XyXyXyXyX>X:X*XS.B.N.c.m.b.b.b.b.b.b.b.m.b.b.b.b.b.b.b.b.b.b.b.b.b.b.b.x.c.x.c.c.c.c.c.",
"c.c.c.c.c.c.b.b.c.c.c.c.c.c.c.B.A.&X-X,XyXyXyXyX>X>X:X*XS.B.v.c.b.c.c.c.b.b.b.b.c.b.b.c.c.c.c.c.b.b.b.b.b.c.b.c.c.c.c.c.c.c.c.c.",
"c.b.c.b.c.c.c.c.c.c.c.b.c.c.c.B.S.&X=X:X,X,X>XyXyX>X:X*XS.B.N.v.c.c.c.b.c.c.c.c.c.c.c.b.c.b.c.c.c.c.b.c.c.c.c.c.c.c.c.c.c.c.c.c.",
"c.c.c.c.c.b.c.c.c.c.c.c.c.c.c.N.A.8.*X=X-X:X>XyXyX>X:X*XS.B.n.c.c.c.c.c.c.c.c.c.c.c.c.c.b.c.c.c.c.c.c.c.c.c.c.c.c.c.c.c.c.c.c.c.",
"c.c.c.c.c.c.c.b.c.c.c.c.c.c.c.B.S.8.8.8.*X:X>XyXyX>X:X*XS.A.n.c.c.b.c.c.c.b.c.b.c.c.c.c.c.c.c.c.c.c.c.c.c.c.c.c.c.c.c.c.c.c.c.c.",
"c.c.c.c.c.c.c.c.c.c.c.c.c.c.c.B.A.8.9.6.9.=X:XyXuXiX,X=XS.B.n.c.c.c.c.c.c.c.c.c.c.c.c.c.b.c.c.c.c.b.c.c.c.c.c.c.c.c.c.c.c.c.c.c.",
"c.c.c.c.c.c.c.x.c.c.c.c.c.c.c.B.A.8.6.,.,.&X:XyXpXpXyX=X8.B.n.c.c.c.c.c.c.c.c.c.c.c.c.c.c.c.c.c.c.c.c.c.c.c.x.c.c.c.c.c.c.c.c.c.",
"c.c.c.c.c.c.c.c.c.c.c.b.c.c.c.B.A.8.6.,.3.8.-X,XuXpXyX:X;XR.n.c.c.c.c.c.c.c.c.c.c.c.c.c.c.c.c.c.c.c.c.c.c.c.c.c.c.c.c.b.c.c.x.c.",
"m.m.m.m.m.m.m.m.m.m.m.C.M.c.M.V.A.&X9.6.6.8.*X-X:X>XyXyX,X^.C.m.m.m.m.m.m.m.m.b.m.m.b.m.m.m.m.m.m.m.m.m.m.m.m.m.m.m.m.C.M.m.m.M.",
"P.P.C.P.P.P.C.P.Z.C.Z.C.C.Z.C.C.S.&X8.8.8.8.&X&X&X*X>XpXaX3XI.P.C.P.C.P.P.C.Z.P.J.J.J.J.C.P.J.J.J.J.C.P.J.J.J.J.Z.C.Z.C.W.C.C.Z.",
"I.I.I.I.I.I.I.I.W.W.I.I.W.W.Q.E.S.&X&X8.&X&X&XE.OX*X,XpXpX5X!.I.I.I.I.I.W.I.I.W.I.I.I.I.I.I.I.I.I.I.I.I.I.I.I.I.W.W.P.W.W.Z.W.W."
};
