/* XPM */
static char *P_look_R_resized[] = {
/* columns rows colors chars-per-pixel */
"64 64 224 2 ",
"   c #020201",
".  c #0C0405",
"X  c #0B0906",
"o  c #0C0C0B",
"O  c #050A0A",
"+  c #160309",
"@  c #110D0A",
"#  c #17050A",
"$  c #16110B",
"%  c #1B150D",
"&  c #1F180E",
"*  c #1F0C12",
"=  c #0A1C1A",
"-  c #081514",
";  c #131313",
":  c #1B1511",
">  c #1C1C1C",
",  c #1E1812",
"<  c #05100F",
"1  c #23060E",
"2  c #2B0A13",
"3  c #360816",
"4  c #390917",
"5  c #3D0B1A",
"6  c #310A16",
"7  c #231B12",
"8  c #291F13",
"9  c #27191A",
"0  c #37131B",
"q  c #12221E",
"w  c #2C2316",
"e  c #2C231A",
"r  c #34291B",
"t  c #3A2D1C",
"y  c #332519",
"u  c #3E301E",
"i  c #371922",
"p  c #0E2926",
"a  c #152826",
"s  c #14322E",
"d  c #153A36",
"f  c #232424",
"g  c #2B2B2B",
"h  c #232B2A",
"j  c #3E292A",
"k  c #382A24",
"l  c #393528",
"z  c #293937",
"x  c #333333",
"c  c #3B3B3B",
"v  c #323E3D",
"b  c #372E30",
"n  c #450A1C",
"m  c #41311E",
"M  c #530C21",
"N  c #5D0E25",
"B  c #461625",
"V  c #581629",
"C  c #4D0E20",
"Z  c #620F27",
"A  c #67122B",
"S  c #74122E",
"D  c #631F33",
"F  c #7A1633",
"G  c #492525",
"H  c #443521",
"J  c #4D3C25",
"K  c #4D3A2C",
"L  c #473729",
"P  c #543C2A",
"I  c #513A30",
"U  c #4D3131",
"Y  c #692436",
"T  c #79223C",
"R  c #16423D",
"E  c #32413F",
"W  c #54422A",
"Q  c #5A452A",
"!  c #59462B",
"~  c #4B4132",
"^  c #564136",
"/  c #5D4C34",
"(  c #584B39",
")  c #4F402D",
"_  c #624C2F",
"`  c #624D31",
"'  c #6C5434",
"]  c #6A563A",
"[  c #685539",
"{  c #745B3A",
"}  c #795D3E",
"|  c #715636",
" . c #7D623E",
".. c #7E2D45",
"X. c #5C3641",
"o. c #194843",
"O. c #1C534E",
"+. c #1E5953",
"@. c #274B46",
"#. c #334542",
"$. c #26534E",
"%. c #285C56",
"&. c #22625C",
"*. c #346358",
"=. c #266B64",
"-. c #28746D",
";. c #347168",
":. c #2A7B73",
">. c #444444",
",. c #4C4C4C",
"<. c #575757",
"1. c #574D48",
"2. c #695945",
"3. c #725E45",
"4. c #695D56",
"5. c #675C58",
"6. c #6B4550",
"7. c #796447",
"8. c #6D675A",
"9. c #6C6B6B",
"0. c #636362",
"q. c #767372",
"w. c #7D7D7D",
"e. c #727368",
"r. c #5D625F",
"t. c #89193A",
"y. c #98183E",
"u. c #83653D",
"i. c #AE1C47",
"p. c #852843",
"a. c #982749",
"s. c #9B3050",
"d. c #98304F",
"f. c #AD2E54",
"g. c #B8395F",
"h. c #B7325A",
"j. c #B0264F",
"k. c #BC3A61",
"l. c #9D1C42",
"z. c #C32E5A",
"x. c #CB3C67",
"c. c #D63E6B",
"v. c #826742",
"b. c #856943",
"n. c #8D6F46",
"m. c #846B4B",
"M. c #8E7046",
"N. c #8A714C",
"B. c #94764C",
"V. c #9A7748",
"C. c #8C7250",
"Z. c #897558",
"A. c #977B55",
"S. c #A47E4C",
"D. c #867D70",
"F. c #837C7A",
"G. c #867967",
"H. c #D7436F",
"J. c #2D847B",
"K. c #31877E",
"L. c #728168",
"P. c #9F8256",
"I. c #9B805B",
"U. c #A8824F",
"Y. c #A18457",
"T. c #A5895C",
"R. c #AA8656",
"E. c #B38D5A",
"W. c #B7915D",
"Q. c #978364",
"!. c #9D8461",
"~. c #92917B",
"^. c #A88C64",
"/. c #B18F61",
"(. c #AD936C",
"). c #BA9767",
"_. c #B49870",
"`. c #C39D69",
"'. c #CAA36F",
"]. c #CAA675",
"[. c #D5AE79",
"{. c #D1AA75",
"}. c #DAB37E",
"|. c #36958B",
" X c #36958B",
".X c #3DA297",
"XX c #42A99E",
"oX c #4AB4A9",
"OX c #54BCB1",
"+X c #49B0A5",
"@X c #539B88",
"#X c #59C6BA",
"$X c #69C9BF",
"%X c #68CDC2",
"&X c #79D3C9",
"*X c #70CEC4",
"=X c #828282",
"-X c #8C8C8C",
";X c #8A8684",
":X c #939393",
">X c #9C9A9A",
",X c #9D918B",
"<X c #A7A7A7",
"1X c #BCBCBC",
"2X c #B4B4B4",
"3X c #B1ACAA",
"4X c #9FA490",
"5X c #CFAF81",
"6X c #DAB583",
"7X c #E2BB86",
"8X c #ECC48E",
"9X c #E7C08A",
"0X c #F2CB96",
"qX c #FAD29B",
"wX c #F7D099",
"eX c #ECC893",
"rX c #85D7CE",
"tX c #99DDD6",
"yX c #8CD8D1",
"uX c #A5E1DB",
"iX c #C1C1C1",
"pX c gray81",
"aX c #D8D6D5",
"sX c #E6E6E6",
/* pixels */
"j j j j G G j b j j G j j G b j j j j j j j j 9 @                   : i j j j j G j j j j j G j j j j j G j j G b j G j j j j j ",
"I I I I I I I I I I I I ~ I I I I I I I I I K k , X O . X X @ X     7 j K I I I I U I I I I I P I I I I I P I I I I I I I I I I ",
"} } 7.} } } } 3.7.} } } } } 7.} } } 7.{ | ! L H H H H H J / 3.~ 8   , t P ` { 3.3.u.u.3.7.} 3.} } } 7.7.} 3.u.3.3.} } } } 3.7. .",
"M.M.M.M.M.M.M.M.M.M.M.M.M.M.M.M.M.n.n.M. .J 7 u _ u.u.u.B.(.].Z.L   X $ r Q b.M.n.n.n.n.M.M.M.M.M.M.M.M.M.M.M.n.B.M.M.M.M.M.M.M.",
"M.M.M.M.M.M.M.M.M.M.M.n.M.n.n.M.M.M.u. .` H 7 J u.W.E.E.).[.7X).{ e : X $ H '  .b.n.n.n.M.M.M.M.M.M.M.M.M.M.n.n.M.M.M.M.M.M.M.M.",
"n.n.n.n.n.n.n.M.M.M.M.n.M.n.n.n.M.b.' J H J Q v.W.[.[.[.[.{.'.).!.Z.~ , X 7 t W { M.n.n.n.n.n.n.n.n.n.n.n.n.n.n.n.M.n.n.n.n.n.n.",
"n.n.n.M.n.n.n.n.M.M.n.M.n.n.n.n.M.v.W 7 7 Q n.W.}.qXqXwX9X'.R.`.6X7Xm.f     O y ` M.M.n.n.n.n.n.n.n.n.M.n.n.n.n.n.n.n.n.n.n.n.n.",
"M.n.n.n.n.M.n.n.n.n.n.n.n.n.n.v.| / ^ E I / ' b.I._.].}.}.{.`.'.[.6X^.{ l w   w / n.n.n.n.M.n.n.n.n.n.n.n.M.n.n.M.M.n.M.n.n.n.M.",
"n.n.n.n.n.n.n.M.n.M.n.n.n.n.M.] L r ,.q.q.1.t u K ( m.S.`.[.}.[.'.).)._.Z.~ o w ` M.M.b.n.n.n.n.n.n.n.n.n.n.n.n.n.M.n.n.n.n.n.n.",
"n.n.n.n.n.n.n.M.n.n.n.n.b.b.b.Q w o ,.:X:X,.o . o * U u.R.[.qX7X).U.'.8X5X3.@ e / M.M.M.n.n.n.n.n.n.n.n.n.n.n.n.n.n.n.n.n.n.n.n.",
"b.n.n.n.n.n.M.M.n.n.n.n. .' P r ; . x <.<.x O f ,.9.3.'  .).wX7X`.U.'.eX5X3.$ w / M.n.b.M.M.M.M.n.n.n.n.n.n.n.n.n.n.n.n.n.n.n.b.",
"B.B.B.B.B.B.B.B.B.B.B.B. .W 7 $ .   o > > $   E :XiX@XL L !.0X7X`.U.'.8X].7.o e ' B.B.V.B.B.B.V.B.B.B.B.B.B.B.B.B.B.B.B.B.B.B.B.",
"Y.Y.Y.Y.Y.Y.Y.Y.Y.I.B.N.] t O . + 1 1 1 2 6 6 <.>XiXq.g e 7.]._.V.u.W.6X].[ o r ] Y.Y.Y.Y.Y.Y.Y.A.Y.Y.Y.Y.Y.Y.Y.Y.Y.Y.T.Y.Y.Y.Y.",
"C.C.C.C.C.C.C.C.C.N.] K r : . # n Z F ..........5.9.c * $ l 2.( ! W b.W.P.( X w ` C.C.C.C.C.C.C.C.C.C.C.C.A.C.C.C.C.C.C.C.C.C.C.",
"^ ^ I ^ ^ ^ ^ I ^ I k @       3 S i.h.x.H.H.c.s.B ; o     . o X X @ J u.u.J X : l I ^ ^ ^ ^ ^ I ^ ^ I ^ I ^ ^ ^ I ^ ^ ^ ^ I I ^ ",
"I I I I I I I I I K e X       1 M t.t.d.s.s.s.D i       . 1 3 2 + X w Q Q y   % k I I I I I I I I I I I I I I I I I I I I I I I ",
"3.} } } } } } } } | H $       . 2 4 5 B B B B 6 *       + n S M 1   @ 8 8 @   8 P u.6.u.u.3.u.3.v.3.u.} 3.u.3.u.} } u.u.3.u.3.| ",
"M.M.M.M.M.M.M.n.b. .J %           O O O O   O O         1 N l.S 3             w _ M.M.n.n.n.n.M.n.n.n.n.M.M.n.n.n.b.n.n.n.n.n.n.",
"M.M.M.M.M.M.n.} _ J w @       < p R d d s p p = - o o o * 5 Z n 1             w _ M.n.n.n.n.M.M.n.n.n.n.M.M.M.M.n.n.n.n.n.n.n.n.",
"M.M.M.M.n.n.n.' m $ @         p +.:.-.&.&.O.o.d a > > > > * 1 +               y _ n.n.n.n.n.n.n.M.n.M.n.M.M.n.n.n.n.n.n.n.n.n.n.",
"n.n.n.n.b.3.{ P y 1 +   O < = o.:..X X XJ.-.&.O.R h f f > ; o       X % $ X   w _ n.n.n.n.n.n.n.n.n.n.n.n.n.n.n.n.n.n.n.n.n.n.n.",
"n.n.n.n.u._ H G V Z 4 + < p O.=. XoXXX.X.X X:.=.O.z z h f > ; o .   8 J J 8   w _ n.n.n.n.M.n.M.M.n.n.n.n.n.n.M.V.n.n.n.n.n.n.n.",
"n.n.n.n.{ m # n S l.Z # = O.J..XoX#X#X#XOXXX XJ.=.O.@.x f f f ; X   m } } m . w ` n.n.n.n.n.M.n.n.n.n.n.n.n.n.n.n.n.n.n.n.n.n.n.",
"n.n. .' Q U G Z F y.M + = %..XoX#X#X%X%X#XoX.X X:.+.@.z g f f ; o . y Q Q w . e ` n.n.n.n.n.n.n.n.n.n.n.n.M.n.n.n.n.n.n.n.n.n.n.",
"n.b.` m m Y d.p.t.S n + = =.+XOX%X*X&X&X*X#XOX.X X=.$.z g g h > o   @ 8 8 $   w P V.n.n.n.n.n.n.n.n.n.n.n.n.n.n.n.n.n.n.n.n.B.n.",
"n.u.W % 2 T H.h.t.n 6 . p ;.OX%X&XrXrXrX&X%X#XoX X-.%.z g g g f @           X r _ n.n.n.M.M.n.n.n.n.n.n.n.n.n.n.n.n.n.n.n.n.n.n.",
"M.b.J % 2 T z.j.F M 6 . p ;.OX%X&XtXtXtXyX&X#X+X|.-.%.v b x g f ;       X 7 t ! 3.n.n.n.M.n.n.M.n.n.n.n.n.n.n.n.n.n.n.n.n.n.n.n.",
"M.b.J % 1 A i.y.F M 3 . p ;.OX*XyXuXuXuXtX&X#X+X|.-.%.v x x x f @       $ u '  .b.n.n.n.M.n.n.n.n.n.n.n.n.n.n.n.n.n.n.n.n.n.n.n.",
"{ ' P 0 3 A y.t.Z n 2 . q =.oX$XrXtXuXtXyX*X#X.X X=.%.c c c c h ;       % W u.M.n.n.n.n.n.n.n.n.n.n.n.n.n.n.n.n.n.n.n.n.n.n.n.n.",
"u t G Z A S F Z n 1 +   p %..XOX%X&X&X&X*X#X+X|.:.&.$.E c c >.g ;       % J u.n.n.n.n.n.n.n.n.n.n.n.n.n.n.n.n.n.n.n.n.n.n.n.n.n.",
"X + n t.y.t.Z n 1       = +. XXXOX#X#X#XOX+X.XK.;.+.@.v c >.>.x ;       % J v.n.n.n.n.n.n.n.n.n.n.n.n.n.n.n.n.n.n.n.n.n.n.n.n.n.",
"  . V l.i.t.N 3 +       < d &.:..XoXOXoXXX|.K.-.%.@.#.#.c x x j i 3 # . : W M.B.B.B.B.B.B.B.B.B.B.B.B.C.B.B.B.B.B.B.B.B.B.B.B.B.",
"  . V f.h.p.N 5 +       O = p O.:..X.X|. X:.=.%.$.E #.>.c g > i N S n # 7 / A.P.I.Y.Y.Y.Y.Y.S.^.A.T.Y.Y.Y.Y.Y.Y.Y.Y.Y.Y.Y.Y.Y.Y.",
"  . D g.x.a.Z 5 #         O O s &. XJ.:.=.&.+.@.v x c >.c >   4 F i.A 2 7 I 7.m.C.C.C.C.C.C.C.Z.C.C.C.C.C.C.C.C.C.C.C.C.Z.A.A.A.",
"  . D g.x.a.N 5 #       o > x #.O.O.o.o.R d s s a > f g f ;   4 F i.y.F D G r j K ^ ^ I ^ ^ ^ ` 2.4.5.5.5.5.5.5.5.5.4.4.8.D.:X,X",
"  . D h.x.a.Z 5 #       ; c 0.,.z = = - - < < < o . o o o     4 F i.j.h.d.V * 7 G I I I I K I 1.0.q.q.q.q.q.q.q.q.q.q.q.;X3XpXsX",
"  . D g.x.a.S n 1       ; c 0.<.g ; ; - o .     o ; ; ; ; o   6 Z y.j.f.d.V . , H ` ] { u.3.m.8.F.-X-X-X-X-X-X-X-X-X:X>X3XiXsXsX",
"  . D g.c.j.y.N 6       o > x c >.>.c x f ;   ; > b c #.c >   # 3 n V D B 9   $ e H ` v.C.C.G.~.,X<X<X<X<X<X<X<X<X<X2XiXiXiX1X1X",
"  . D g.c.z.i.F 3           . g <.q.0.<.c f   ; b ,.r.9.0.x O   . . . X .         @ G { C.G.F.:X3X1X1X1X2X1X1X1X1XiXaXsXsX1X-X;X",
"w y Y p.a.t.t.M 1   + 6 6 #   > c <.,.c x i 5 i j c >.<.>.g         O - q l ~ k :   t [ 3.e.=X:X3XiXiXiXiXiXiX1XiXiXpXaXpX3X;X=X",
"/ Q P B B 5 4 1 +   4 A Z 4   o > h f > 9 B F N i > > f f o         = s E L.T.7.l O w E <.9.F.:X<XiXiXiXiXiXiXiXiXiXiXiX2X>X=X=X",
"M.b.W , .     O O * M t.t.M + . . + . + 2 S i.F 4   . . + . + . . . p o.;.~.eX(.~ O > l ,.0.q.:X<X1XiXiXiXiXiXiX1X1X<X<X>X-X=X=X",
"M.b.' J y %   > c ,.X.D Z M M N V D D D T a.z.t.0   2 B D D D V V n i a E L.4XL.l   > x >.<.5.@X<XiXiXiXiXiXiX2X<X<X-Xw.q.w.=X=X",
"M.M.v. .Q e X b 9.:X5.k 3 Z t.l.f.k.g.g.k.x.c.d.B . V d.g.g.g.f.l.t.V 9 s *.@X;.s X > x >.X.1.q.>XiXiXiX1XiXiX2X>X-Xq.r.<.9.w.=X",
"M.M.m.M. .u X g 9.:X9.>.U D t.a.f.g.g.g.k.g.g...0 + Y g.H.H.g.f.l.t.M # - o.-.O.p O > x >.>.,.9.:X2X2X2X2X2X2X<X:Xw.0.<.<.9.w.=X",
"b.M.M.M.| u X > c <.q.=Xw.6.N N V D D Y D D D B 1 . D g.x.s.Y A M C 6 . O p R p -   > x >.<.0.q.-X<X>X>X>X>X>X:X-Xw.q.9.9.q.w.w.",
"M.M.M.M.| u X   O > q.iXiX9.; . . . . . . . +     . Y g.k.Y 1 . . .         O O     > z ,.0.q.w.F.;X@X;X=X;X=X=Xw.=Xw.w.w.w.=X=X",
"B.B.B.B. .u X X 7 j 4.:X-X,.o ; l ^ ^ ~ L 9         B ..p.Y y y y e : .   % w y e r L ( 2.e.D.D.D.D.D.D.D.D.D.D.D.F.D.D.D.D.F.w.",
"P.Y.Y.Y.m.L O & J | ` 1.~ f   k 7._._._.Z.~ X       1 0 G P | | | ' u $ $ l [ 3.{ ] 7.m.Z.Z.Q.!.A.A.D.A.A.Q.Q.!.Q.Q.A.Q.Q.!.!.A.",
"N.C.C.C.3.H @ r | u._ & O o $ ( _.qXqXqX].7.% X X o o $ w Q M.V.u.u.W & % ) m.C.C.C.C.C.C.C.C.C.Z.C.A.A.C.A.Z.Z.C.C.Z.A.Z.Z.Z.Z.",
"^ ^ ^ ^ I k 9 k J Q J J W / 2.!.}.qX8X}._.m.W W [ 3.7.2.2.` Q Q _ _ y X @ y I I ^ ^ ^ ^ ^ ^ I ^ ` X.X.I X.I I I I ^ ^ I I 1.I ` ",
"I I I I K U H r 8 8 J | B.^.5X7XwXqX}.`.R.V.u.P._.5X5X5X(.{ w % & & @ . @ 9 K I I I I I I I I I I I I I I I I U I I I I I U I I ",
"} } } } } } } W 7 . t ' B.).9XeXeX8X[.`.E.U.U.W.[.8X7X6X^.( o       X @ e K | } } } } } } } } } 3.u.3.u.3.u.u.u.| u.3.u.u.3.u.3.",
"M.M.M.M.M.n.M.` w   & t _ B.`.'.'.'.'.[.'.W.U.R.).`.Y.m.( k         7 m ! | n.n.M.M.M.n.M.M.M.M.n.n.M.M.n.b.n.n.n.n.n.M.n.n.M.b.",
"M.M.n.M.n.M.M._ w     . 8 _ V.R.U.U.'.9X8X'.U.V.U.V.` w o         X t ' b.n.n.M.M.M.n.n.n.M.n.n.n.n.M.M.n.n.n.n.n.n.M.M.M.M.M.M.",
"n.n.n.n.n.n.n.| J w w w t W ' b.U.'.}.0X0X}.'.E.R.V._ % O % w w w y !  .n.n.M.M.M.n.n.n.n.n.M.n.n.n.n.n.n.n.n.n.n.n.n.n.n.n.n.n.",
"n.n.M.n.M.M.M. .| _ _ ` Q H r [ ^.7XeXqXqXeX9X{.W.V.Q & $ r Q _ / _ { b.n.n.n.n.n.n.n.n.n.n.n.n.n.n.n.n.n.n.n.n.n.n.n.n.n.n.n.n.",
"M.n.n.n.M.M.M.M.M.M.n.n.{ H @ ^ ^.eX0XwXwXqXqX}.W.u.Q 7 7 ! b.M.M.M.n.n.n.M.n.M.n.n.n.n.n.M.n.n.n.n.n.n.n.n.n.n.n.n.n.n.n.n.n.n.",
"n.n.M.n.M.n.M.b.M.M.M.M. .` H ! 7.I.(.].[.[.[./.u.Q W m J ' b.M.n.M.M.n.n.n.n.n.n.n.n.n.n.n.n.n.n.n.n.n.n.n.n.n.n.n.n.n.n.n.n.n.",
"n.n.M.M.b.n.M.M.n.b.n.n.b. .| / L t ' V.E.E.W.u.J 8 H _ {  .b.n.n.b.M.n.b.n.n.n.n.n.n.n.n.n.n.n.n.n.n.n.n.n.n.n.n.n.n.n.n.n.n.n.",
"n.b.M.M.M.M.M.M.M.M.m.M.M.M.M.' u 7 H | u.u.u._ u & J { u.M.M.n.n.n.b.n.M.n.n.n.n.b.n.n.n.b.n.n.n.n.b.n.n.n.n.n.n.n.n.M.n.n.n.n.",
"N.B.B.B.B.B.M.B.B.B.B.B.B.B.B. .` W W H H H H J W W | b.B.B.B.B.B.B.B.B.B.B.B.B.B.B.B.B.B.B.B.B.B.B.B.B.B.B.B.M.B.B.B.B.V.B.V.C.",
"P.P.P.P.P.P.P.P.P.P.P.P.P.P.P.P.A.N.! w X X O t [ B.P.P.P.P.P.P.Y.P.P.P.P.P.P.P.Y.P.Y.P.Y.P.P.P.P.P.Y.P.Y.Y.Y.A.A.Y.A.Y.S.A.A.S.",
"T.T.T.T.T.T.T.T.T.Y.T.T.T.T.T.P.T.I./ &       r { T.T.T.T.T.T.T.T.T.T.T.T.T.T.T.T.T.Y.T.T.T.T.T.T.T.T.T.T.^.R.T.T.T.^.^.^.^.S.^."
};
