/* XPM */
static char *P_look_L_resized[] = {
/* columns rows colors chars-per-pixel */
"64 64 226 2 ",
"   c #020202",
".  c #0C0405",
"X  c #0B0906",
"o  c #0C0B0B",
"O  c #050A0A",
"+  c #160309",
"@  c #110D0A",
"#  c #170409",
"$  c #16110B",
"%  c #1B150D",
"&  c #1F180E",
"*  c #1F0C12",
"=  c #0A1C1A",
"-  c #081514",
";  c #131313",
":  c #1B1512",
">  c #1C1C1C",
",  c #1D1812",
"<  c #05100F",
"1  c #23060E",
"2  c #2B0A13",
"3  c #360816",
"4  c #390917",
"5  c #3D0B1A",
"6  c #310A16",
"7  c #231C12",
"8  c #271C16",
"9  c #38151D",
"0  c #12221E",
"q  c #2C2216",
"w  c #2C231B",
"e  c #34291B",
"r  c #36281A",
"t  c #3E311F",
"y  c #371922",
"u  c #0E2926",
"i  c #152826",
"p  c #14322E",
"a  c #153A36",
"s  c #232424",
"d  c #2B2B2B",
"f  c #232B2A",
"g  c #3E292A",
"h  c #382A24",
"j  c #393427",
"k  c #293937",
"l  c #333333",
"z  c #3B3B3B",
"x  c #323E3D",
"c  c #372E30",
"v  c #450A1C",
"b  c #42171F",
"n  c #42331E",
"m  c #530C21",
"M  c #5D0E25",
"N  c #461625",
"B  c #571629",
"V  c #4D0F21",
"C  c #620F27",
"Z  c #67122B",
"A  c #74122E",
"S  c #631F33",
"D  c #7A1633",
"F  c #472725",
"G  c #443521",
"H  c #4C3B25",
"J  c #47362A",
"K  c #533B29",
"L  c #463C36",
"P  c #513A31",
"I  c #56292F",
"U  c #692436",
"Y  c #79223C",
"T  c #16423D",
"R  c #32413F",
"E  c #54422B",
"W  c #5A452B",
"Q  c #574329",
"!  c #4B4132",
"~  c #46413A",
"^  c #574136",
"/  c #5D4B33",
"(  c #5A4B38",
")  c #4F402D",
"_  c #614B2F",
"`  c #624D31",
"'  c #6B5434",
"]  c #685439",
"[  c #745C3A",
"{  c #795E3E",
"}  c #715737",
"|  c #7D623E",
" . c #7E2D45",
".. c #5C3641",
"X. c #194843",
"o. c #1C534E",
"O. c #1E5953",
"+. c #274B46",
"@. c #334542",
"#. c #26534E",
"$. c #285C56",
"%. c #22625C",
"&. c #346358",
"*. c #266B64",
"=. c #28746D",
"-. c #347168",
";. c #2A7B73",
":. c #444444",
">. c #4C4C4C",
",. c #5F4F49",
"<. c #544A43",
"1. c #575757",
"2. c #564F4B",
"3. c #6A5A43",
"4. c #705E46",
"5. c #685455",
"6. c #786447",
"7. c #6B6658",
"8. c #6C6B6B",
"9. c #636362",
"0. c #7E756B",
"q. c #78726A",
"w. c #7D7D7D",
"e. c #747473",
"r. c #647F69",
"t. c #5D625F",
"y. c #89193A",
"u. c #98183E",
"i. c #84653D",
"p. c #AE1C47",
"a. c #852843",
"s. c #982749",
"d. c #9B3150",
"f. c #AD2E54",
"g. c #B8395F",
"h. c #B7325A",
"j. c #B0264F",
"k. c #BC3A61",
"l. c #9D1C42",
"z. c #C32E5A",
"x. c #CB3C67",
"c. c #D63E6B",
"v. c #856942",
"b. c #8D6F46",
"n. c #8B6F49",
"m. c #836946",
"M. c #8E7046",
"N. c #8C714A",
"B. c #94764C",
"V. c #9A7748",
"C. c #8C7250",
"Z. c #87765F",
"A. c #8B7557",
"S. c #977B53",
"D. c #A47E4C",
"F. c #827D77",
"G. c #877964",
"H. c #D7436F",
"J. c #2D847B",
"K. c #31877E",
"L. c #728168",
"P. c #9F8256",
"I. c #9B805B",
"U. c #A8824F",
"Y. c #A18457",
"T. c #A5895C",
"R. c #AA8656",
"E. c #B38D5A",
"W. c #B7915D",
"Q. c #94876F",
"!. c #A88C64",
"~. c #B18F61",
"^. c #AD936C",
"/. c #BE9865",
"(. c #B89668",
"). c #AD9777",
"_. c #C39D69",
"`. c #CAA36F",
"'. c #CAA675",
"]. c #D5AE79",
"[. c #D1AA75",
"{. c #DAB37E",
"}. c #338D84",
"|. c #36958B",
" X c #3B9E93",
".X c #2E8D83",
"XX c #3DA297",
"oX c #42A99E",
"OX c #46AEA3",
"+X c #4AB4A9",
"@X c #54BCB1",
"#X c #54B9AE",
"$X c #539B88",
"%X c #59C6BA",
"&X c #69C9BF",
"*X c #68CDC2",
"=X c #79D3C9",
"-X c #70CEC4",
";X c #828282",
":X c #8C8C8C",
">X c #939393",
",X c #9C9A9A",
"<X c #969088",
"1X c #A7A7A7",
"2X c #BCBCBC",
"3X c #B4B4B4",
"4X c #BCB6AF",
"5X c #B2AE94",
"6X c #CFAF81",
"7X c #DAB583",
"8X c #E2BB86",
"9X c #ECC48E",
"0X c #E7C08A",
"qX c #F2CB96",
"wX c #FAD29B",
"eX c #F7D099",
"rX c #ECC893",
"tX c #85D7CE",
"yX c #99DDD6",
"uX c #8CD8D1",
"iX c #A5E1DB",
"pX c #C1C1C1",
"aX c gray81",
"sX c gray84",
"dX c #E6E6E6",
"fX c #E6E1D9",
/* pixels */
"g g g g F g g g g g F F g g g g F g g g g g F F c F c F F g g F c g F F g g g 8 @       X 7 g g g g g g F F g g g g F g g g g g ",
"P P P P P P P P P P P P P P P P P I P P P P P K P P P P P P P P P P P P P P P h & . . X : 8 J P P P P P P P ! P P P P P P P P P ",
"{ { 6.{ { { i.4.4.i.4.{ { { 6.4.4.i.i.4.4.{ { 4.{ { 6.4.{ { { { 4.i.4.{ } / J G G H G G G G G K ' { { 4.{ { { 4.6.{ 4.i.{ { 4.{ ",
"M.M.M.M.b.b.b.M.M.M.M.M.M.M.M.M.b.b.b.M.M.M.M.M.M.M.M.M.M.b.b.B.M.M.M.M.{ H 7 r _ i.i.i.} G 7 G ' M.M.M.M.M.M.M.M.M.M.M.M.M.M.M.",
"M.M.M.M.M.M.M.M.b.b.b.b.M.M.M.M.M.M.b.b.M.M.M.M.M.M.b.M.b.b.b.b.M.b.i.[ ` G 7 H v.W.E.E.S.] j J / [ i.v.M.M.b.b.M.M.M.M.M.M.M.M.",
"b.M.b.b.b.b.b.b.b.M.b.M.M.M.b.b.b.M.M.n.b.b.M.b.M.M.b.b.M.b.b.M.b.v.' H G H Q m.W.].].].`.^.A.6.W n / | b.M.M.M.b.b.b.b.M.M.M.M.",
"b.b.b.M.b.b.b.b.M.b.b.b.b.b.b.M.n.M.b.b.b.b.b.b.M.M.b.M.b.b.b.b.b.v.Q 7 7 Q b.W.{.wXwXeXeXeXqX!.^ @ G [ M.b.b.M.M.b.b.M.b.M.M.M.",
"b.M.b.b.M.b.b.M.b.b.b.M.b.M.b.b.b.M.b.b.b.M.b.b.M.M.b.b.v.[ ` ` _ W r @ & Q V.W.[.8X9XwXeXrX8XE.] e G W _ ` ` ' i.b.b.b.b.b.b.b.",
"b.b.b.b.b.b.b.b.M.M.b.b.b.b.b.b.b.b.b.b.b.b.b.M.M.M.M.M.| Q e q q q $ X 7 W V.U.W._.{.qXqX{._.U.i.' H t q q q H } b.b.b.b.b.b.b.",
"b.b.b.b.b.b.b.b.b.b.b.b.b.b.b.b.b.b.b.b.b.b.b.v.M.M.v.i.' t           X w ` V.U.U.U.`.0X9X`.R.U.U.V._ q .     q / n.b.b.b.b.b.b.",
"b.b.b.b.b.b.n.b.b.b.b.b.b.b.b.b.b.b.b.b.n.b.b.b.M.v.} W t 7       X e ( 6.!.`.(.E.D.W.`.].'.'.'.[._.B./ t %   q _ b.b.b.b.b.b.b.",
"B.B.B.B.B.B.B.V.B.B.B.B.B.B.B.B.B.B.B.S.B.B.B.B.B.n./ e $ X       o ( ^.7X7X9X].W.D.U.E./.].9XrX9X0X/.V.' r . q ` B.B.B.B.B.B.B.",
"P.Y.Y.Y.T.Y.Y.Y.Y.Y.Y.Y.D.Y.Y.Y.D.!.S.D.Y.Y.Y.Y.P.I./ % . @ % & % q 3.^.6X6X6X(.S.i.V.R._.{.wXeX8X'.^.B.' H & t ] m.S.S.D.Y.Y.Y.",
"C.C.C.C.C.C.C.C.C.C.C.A.C.C.C.C.C.A.A.C.C.C.C.C.C.m.) % + r Q Q W W ` } 4.4.4.] W K m.(.{.rXwX6XI.4./ ) H E W Q J J ` 6.A.C.C.C.",
"^ P P ^ ^ P ^ ^ P ^ ^ ^ ^ ^ P ^ P ` ^ P ^ ^ P ^ ^ P w @ & Q i.i.V.i._ q @ $ o X X % 6.].wXwXwX_.( o X X 7 W i.' w X 8 J ^ P P ^ ",
"5.,.,.5.,.,.,.,.,.5.,.,.,.,.,.,.,.,.<.L L J e h h h , X % n [ } ' ' K I 5 1 X     X L A.(.^.).6.h O s ~ 2.] } H , X 8 J P P P P ",
"q.0.F.q.G.e.G.e.G.q.q.G.e.G.e.F.G.q.9.,.L g w 8 7 7 $   X & q r e r U a. .N .     O 7 J ! ^ ! h % o >.:X,X9.h & @ . e _ { { { { ",
"w.Q.w.w.w.w.;Xw.;X;X;X:X;X;X;X;X;Xe.9.>.c >     O O O       . . . * U k.h.S .   . . . . . . . . . : 8.pXpX8.> o     t [ M.M.M.M.",
"w.;XF.9.8.e.w.:X>X,X,X,X,X,X,X:Xe.9.1.:.l >   - p T u X . 2 v B B U d.x.g.S + * N S S S S S S S B B 5.F.;Xe.1.z > X t [ b.M.b.b.",
"$XF.9.5.1.8.w.:X1X3X3X3X3X3X3X>X8.>.:.:.l >   u T J.T - # m y.l.f.x.x.H.g.S . y  .g.g.g.g.g.h.f.l.u.S F :.8.>X8.l . t } b.b.b.b.",
";Xw.8.1.5.e.:X,X3XpXpXpXpXpXpX,X8.>.>.~ l 8   p J.K.&.T * B y.s.f.g.g.g.d.N o N s.c.x.k.g.g.g.f.s.y.M 3 y 9.>X8.l   e / [ v.b.M.",
";X;Xw.w.;X:X1X1X3XpXpXpXpXpXpX1X$Xt.1.:.l i   z L.,XL.R f y V m B U S S B 6   5 y.z.s.Y S S S S m m M C S ..2.z >   $ e H ' v.b.",
"w.;X:X,X1X1X2X2X2XpXpXpXpXpXpX1X<XF.9.>.l >   ! ).rX).-.X.u o . . . o . +     4 D p.A 2 . . . . . + V y.y.m # O       . 7 K v.M.",
";X;X,X3XpXpXpXpXpXpXpXpX2XpXpX3X>XF.8.,.~ w . j 6.!.7.@.p =         ; > s > > y B A B 8 > s s > o . 3 C Z 4 . + 1 4 5 V F K / _ ",
";X;X1XsXfXaXpXpXpXpXpXpX2XpXpX1X>X;XZ.6.` e X , h ! j 0 - O         s >.2.:.z c y 4 y c z >.1.z >   # 6 6 #   1 M D y.d.a.I r q ",
";X>X2XdXdXsXpX2X2X2X2X2X2X2X2X1X>XF.G.C.[ G o         . . . .     o l 9.8.t.>.l ; O s z 1.9.e.1.d O           3 D p.z.c.g.U .   ",
"2X2X2XpXpX3X1X1X1X1X1X1X1X1X1X,XF.G.Z.n.6._ G 8 $ . 2 B S B m 3 #   > z :.l d > o   ; s l z :.:.z l > X       2 C y.j.c.g.S .   ",
"dXdXpX1X>X>X:X:X:X:X:X:X:X:X:XF.G.C.C.n.v.i.[ I 7 X N d.h.l.u.C 6   o ; ; ; ; o O   . o o ; > l >.9.z ;       1 v A s.c.g.S .   ",
"dXsX4X<XF.F.F.F.F.F.F.F.F.F.F.G.A.M.b.b.b.b.b.' t 7 S d.h.j.p.y.4   . o o o o o < - - - - - - k >.9.z ;       # 4 B s.x.g.S .   ",
"1X6X<XG.G.S.Z.Z.Z.Z.Z.Z.Z.Z.Z.A.C.M.b.b.b.b.v.i.` H K S U u.p.D 4   ; s d s > i i p a T X.o.o.+.@.l s o       # 4 M s.x.g.S .   ",
"S.B.C.C.B.n.n.n.m.n.n.n.b.n.n.b.b.b.b.b.b.b.b.v.v.| K 7 6 Z p.D 4 O > z :.z l x X.O.%.*.;.J..X*.p O O         # 4 C s.x.g.U .   ",
"B.B.B.B.V.B.B.B.B.B.B.B.B.B.B.B.V.B.B.B.B.B.B.B.B.n.E % # v A M y ; d z :.R R #.$.=.;..X|. XXXJ.o.u = O       # 5 C y.h.f.Z .   ",
"Y.Y.Y.T.Y.Y.Y.Y.Y.Y.Y.Y.Y.Y.Y.T.Y.Y.Y.R.Y.Y.Y.Y.Y.S./ , . # 3 y g l l z @.@.#.$.=.J.|.OX+X+X+X X}.%.a <       # 4 C y.p.l.m .   ",
"C.C.C.C.C.C.C.C.C.C.C.C.C.C.C.C.C.C.C.C.C.C.C.C.C.m.) $       ; l :.:.z x +.$.*..X XOX@X%X%X%X#XOX.XO.=       1 v C y.u.y.m @ . ",
"P ^ P ^ ^ ^ P ^ ^ ^ ^ ^ P ^ P ^ ^ ^ P ^ ^ ^ ^ ^ ^ P h @       ; d :.z l x #.*.;. XOX@X-X=X=X=X*X#XXX%.= O + 1 5 C D A Z M b 8 8 ",
"P P P P P P P I P P P P P P P P P P P P P P P P P P 8 X       ; d z l z @.$.*.}.OX@X-XuXiXyXiXtX*X+X*.u . 2 v C y.u.Z 4 2 w g F ",
"4.i.4.i.{ { { i.4.i.{ { { { { { { { { { [ { { } ` / r $       ; s l l l x $.;.|.+X%X=XyXiXiXiXuX-X#X-.u . 6 m D l.j.Z 1 $ G } { ",
"M.M.b.b.M.M.b.M.M.M.b.b.M.M.M.M.b.b.M.b.M.M.M.[ W h 7 X       o > l c c x $.=.|.+X%X=XtXyXyXyX=X-X#X-.0 . 6 m D f.z.D 2 % ) v.M.",
"b.b.b.b.M.M.M.M.M.M.b.b.b.M.b.b.M.M.M.M.M.M.M._ e .           ; > l d d z $.=.|.OX%X-X=XtXtXtX=X*X@X-.u + 6 m y.h.x.Y 8 % H v.M.",
"b.b.b.b.b.b.b.b.b.b.b.b.b.b.b.b.b.b.b.b.M.M.M./ q   $ q 8 $   o > f d d k #.*.K.oX@X%X*X=X=X-X*X@X+X*.0 + 5 A D s.d.U F t ` v.M.",
"b.b.M.b.b.b.b.b.b.b.b.b.n.b.b.b.b.b.b.n.M.M.b.` q   r W W q   o > s s d k +.$.;.}.oX@X%X*X*X%X%X+X X%.= 1 m y.y.B N I W ' | v.M.",
"b.b.b.b.b.M.b.M.b.b.b.b.b.b.b.b.n.M.b.b.M.b.b.` q X n [ i.n X X ; > s d l T o.*.;.|.OX+X%X@X%X+X XJ.o.= 1 M u.A 5 @ G [ M.M.M.M.",
"b.M.M.b.M.b.b.b.b.b.b.b.M.b.b.b.M.b.b.b.b.b.b.` q . 7 H n q .   o ; > s d k T o.*.;..X XOXOX+X|.=.o.u < . 4 M B F G _ | M.b.M.b.",
"b.M.M.M.b.b.b.M.b.b.b.b.b.b.b.B.M.b.b.M.b.b.b.` q   X $ % X       . ; > s s f k o.*.=..X.X|. X;.T - <   . + 1 r Q [ | v.b.b.b.M.",
"b.b.b.b.b.b.b.b.b.b.b.b.b.b.b.b.b.b.b.b.b.b.b.` q             . # 1 * > > > > i a X.o.%.%.=.;.o.u         $ % t ' b.M.M.b.M.M.M.",
"b.b.b.b.n.b.n.b.b.b.b.b.b.b.b.b.b.b.b.b.b.b.b._ q             1 v C 5 * o o o - 0 u u p a a T p -       X q H / [ b.M.v.b.v.b.b.",
"b.b.b.b.b.b.b.b.b.b.b.b.b.v.b.b.b.b.b.b.b.b.b._ q             3 A l.M 1       O   O O O O O O           $ H | v.v.M.b.b.b.b.b.b.",
"B.M.B.B.B.B.B.B.B.B.B.B.B.B.B.B.B.B.B.B.B.B.B.` q   $ q 8 @   1 m A v # O     # 6 N N N 9 5 4 1 .       % E M.B.B.B.B.B.B.B.B.B.",
"D.D.Y.Y.D.!.D.D.Y.Y.D.!.D.D.Y.Y.T.Y.Y.Y.Y.Y.Y.[ e X q Q W q . + 1 4 # .       6 S d.d.d.d.y.y.m 1       , / S.Y.Y.Y.P.Y.Y.Y.Y.Y.",
"A.A.C.A.C.A.A.A.A.A.A.A.A.A.C.A.C.C.C.C.C.C.C.` w X H v.b.H @ X @ @ .     O ; I d.H.H.H.x.j.p.A 4       , P m.C.C.C.C.C.C.C.C.C.",
"^ ^ P P ` P P P P P ` P ^ ^ P P ^ ^ ^ P P ^ ^ g : X W Y.W.v.K E ] 3.j $ ; z 8.5. . . . .Y D C v 1   @ 7 e J P P ^ ^ ^ ^ ^ ^ ^ ^ ",
"P P P P P P P I P P P P P P P P P P P P P P P h ; X 3.'.7X~.i.S.^.'.6.w d e.pX,X,.8 2 2 2 2 1 # .   : h F P P P P P P P P P P P ",
"i.4.i.4.{ { i.4.i.4.{ i.4.4.i.{ { { { { { { { E 7 @ 4.6X9X`.U./.8XqXI.J z F.pX:X:.O o > i @   . X % G ` 4.{ { { { { { { { { { { ",
"M.M.M.M.b.b.M.M.v.b.b.M.V.M.b.b.M.M.M.M.b.M.M._ q @ 4.6XqX`.U./.8XeX(.6./ 7.8.2.s O c 1.1.d o $ r E ' v.M.M.M.M.M.M.M.M.b.b.M.b.",
"M.M.b.b.b.b.b.b.b.b.M.b.b.b.b.b.b.M.b.b.b.b.M._ q @ 4.6X9X`.U./.8XwX].R.| H ; o   o >.>X>X>.< q W v.v.b.M.M.b.M.M.M.M.M.b.b.b.b.",
"M.M.b.M.b.b.b.b.b.b.b.b.M.b.M.b.b.M.b.M.b.b.M._ q X ! A.(.(._.`.].7X[.`.E.6.( H h h 2.e.q.<.e H } M.M.M.M.M.b.b.b.b.b.M.b.M.b.b.",
"b.b.b.b.M.b.b.M.b.b.b.b.b.b.b.b.b.M.b.M.b.b.b./ e   q j 3.!.7X].`._.'.{.{.'.^.I.v.' ( ~ ~ ! / } i.b.b.b.b.b.b.b.b.b.b.b.b.b.b.b.",
"b.b.b.b.b.b.b.b.b.b.b.b.b.b.b.b.b.M.b.b.b.M.M._ e       w A.7X{./.R.`.0XwXwXwX7X/.i.W 7 7 Q v.M.n.b.b.b.M.b.b.b.M.n.b.b.b.b.b.b.",
"b.b.b.b.b.b.b.b.b.b.b.b.b.b.b.b.M.M.b.M.b.M.M.[ Q t 7 X : ! A.T.(.`.[.].].].].~.i.Q H G H ' M.M.b.b.b.b.b.b.b.b.M.b.b.b.b.b.b.n.",
"b.b.b.b.b.b.b.v.b.b.b.b.b.b.b.b.M.v.b.M.m.M.b.v.| ' t % O , w 3.(.0X]./.E.E.W.v.H 7 G / [ | v.M.b.b.b.b.b.b.b.b.b.b.b.b.b.b.b.b.",
"b.b.b.b.b.b.b.b.b.b.n.n.b.b.v.b.M.M.v.M.M.M.M.v.v.i./ e $ X   j Z.'.~.B.i.i.i._ t & H | b.b.b.b.b.b.b.b.b.b.b.v.b.b.b.n.b.b.b.b.",
"B.B.B.B.B.B.B.B.B.B.B.B.B.B.B.V.M.B.B.B.B.B.B.B.B.M.| W G 7   q ^ 3./ H G G G H ) E } m.M.B.B.B.B.B.B.M.B.B.B.B.B.B.B.B.B.B.B.B.",
"P.Y.S.Y.Y.Y.S.Y.S.Y.D.P.S.D.D.S.P.P.P.P.P.P.P.P.P.P.S.S.6.j X   X @ X X X . X r ] S.S.P.P.P.P.P.P.P.P.P.P.P.P.P.S.Y.P.P.P.D.S.Y.",
"T.T.T.T.T.T.T.T.T.T.T.!.!.T.!.!.T.T.T.T.T.T.T.T.T.T.T.T.n.H X                 t [ T.T.T.T.T.T.T.T.T.T.T.T.T.T.T.T.T.T.T.T.T.T.T."
};
