/* XPM */
static char *housetileset_copy_51683907975[] = {
/* columns rows colors chars-per-pixel */
"64 64 231 2 ",
"   c #020201",
".  c #0B0305",
"X  c #0C0B0B",
"o  c #070B09",
"O  c #150409",
"+  c #1C040B",
"@  c #120E09",
"#  c #16070A",
"$  c #16110C",
"%  c #19140D",
"&  c #0B1D1B",
"*  c #091614",
"=  c #121212",
"-  c #1C1C1B",
";  c #1E1813",
":  c #0D0F10",
">  c #23060E",
",  c #21190F",
"<  c #2B0611",
"1  c #230911",
"2  c #350815",
"3  c #370B18",
"4  c #241D13",
"5  c #281817",
"6  c #39151D",
"7  c #0D211F",
"8  c #2C2316",
"9  c #2D261C",
"0  c #36291B",
"q  c #3E311E",
"w  c #361C23",
"e  c #0E2826",
"r  c #143935",
"t  c #152D2B",
"y  c #242424",
"u  c #2B2B2B",
"i  c #262827",
"p  c #3E292A",
"a  c #372826",
"s  c #3B3427",
"d  c #243A38",
"f  c #343434",
"g  c #3C3C3C",
"h  c #353838",
"j  c #29352E",
"k  c #450B1C",
"l  c #4C101F",
"z  c #42331F",
"x  c #47251F",
"c  c #590D24",
"v  c #491625",
"b  c #561829",
"n  c #5E1D30",
"m  c #4E0D20",
"M  c #650F28",
"N  c #6C112C",
"B  c #64132A",
"V  c #75122F",
"C  c #6A1A32",
"Z  c #761733",
"A  c #492625",
"S  c #443521",
"D  c #4C3B25",
"F  c #4A3A29",
"G  c #513F26",
"H  c #553A2A",
"J  c #513A31",
"K  c #512D2F",
"L  c #692336",
"P  c #76263C",
"I  c #16413D",
"U  c #2A443C",
"Y  c #55432A",
"T  c #5D492E",
"R  c #59432A",
"E  c #4C443A",
"W  c #574136",
"Q  c #5C4B33",
"!  c #594A38",
"~  c #49412E",
"^  c #654C2E",
"/  c #624E32",
"(  c #614730",
")  c #6B5434",
"_  c #665338",
"`  c #795D3E",
"'  c #745B39",
"]  c #7C623E",
"[  c #7C3248",
"{  c #1C544E",
"}  c #1A4F4A",
"|  c #294C48",
" . c #344544",
".. c #245A55",
"X. c #24544C",
"o. c #22625C",
"O. c #28625D",
"+. c #266963",
"@. c #28736B",
"#. c #297B72",
"$. c #33736A",
"%. c #424242",
"&. c #4B4C4B",
"*. c #5A5A5A",
"=. c #555554",
"-. c #574D46",
";. c #685A45",
":. c #765E42",
">. c #685851",
",. c #7C674A",
"<. c #766957",
"1. c #696868",
"2. c #737373",
"3. c #7B7B79",
"4. c #747168",
"5. c #785D65",
"6. c #8E173A",
"7. c #84663D",
"8. c #961E42",
"9. c #A71A44",
"0. c #B41B48",
"q. c #942C4B",
"w. c #9C3151",
"e. c #882944",
"r. c #AA2D53",
"t. c #A93457",
"y. c #B72D56",
"u. c #C83963",
"i. c #D63E6C",
"p. c #C22A57",
"a. c #856943",
"s. c #8D6F46",
"d. c #836843",
"f. c #926F42",
"g. c #8E7046",
"h. c #8D714B",
"j. c #93754C",
"k. c #977446",
"l. c #816D51",
"z. c #8C7250",
"x. c #86745C",
"c. c #977B55",
"v. c #A37E4D",
"b. c #857765",
"n. c #847E78",
"m. c #927B62",
"M. c #D8436F",
"N. c #E14473",
"B. c #2E837B",
"V. c #36867A",
"C. c #5B866E",
"Z. c #9F8256",
"A. c #9C815D",
"S. c #A18457",
"D. c #A5895C",
"F. c #A88759",
"G. c #B48E5B",
"H. c #B7915E",
"J. c #9C8566",
"K. c #9B8974",
"L. c #A18967",
"P. c #A48B67",
"I. c #B89567",
"U. c #AA9374",
"Y. c #AB9778",
"T. c #B69C76",
"R. c #AB926E",
"E. c #C09965",
"W. c #C9A675",
"Q. c #D3AC78",
"!. c #D9B27D",
"~. c #C8A16D",
"^. c #349389",
"/. c #38988E",
"(. c #3EA398",
"). c #41A79C",
"_. c #45ADA2",
"`. c #4BB4A9",
"'. c #51BDB2",
"]. c #4FBBAF",
"[. c #67A48E",
"{. c #5BC4B9",
"}. c #60C5BB",
"|. c #6ACEC4",
" X c #7AD3CA",
".X c #73CFC5",
"XX c #828282",
"oX c #8C8C8C",
"OX c #9B9B9B",
"+X c #959595",
"@X c #968882",
"#X c #AA9C8A",
"$X c #B7A489",
"%X c #BDAB94",
"&X c #ADB48E",
"*X c #A5A5A5",
"=X c #ABABAB",
"-X c #BDBDBD",
";X c #B6B5B4",
":X c #B0A6A2",
">X c #85A585",
",X c #D8B685",
"<X c #C3B39C",
"1X c #C1AE93",
"2X c #E4BD86",
"3X c #C7BAA6",
"4X c #C1BAB5",
"5X c #E7C28E",
"6X c #F3CB94",
"7X c #FDD59D",
"8X c #EDC792",
"9X c #CEC1AF",
"0X c #D6CBBD",
"qX c #D3C7B6",
"wX c #CAC3BB",
"eX c #C9C193",
"rX c #8BD9D1",
"tX c #99DDD7",
"yX c #ACE3DE",
"uX c #C1C1C1",
"iX c #CCCBCB",
"pX c #D6CDC3",
"aX c #DDD3C6",
"sX c #D8D7D6",
"dX c #E2DCD3",
"fX c #E9E3DC",
"gX c #EBEAE9",
"hX c #F0ECE7",
"jX c #F3F1ED",
"kX c #FDFDFD",
"lX c #F5F4F3",
/* pixels */
"p p p p A p p p p p A p p p p p p p p p p p p p p A p p A p p p p p p p p A p p A p p p p p p p p A p p A p p p p p p p p p p p ",
"J J J J J J J J J J J J J J J J J J J J J J J J J J E J J J J J J W J J J J J E J J J J J J J J J J J J J J J J J W J J J J J J ",
"` ` ,.` :.` ` :.,.` ` ` ` :.Y 8             0 _ ` ` ` ` ` ` ` :.,.' ` ` ` :.` ` ` ` :.:.,.` ` ` ` ` ,.` ` ` ` :.,.` ` ` ' ,.] ` ",
"g.f.s.s.g.s.s.g.s.s.g.g.g.g.Q 8             z ' g.g.g.g.g.g.g.g.s.s.g.g.g.g.g.g.g.g.g.g.s.s.s.g.g.g.g.g.g.g.g.g.s.s.s.g.s.g.g.g.",
"s.g.s.s.s.g.g.s.g.g.g.a.] ) R A 6 6 6 6 6 6 K Q ) ) ^ ] 7.g.g.s.g.g.g.g.g.s.g.g.g.g.s.s.s.s.s.s.g.s.h.s.s.s.g.s.g.g.g.g.s.s.s.g.",
"s.s.g.s.s.s.g.g.s.s.g.7.T 0 K P q.q.q.q.q.q.L A 0 9 0 Y ] g.s.s.g.g.g.s.s.g.s.s.g.s.g.s.s.g.s.g.s.g.s.s.s.s.s.s.g.g.s.s.s.s.s.s.",
"s.s.s.s.s.g.g.g.s.s.a.' z @ v t.N.N.N.M.N.M.P <       0 ) a.a.a.a.s.s.s.s.s.s.s.s.s.s.g.g.g.s.s.s.s.s.s.s.s.s.s.s.g.g.s.g.s.s.s.",
"g.s.g.s.g.s.g.g.s.` ^ H K n e.r.u.y.r.r.t.w.Z 3 < k m b D D Y G ^ ,.s.s.g.s.s.g.s.s.g.g.g.g.s.s.s.g.s.g.s.g.s.g.g.g.s.s.s.s.s.g.",
"s.s.s.s.g.g.g.g.s./ 0 6 L t.y.p.0.8.Z Z C C M l c V 6.B 6 % % $ z ) g.g.s.s.g.s.s.s.s.s.s.s.s.s.g.g.s.s.s.s.s.s.s.s.s.s.g.s.s.s.",
"s.s.s.s.s.g.a.s.s.T 4 + P u.u.p.0.V c k k k k k c V 9.M 2 + + > x H ' 7.a.s.s.s.s.s.s.s.s.s.s.s.s.a.s.s.s.s.s.s.a.s.s.s.s.s.a.s.",
"a.g.s.s.s.s.g.g.s.T , + N y.p.0.9.N 2 > > > > > 2 c V M k 3 c M b A S / d.s.s.s.s.s.s.s.s.s.s.g.s.s.s.s.s.s.s.s.g.g.s.s.s.s.s.s.",
"j.j.j.j.j.j.j.j.j.T 4 # M 9.0.0.9.c O           + 2 c c c M 6.9.V < @ D a.j.j.j.j.j.j.j.j.j.j.j.j.j.j.j.j.j.j.j.j.j.j.j.j.j.j.j.",
"S.S.S.S.S.S.S.S.S.) 4 . 3 M N N M 3 O           . > 2 2 2 k c N k > @ 0 T / / _ _ / ' h.S.S.S.A.S.S.S.S.F.c.D.F.S.S.S.S.S.S.S.S.",
"z.z.z.z.z.z.z.z.z.Q 4 . # < < < > O               O O O O + + < + .   X ; ; ; 4 ; ; s _ z.z.z.z.z.z.z.z.z.c.z.z.z.z.z.z.z.z.z.z.",
"W W J W W W W J W a %   . + O .   X = X .   o * & 7 & 7 & 7 & & o         . O + . . @ 9 F J J J ! J J W J J ! J J ! W W W W J W ",
"J J J J J J J J J 0 # . 2 c k > . y  .f -   & } ....$.$.$.+.o.{ r *       # k c 3 . . $ 5 a F J J J J J J J J J J J J J J J J J ",
":.:.` ` ` ` ` ` :.D ; O c 6.V 2 o g 1.*.u o r #./.).'.].'.`.(.^.o.e     o < V 8.c +     o 0 Q ] :.:.` ` ` ` ` ` ` ` ` ` ` ` ` ` ",
"g.f.g.g.` ) T ( Q J b b N Z n v f g &.&.d r +.^.`.'. X.X|.}.].).#.{ t * o 3 8.0.N + : i U E T ) 7.s.s.s.g.g.s.g.g.s.g.g.g.g.g.g.",
"g.s.s.g./ 0 4 4 5 K e.q.C 3 A &.=. .u d X.@.^._.'.rXtXrXrX|.}.'.(.B.o.r o 3 q.u.P + y *.@X*.s q ( f.s.s.s.g.s.s.s.g.s.g.g.g.g.g.",
"g.s.d.` Y 9 $ X o b t.u.L # i =.2.g : e o.^._.'.|.rXyXtXrX X|.{.`.(.#.} o v w.i.P 1 i 2.:X1.a 4 H ` d.s.s.s.g.s.s.s.s.s.s.s.s.s.",
"s.] / S ! *.&.u o v t.u.C O - &.*.f X e { ^.(.'.|.rXyXtXrX X|.{.`./.#.I o w w.i.P 1 - g *.-.Q D D S T ] s.s.s.g.s.g.s.g.s.s.s.s.",
"s.' q @ &.oXoX&.o v t.u.L O - h &.i o 7 { #.(.].|.rXyXtXrX X|.{._.^.+.I o w w.i.P 1 o X = F ] ' z @ q ' s.s.s.s.s.s.s.g.g.s.g.s.",
"/ Q -.&.XX;X=X*.. b t.u.e.3 w p f - o & } #.^._.'. XrXrX X X}.]./.^.o.r o 3 P w.[ -.f - . Y j.Z.) 8 z R ) ] s.g.s.g.g.g.s.g.s.s.",
"9 E 3.=XiXsX-X1.X v t.i.r.8.c w = X   * I +.#./.`.{. X|.|.}.].).^.@.o.e o : 3 K 5.OXXXg   _ I.W.c.' R q q T a.s.s.s.s.s.s.s.s.s.",
"o U OXhXlXkXiX1.o b t.i.p.9.Z 3 . o   * r ..@.^./._.{.{.{.].).^.#.o.} e .     = 2.iX;X*.@ :.Q.8X~.v.^ 4 $ D d.g.s.g.s.s.s.s.s.g.",
"z W 1.oX=XiX;X1.o k q.y.8.N v w - =   * t | ..#.#./.(.(.(.(.^.#.+.} r 7 .     X  .2.2.;.H c.2X8X~.Z.^ 4 $ D d.g.s.s.g.s.g.s.h.s.",
"` _ F i 5.*X*X=.. k 8.9.N < 5 f g y X : y h | ..+.#.^.#.B.B.@.o.} r y *         = 5 s ) s.I.5X8X~.v.^ 4 $ D d.s.s.s.s.s.s.s.s.s.",
") _ %.J >.[.2.E o < M V 3 . - g &.u X : y g  .| ..O.+.+.+.O...X.d i - =         @ 4 D 7.H.W.2X!.~.H.` 8 $ D d.s.g.s.g.s.s.s.s.s.",
"0 E 2.*X3.*.h -   O 2 2 +   y &.1.h : = u %. . . .|  .| |  .U d d i - :       . 8 R a.I.!.Q.~.~.Q.!.k.q $ D a.g.g.s.g.g.s.s.s.s.",
"  g OXlX+Xf                 u *.2.%.: = f &.%.g h f f f u f u u y y - = o     X G 7.H.!.7X!.H.H.!.6XA.s % D a.g.s.s.s.g.h.s.h.h.",
"q E 4.+X4.! q z S 4 @ . < k v J %.i X X - u f g g g h f f u u i - - ; 6 K n C n H ( ] G.!.Q.~.I.P.A.,.E J *.x.x.x.x.x.x.J.#X%X%X",
"' _ E f W ' 7.7.d.H , O l 6.N w = :   . X : u g %.g f f u u y y - : = C t.u.t.t.L 6 S ] H.~.2XW.,.u E *.1.4.n.n.n.n.n.n.OX4XfXfX",
"Z.,.s   D g.G.I.G.] z 8 b 6.M <       . # 1 5 f f f u i i y w p < : # n t.t.u.t.n # 4 Y 7.Z.T.R.;.u &.2.oXoXoXoXoXoX+X+X=XiXgXgX",
"z.:.0   T P.!.,X!.G.7.R A l 2 @       + k N v 5 - - - = = 5 v Z v > . 3 b n n b 3 . @ 8 S Y _ >.<.2.XXOX*X*X*X*X*X=X;XiXuXuX;X;X",
"J S ;   _ W.7X7X7X!.H.7.G O           < V 9.M >           + B 9.V 2           o           .   u 2.;X-XuX-XuXuX-XuXiXsXlXsX=X[.3.",
"J p %   ;.,X7X7X7X2XQ.I.h._ -._ ! F z x B N k O           O 3 N m +                 . = - - u &.XX-XuXuXuXuXuXuXuXuXsXsXuX*X3.XX",
"` T 8   ;.W.7X7X7X7X8X2X!.W.W.T.T.Z.d.( x < + .           . @ > + .   .             X - f %.*.2.OXuXuXuXuXuXuXuXuX-X-X-X=X+X3.XX",
"g.' S $ _ R.,X8X6X6X8X6X6X7X6X5X!.I.k.) z % $ $ $ $ $ X     o o * * * % $ % 4 4 $ o : i %.*.1.XX*X-X-XuX-XuXuX-X;X;X*XOXoXoXXXXX",
"s.] _ D / :.h.F.~.~.W.Q.5X7X,XJ.:./ D D R R R R R R R 0 $ o 7 t r I | U Y ) ,.,.J $ : u %.&.*.2.+X-XuXuXuXuX-X;X=X+XXX2.2.3.XX3.",
"s.s.a.d.R 4 9 ) F.v.F.G.!.6XT.Q @ @ @ 8 ^ v.7.v.7.v.7.R , o e I o.B.V.C.h.P.Q.,X,.5 : i %.%.%.*.oXuXuXuXuXuXuX=X+XXX1.&.*.1.XXXX",
"s.s.s.s.) S 0 Y ) ) ) 7.G.!.G.) 0 0 0 Y g.E.E.E.E.E.E.s.Y 9 j I { @.V.C.C.I.,X6Xx.4 * i  .&.=.1.XX=X-XiXsXsXsX;X+X3.1.*.1.2.XXXX",
"g.s.s.s.] ) T S 8 8 8 z ] G.G.7.' ) ' k.I.5X!.5X,X5X5XI.g./ s & r { O.V.C.[.eX6Xl.8 $ i %.=.1.2.XX+X;XsXgXjXgXiXOXXX2.2.2.2.XXXX",
"s.s.s.s.s.s.' S @ @ @ , G 7.7.7.7.7.7.F.W.5X5X5X5X5X5XW.Z.' z . 7 I o.#.^.[.&X!.l.9 - U =.1.XXoXoXoX=XsXgXjXjXiXOXn.n.n.n.n.n.3.",
"s.s.g.s.s.s.d./ z ~ S S z Y R Y R Y ^ ^ ] l.l.l.l.,.<.' T z ,   * I o.#.^.C.C.,._ Y ! n.OX=X-X-XuXuX-X3X3X3X3X$X@Xb.b.b.b.b.b.b.",
"g.g.s.s.s.s.a.a.] ] ] ) q % @ @ @ @ @ @ % ; ; ; ; ; ; $ $ X o   7 I ..#.^.@.U , D ' J.;XgXhXjXjXjXjXwX#Xc.J.c.c.z.z.h.h.z.z.h.z.",
"Y.P.c.s.s.s.s.s.s.s.s.] Y 8 8 8 8 4 8 8 8 ; 8 8 8 4 4 8 4 9 s %.U I } { o.X.U 8 Y ] U.0XkXkXkXkXgXaX1XP.s.s.g.s.s.s.g.s.s.a.a.s.",
"pX3XU.s.s.s.s.s.g.s.g.a.] T T T Y T T T T T Y T Q T T ^ T ;.K.OX3. .7 e r U ~ T ' a.U.0XkXkXkXhXqX$XP.c.s.s.s.g.a.s.s.s.s.s.g.s.",
"lXdX$Xj.j.j.j.j.j.j.j.j.j.j.j.j.j.j.j.j.j.j.j.j.j.k.j.j.c.U.9XkX=X&.$ o . 8 ^ j.j.j.Y.0XkXkXkXfX1Xc.j.j.j.j.j.j.j.j.j.j.j.j.j.j.",
"qX<XT.D.S.S.S.S.S.S.S.S.S.S.S.S.S.S.S.S.S.S.S.S.S.S.S.Y.1XqXdXkXiX+X1.=.J / s.S.S.S.T.aXkXkXkXhX<XD.S.S.F.c.D.F.S.S.L.S.S.S.S.S.",
"L.J.c.z.z.c.z.z.z.z.z.z.z.z.z.z.z.c.z.z.z.z.z.c.z.z.z.$XpXhXlXkXlXdXiX#X,.,.l.c.z.z.Y.pXkXkXkXfX%Xz.z.z.z.c.z.z.z.z.z.z.z.z.z.z.",
"W W W W J W W J J W J ! J J J ! J W W J J W W J ! J J @XsXkXkXkXjXgXwX@X;.J J J W W b.4XkXjXdX;Xn.W W W J J ( J J W J W W W J W ",
"J J J J J J J J J J J J J J J J J J J J J J J J J J J @XsXkXkXkXsX:Xn.5.J J J J J J 5.4XkXiX:Xb.>.J J J J J J J J J J J J J J J ",
":.` ` ` ` ` ` :.:.:.7.:.d.:.7.` ` ` ` ` ` ` ` ` :.7.` #XdXkXkXkXwXJ.:.:.` ` ` ` :.:.J.wXkX4Xm.` ` ` :.` ` ` :.:.` ` ` ` :.:.` ` ",
"s.s.g.g.g.g.c.R.$XU.c.s.h.h.s.s.g.s.s.g.g.g.g.g.c.U.1X0XhXlXfX0X$XL.g.f.g.g.g.j.P.$X<X3X3X$Xc.g.g.f.g.g.g.f.g.f.g.g.g.g.f.k.g.g.",
"s.s.g.g.g.g.L.1XdX3XP.h.f.f.s.s.s.s.s.s.s.s.g.g.L.3XfXhXlXhX3XU.L.j.g.g.s.s.g.j.$XaX0X1XP.J.j.g.g.g.s.s.s.s.s.s.s.s.s.s.s.g.s.g.",
"s.s.s.s.s.s.J.<XfX3XR.z.c.P.P.m.L.P.P.L.L.L.L.P.#X3XfXfXfXaX$Xj.s.g.g.g.g.g.g.c.$XaXqX#Xs.s.s.s.g.g.g.s.s.s.s.g.s.s.s.g.s.s.s.s.",
"s.s.s.s.s.s.c.U.1XU.c.c.$X3X3X3X3X9X9X3X9X9X9X9X3X3X%X%X%X$XP.g.s.s.s.s.s.s.s.z.P.$X$XJ.g.g.s.s.g.s.g.g.g.s.s.s.s.s.s.s.s.s.s.s.",
"g.s.s.s.s.s.h.g.z.k.k.m.3XhXkXkXkXkXkXkXkXkXlXkXdX%Xj.z.j.h.h.s.s.s.s.s.g.s.g.g.g.g.h.g.s.g.s.s.s.s.s.g.g.s.s.s.s.g.s.s.s.g.s.g.",
"s.s.s.s.s.s.s.s.f.s.s.c.$XqXpX0X0X0XpX0X0X0X0X0X3XU.s.s.g.g.s.s.s.s.j.L.#XU.c.g.s.s.s.s.g.s.s.s.s.s.g.g.g.g.s.s.s.s.s.s.s.s.s.s.",
"s.s.s.s.s.s.s.s.s.s.s.z.c.U.U.U.U.U.U.U.U.U.U.U.P.c.s.s.s.s.s.s.s.s.c.$XpX3XU.g.s.s.s.s.s.s.s.s.s.s.s.a.s.s.s.s.s.s.s.s.s.s.s.s.",
"s.s.s.s.s.s.s.s.a.s.s.s.s.s.s.s.s.s.s.s.s.s.s.s.g.s.s.s.s.s.s.s.s.s.c.3XjXaX$Xf.s.s.s.s.s.s.s.s.a.g.s.s.s.s.a.s.s.s.g.g.s.s.s.s.",
"h.j.j.j.j.k.k.h.j.j.j.j.j.j.j.f.j.j.g.j.j.j.g.j.j.j.j.j.j.j.k.h.j.k.L.3XjXaX$Xj.j.j.j.h.j.j.k.k.j.j.j.j.j.j.j.j.j.j.j.j.j.j.j.f.",
"Z.Z.Z.Z.Z.Z.Z.S.S.A.S.v.S.S.c.S.Z.Z.Z.Z.Z.Z.Z.Z.Z.Z.Z.Z.Z.Z.Z.Z.Z.Z.Z.Z.S.S.v.c.Z.Z.Z.Z.Z.Z.S.c.S.A.v.A.S.S.S.c.v.S.c.S.S.S.c.S.",
"D.D.D.D.D.D.D.D.D.D.D.D.D.D.F.P.D.D.D.D.D.D.D.D.D.D.D.D.D.D.D.D.D.D.D.D.D.D.D.F.D.D.D.D.D.D.D.D.D.D.D.D.D.D.D.D.D.D.D.D.D.D.D.D."
};
