/* XPM */
static char *housetileset_copy_71683908413[] = {
/* columns rows colors chars-per-pixel */
"64 64 233 2 ",
"   c #020101",
".  c #0B0305",
"X  c #0C0906",
"o  c #0C0C0B",
"O  c #090A0A",
"+  c #140409",
"@  c #1B040B",
"#  c #130F0A",
"$  c #140408",
"%  c #15110B",
"&  c #19140D",
"*  c #1F180F",
"=  c #0A1917",
"-  c #141414",
";  c #1E1912",
":  c #1B1B1B",
">  c #1C1511",
",  c #0C100F",
"<  c #23050E",
"1  c #2B0611",
"2  c #290913",
"3  c #380917",
"4  c #261D13",
"5  c #281919",
"6  c #3B141D",
"7  c #20160F",
"8  c #0D211F",
"9  c #19201F",
"0  c #2C2317",
"q  c #32251B",
"w  c #35291A",
"e  c #392C1B",
"r  c #3E301E",
"t  c #391A22",
"y  c #2A1E21",
"u  c #0D2926",
"i  c #14322E",
"p  c #153935",
"a  c #102F2C",
"s  c #232323",
"d  c #2C2C2C",
"f  c #292B24",
"g  c #3E292A",
"h  c #372A26",
"j  c #233937",
"k  c #343434",
"l  c #3B3B3B",
"z  c #3A3734",
"x  c #30352C",
"c  c #460B1C",
"v  c #43101F",
"b  c #42301F",
"n  c #580E24",
"m  c #481824",
"M  c #57182A",
"N  c #5E1D30",
"B  c #4F0C20",
"V  c #620F27",
"C  c #6C112C",
"Z  c #64162B",
"A  c #73112E",
"S  c #631E33",
"D  c #751833",
"F  c #4B3B25",
"G  c #473727",
"H  c #543C28",
"J  c #513A30",
"K  c #5A313D",
"L  c #4E2C2D",
"P  c #652334",
"I  c #71243B",
"U  c #18423E",
"Y  c #2C413F",
"T  c #55432A",
"R  c #5B462C",
"E  c #5E4A2E",
"W  c #564227",
"Q  c #46433A",
"!  c #574136",
"~  c #594339",
"^  c #5C4C38",
"/  c #4E452F",
"(  c #624D32",
")  c #6B5334",
"_  c #675438",
"`  c #745B3A",
"'  c #795D3E",
"]  c #725836",
"[  c #614A2C",
"{  c #7C623D",
"}  c #793145",
"|  c #4B3E42",
" . c #194B46",
".. c #1E5A54",
"X. c #1A514B",
"o. c #284A46",
"O. c #344946",
"+. c #235C56",
"@. c #29504C",
"#. c #25625B",
"$. c #266A63",
"%. c #29746C",
"&. c #2A7B73",
"*. c #306F68",
"=. c #444444",
"-. c #4C4A49",
";. c #585757",
":. c #574F46",
">. c #6A5A46",
",. c #675D54",
"<. c #796447",
"1. c #706758",
"2. c #686867",
"3. c #787878",
"4. c #78716B",
"5. c #891637",
"6. c #94183C",
"7. c #83653E",
"8. c #9F1A42",
"9. c #AE1B46",
"0. c #942B4B",
"q. c #8D2D48",
"w. c #A92D52",
"e. c #B6365C",
"r. c #B22A52",
"t. c #BC3A61",
"y. c #C82F5D",
"u. c #C23B63",
"i. c #D53B69",
"p. c #826640",
"a. c #856A43",
"s. c #8D6F46",
"d. c #836B4B",
"f. c #926F42",
"g. c #8E7046",
"h. c #8C714B",
"j. c #93754C",
"k. c #977446",
"l. c #816D51",
"z. c #8C7250",
"x. c #8A7557",
"c. c #987C55",
"v. c #877864",
"b. c #847D78",
"n. c #8D7669",
"m. c #A17F51",
"M. c #DE4472",
"N. c #E04473",
"B. c #2C847B",
"V. c #35877B",
"C. c #4E8873",
"Z. c #7E8560",
"A. c #9F8256",
"S. c #9C815D",
"D. c #A18457",
"F. c #A5895C",
"G. c #AB8757",
"H. c #B38E5D",
"J. c #9A8465",
"K. c #87827A",
"L. c #968678",
"P. c #A18967",
"I. c #A58D6C",
"U. c #A28864",
"Y. c #BB9766",
"T. c #AB9475",
"R. c #AA9578",
"E. c #A99375",
"W. c #B1A578",
"Q. c #C09A67",
"!. c #C8A576",
"~. c #D2AC78",
"^. c #D9B27D",
"/. c #C8A16D",
"(. c #35968C",
"). c #3A9D92",
"_. c #308B81",
"`. c #3CA398",
"'. c #42A59B",
"]. c #4AB4A9",
"[. c #4CB6AB",
"{. c #78A88E",
"}. c #56C3B8",
"|. c #63C5BB",
" X c #69CDC3",
".X c #76D2C8",
"XX c #828282",
"oX c #8C8C8C",
"OX c #898783",
"+X c #949493",
"@X c #9C9C9C",
"#X c #998B85",
"$X c #AE9C83",
"%X c #B7A489",
"&X c #BDAC95",
"*X c #B3AA93",
"=X c #A4A4A4",
"-X c #ACACAC",
";X c #BDBDBD",
":X c #B4B4B3",
">X c #B3A9A5",
",X c #96AC88",
"<X c #DBB684",
"1X c #C2B29C",
"2X c #C0AF96",
"3X c #E3BD87",
"4X c #C9BBA7",
"5X c #C3BCB2",
"6X c #E7C28E",
"7X c #F3CB94",
"8X c #FDD59E",
"9X c #E9C692",
"0X c #CEC1AE",
"qX c #CAC2B8",
"wX c #D7CCBE",
"eX c #D1C5B5",
"rX c #DAC897",
"tX c #95DCD5",
"yX c #87D7CF",
"uX c #A8E2DC",
"iX c #C0C0C0",
"pX c #CCCAC9",
"aX c #D5CEC5",
"sX c #D8D7D7",
"dX c #DBD2C6",
"fX c #E1D9CE",
"gX c #E4DDD2",
"hX c #E9E3DC",
"jX c #E9E9E8",
"kX c #F1EEE9",
"lX c #F3F0EC",
"zX c #FDFDFC",
"xX c #F5F4F2",
/* pixels */
"g g g g L h g g g g L h g g g g L g g g g g b g g L h g L g g g g g g g g L h g L h g g g g L h g g g g b m g g g g L h h L g g ",
"J J J J J J J J J J J J J J J J J J J J J J J J J J J J J J J J J J J J J J J J J J J J J J J J J J J J J J J J J J J J J J J J ",
"' ' <.' ' ' ' <.<.' ' ' ' ' <.' <.` ' ' ' ' ' <.J.5XzX5Xn.p.' <.<.' ' ' ' ' <.' ' ' ` <.<.' ' ' ' ' <.' ' <.' <.<.<.' ' ' <.<.` ",
"g.g.g.f.s.s.s.g.s.s.s.g.g.g.s.s.g.g.g.g.s.s.g.g.E.eXzXwXI.g.s.s.s.s.f.g.g.g.s.s.g.g.g.s.s.g.g.g.g.g.s.s.s.s.s.g.g.g.s.s.s.g.s.s.",
"g.s.g.g.g.g.s.s.s.s.s.s.g.g.g.g.g.g.g.g.g.g.s.s.U.2XfX1XJ.s.s.s.s.g.s.s.g.c.U.T.T.T.T.T.T.T.T.T.T.T.U.c.g.g.k.g.s.g.g.g.s.s.s.s.",
"s.s.g.s.g.g.g.s.s.s.g.s.s.s.s.s.s.g.s.s.s.s.s.s.c.I.%XI.c.g.s.s.s.s.s.h.s.I.&XwXwXwXwXwXwXwXwXwXwXwX%XJ.s.g.s.s.s.s.s.s.s.s.s.s.",
"g.s.g.g.g.s.g.s.s.s.s.g.s.g.s.s.s.s.s.h.j.j.g.s.s.g.s.g.s.s.s.g.h.j.j.j.j.$XdXzXzXzXxXzXxXzXzXzXzXzXeXE.g.g.z.j.s.s.s.g.g.s.s.g.",
"s.s.s.s.s.s.s.s.s.s.s.g.g.s.g.s.s.g.h.c.R.&XT.c.s.s.s.s.s.s.s.s.U.R.2X&X&X1X4X4X0X0X0X0X0X0X0X0X4XeX%Xc.c.E.%XR.c.s.s.s.s.s.s.s.",
"s.s.s.s.s.s.s.s.s.s.s.s.s.s.s.s.g.g.s.I.4XhX1XJ.s.s.s.g.g.g.g.g.R.eXhXjXhXwX%XJ.P.P.P.J.J.P.P.P.J.I.c.j.J.2XgX0XT.s.s.s.s.s.s.s.",
"s.s.s.s.s.s.s.s.g.s.s.s.s.s.s.s.j.c.J.%XeXgX&XS.s.s.s.s.s.j.S.P.4XgXzXkXhX0XE.g.g.g.g.g.s.s.g.s.s.s.g.s.c.&XfX4XE.s.s.s.s.s.s.s.",
"s.s.s.s.s.s.g.s.s.s.s.s.s.s.s.s.j.R.4X4X1X%XI.c.s.s.g.g.s.c.%X0XfXlXlXdX1XR.J.s.s.g.g.s.s.s.s.s.s.s.s.s.c.I.%XR.c.g.s.s.s.s.s.s.",
"j.j.j.j.j.j.j.j.j.j.j.j.j.j.j.j.D.4XkXfX%Xj.c.j.j.j.j.j.j.P.0XxXzXzXkX4XS.j.j.j.j.j.j.j.j.j.j.j.j.j.j.j.j.j.j.j.j.j.j.j.j.j.j.j.",
"D.D.D.D.D.D.D.D.D.D.D.D.m.D.T.%X4XfXxXgX2XA.A.A.A.A.A.T.%X0XgXzXzXzXlX4XI.G.A.A.A.D.A.A.D.D.A.D.D.D.D.D.D.D.D.D.D.D.D.D.D.D.D.D.",
"h.z.z.z.z.z.z.z.z.z.z.h.z.z.R.4XhXlXzXfX%Xz.z.x.h.z.h.%XeXjXlXzXzXzXkX4Xc.z.z.z.z.h.z.z.z.z.z.z.z.z.z.z.z.z.z.z.z.z.z.h.z.z.z.z.",
"~ J ! ! J ! ! ! ! ! ! ! ! K b.aXzXzXzXaXK.~ J ~ ! J G 4.:XsXjXzXxXjXaX#X>.~ ! ! ! ! ! ! ! ! ! ! ~ J ! ! ! ! ! ! ! ! K ! >.>.1.,.",
"J J J J J J J J J J J J J J b.5XzXzXzXaXb.J J J G h : J ,.oXiXzXgX:X#X1.K J J J J J J J J J J J J J J J J J J J J J L K >.b.>X>X",
"' ' <.` ' ' ' ' ' ' ' <.' ' #XfXzXzXzXfX$X' ' ' [ e X X X Y +XxXaXL.p.<.' ' ' ' ' ' ' { ' ' ' ' ' ' ' ' { { ' ' ' ' ' ' L.eXxXzX",
"g.s.g.g.s.g.g.s.g.g.g.j.P.R.4XgXzXzXzXfX$Xs.' ( / Y U u 8 j 2.=XOX<.E R E E E E E E E E E E [ [ E E ] p.g.g.g.g.g.s.g.g.U.2XwXwX",
"s.g.g.g.g.s.s.s.h.s.g.c.%XaXhXxXzXzXzXsX%Xa.[ e f U $.X.U U Y O.G d 4 0 4 4 0 4 4 4 4 4 4 4 4 4 4 4 F ` g.g.k.7.s.g.s.g.c.P.R.R.",
"h.h.z.h.h.h.z.c.c.J.c.I.4XkXlXxXxXjXjXwXE.{ T q i $.(.B.$.U u X X X % & * ; ; ; ; * * # % # % % % # r ( { { { 7.a.g.s.s.g.g.g.g.",
"v.n.n.x.v.v.L.$X4X4X4X4X;X;X;X;X;X-X=XXX;.G ^ <.Z.C.(.B.$. .u   & e W _ d.l.l.l.l.l.<.( W W F W H W F F b F F E ' g.s.s.g.s.s.s.",
"3.b.3.{.b.b.+X;XkXxXjXhX;X+XoX+XoX3.;.J 0 % >.!.2X{.(.B.#. .u O w ) c.Y.^.6X6X6X6X6X~.H.k.7.7.k.k.7.[ 0 X X X r ) s.s.s.g.s.s.g.",
"b.3.4.2.3.3.+X;XjXjXjXjX;X@XXX3.2.;.=.x - O >.<XrX,XC.*.%...p = f R 7.H.^.6X6X^.3X3X!.c.] ] ] 7.A.Q.s.H 0 0 0 b T ) ' a.s.s.s.s.",
"XX3.2.;.2.3.oX:XpXsXsXpXiX-X+X4.;.-.O.x - O >.<X9XW.J.C.V.&... .p 0 F <.H.Q.Q.Q.Q.Q.A.( w w w T c.^.Y.a.) ] ) W r w ( p.s.s.g.s.",
"XX3.;.=.2.3.oX=XiXiXiXiXiXiX@X2.O.=.=.d - o >.!.<XY.j.4.C.B.$...p = # F 7.7.k.k.7.m.] b X X o G D.8X^.Q.G.G.G.` r ; G ' a.s.g.g.",
"XX3.3.2.XX+X=X-XiXiXiXiXiXiX@X3.;.-.=.k - . r <.<._ W Y o. .p a 8 X X 0 W W W [ W W W W F [ <.v.!.8X9X^./././.Y.z.<.( / E ` g.s.",
"XXXXoX@X=X-X:X;XiXiXiXiXiXiX-XoX3.;.=.k -   % ; 0 ; * % = = , O X     X % & & & & & w [ 7.H.!.<X7X8X8X7X7X7X7X6X<X!.<.0 e ( s.s.",
"XXoX=X;X;XiXiX;X;XiXiXiXiXiX=Xb.;.-.k s ,                   + 1 $ .             $ < 6 R 7.c.Y.!.!.!.^.^.6X7X8X8X8X9X1.4 0 E g.s.",
"XX+X;XsXsXiXiXiXiXiXiXiX;XiX+X;.d s : % O                 $ v C B @           . 3 n Z M r G ^ ( ^ ^ l.U./.3X8X8X8X9X<.; 4 E g.g.",
"XX@XpXzXjXpXiXiX;XiXiX;X;X;XXXl . O                       @ n 9.A 1           . n 8.5.3             b { G.~.7X8X8X6X1.; 4 E s.s.",
":X:XiXpX;X-X=X-X=X=X-X@XoX3.2.,.>.! G w %   2 M N P N 6 + $ m D M y - - - : : y t n B <       X 1 B M H ] D.~.^.^./.` % 0 E s.s.",
"jXsX:X@X+XoXoXoXoXoXoXXX;.d -.J.!.U.s.R 0 . m 0.e.e.e.I 2 O > t t y s s d x k l h 2 @ .       @ n 5.Z 6 w ] G.H.H.A.T # 0 ( j.h.",
"jXaX>XK.K.b.K.K.K.3.4.;.=.x >.Y.3X~.Y.s.W 4 P 0.t.t.e.} 2 O - 9 f d d d l l =.=.d - o .   O - y Z 8.B @ % G ` 7.7.` ^ z Q _ d.a.",
"&X$XL.v.v.v.v.v.v.1.=.Q >.c.F.Q./.~.~.Y.s.[ R N M N M m 5 : 9 d s d d k k l l l l d s , . 9 l | L B 1 $ . 4 b b b W 1.oX3.:.h r ",
"^ ~ ~ ! ! ~ ! ! ! h > 5 x.6X^.Q.G.~.7X3XQ.k.R *       , : s s d d d d d k k k l l =.k :   k 2.2.k .               9 3.sX:X;.    ",
"J J J J J J J J J q # & <.!.~.~././.^.Y.j.[ e #       O : s d j o.o.o.O.@.O.o.Y O.=.k :   d ;.;.d   + 3 3 <   - k :.3.@X3.=.; ; ",
"' ' ' ' ' ' ' ' ' F 4 & ) G./.^.3X~.Q.k.E 4 #         o - s p X.+.#.$.$.*.#.+.@.o.l d - . s -.=.s   1 C A 3 . d 2.oX2.O.Q ! E R ",
"g.g.s.s.g.g.s.g.g.R 4 % [ k.Q.^.7X/.k.] J s - O       , 9 d o.#.$.&._._._.&.$.+.@.l d -   : k z y @ B 8.8.n O =.oX;X3.l z [ { ` ",
"g.g.s.g.g.s.g.s.s.R 4 # W 7.Y.3X7XU.( ^ 2.XX-.-       = a  ...&._.).'.'.'.)._.%.$.@.p 8   , 9 y m V 8.r.w.N . =.=XsX:X+X4.^ b G ",
"s.s.s.s.s.s.s.s.s.R 4 # [ 7.Q.6X6Xx.0 -.@XjXoXf       u  .#.&.(.`.[.}.}.[.].'._.%.+.U 8       1 Z 8.r.i.t.S $ ;.:XzXxXlX-X;.  X ",
"s.s.s.s.s.s.s.s.s.) G w W ( j.Y.~.<.; d 4.=Xb.K 6 @   u X.$._.`.].[..X X.X|.].`._.$.X.u   O - 5 m D w.u.u.S $ -.=XjXpX:XOX:.0 0 ",
"s.s.s.s.s.s.g.g.s.7.) E F w R k.G.E & - x -.} 0.} t   u ..&.).[.|. X.XyXtX.X|.].(.&.X.u   - d k t 3 D t.u.S X =.@XiX+X;.:.^ ( ( ",
"s.s.s.s.g.s.g.g.s.s.s.{ F % w ) p.T 5 , O O P t.e.M   a $._.`.}. X.XtXtXuXtX.X}.`._...a   s =.l 9   M w.u.P X l 3.@X;.: q E g.g.",
"j.s.s.s.s.s.g.g.s.g.s.7.( F F F T :.;.-.9 O S t.e.M   p $.(.'.}. X.XyXtXuXtX.X}.'.(.$.a O s ;.;.s . M t.u.S . s =.;.:.J R { g.g.",
"s.s.s.s.s.s.s.s.s.s.s.a.a.{ R w 4 ;.+XXXl . S t.e.M   p %.).].}. X.XyXtXuXtX.X[.].).%.i . k 2.;.k O M w.u.P X . % 9 G { { a.g.g.",
"s.s.s.s.s.s.s.s.s.s.s.s.s.s.) F q ;.3.2.d . M e.w.M   u X.&.).[.|. X.XyXtXyX}.].(.&.+.Y s l ;.-.L 2 M q.0.P 0 4 0 0 R { g.g.s.g.",
"s.a.s.s.s.s.s.s.s.s.s.s.s.s.<.) R Q =.d - . n 8.0.c   , u  .%.`.[.[..X.X.X X].).%.U p O.;.=.k g N A S M m H E E E E ` 7.g.g.s.s.",
"j.j.j.j.j.j.j.j.j.j.j.j.j.j.j.j.a.T >     . 6 8.5.c       = X.B.).].[.}.[.].)._. .= 9 -.3.=.- @ V 8.C 1 % / g.j.j.j.j.j.j.j.j.h.",
"D.D.D.D.G.D.D.D.D.D.D.D.D.D.D.D.A.<./ w %   1 n B <       O a X.+.*.*.*.*.$.+. .a O - d =.d X + 3 V c + % E c.F.A.D.A.A.A.F.A.A.",
"z.z.z.z.z.z.z.z.z.z.z.z.z.z.z.z.h.d.<.T 0   X + + .         , = = 8 8 = u = = = O     o - #   . $ @ $ . % J <.z.z.h.z.z.z.z.z.h.",
"! ! J ~ J ~ ~ J J ~ ~ J ~ J ~ ! K ~ J G 0 # # % # # # O   . + 1 < @ + + + . .             . < 1 1 1 + O X q J ! ~ ! ! ! ! ! ~ ! ",
"J J J J J J J J J J J J J J J J J J J G h f 6 q f q q > X + 3 V n c 3 3 3 < .             3 V D C C c @ X 5 J J J J J J J J J J ",
"' ' ' ' ' ' ' ' ' ' ' ' ' ' ' ' ' ' ' ' ' ' ' ' ' ' <.L & < V 9.6.C n n n 3 @             c 6.9.9.9.D 1 % G ] ' ' ' ' ' ' ' ' ' ",
"s.s.j.s.g.s.g.g.s.g.g.g.g.g.g.g.g.g.s.g.s.g.g.g.s.f.s.] F b M C n c 3 n A V c < < < < < 1 n 6.9.y.y.D 2 % G a.g.s.g.g.g.g.g.g.g.",
"s.g.g.s.g.g.s.s.s.s.g.g.g.g.g.g.s.g.s.s.s.s.g.s.s.s.g.p.] [ b 1 < @ < n 5.5.V c c c c c v A 8.9.y.i.q.3 % F 7.g.s.s.s.s.s.g.g.g.",
"s.s.s.s.s.s.s.g.s.s.s.g.s.s.s.g.s.s.g.s.g.s.s.s.s.s.s.s.f.' H 7 & & 5 n 5.5.n c M Z D C D 8.9.y.r.u.5.t 0 R a.g.s.g.g.s.s.s.s.s.",
"g.s.s.s.s.s.s.s.s.s.s.s.s.s.s.s.s.s.g.g.s.s.s.s.s.g.s.s.g.{ ) W H F F L B c 1 1 N 0.w.w.w.e.y.r.0.S L H R ) s.s.s.s.s.s.s.g.s.g.",
"s.s.s.s.g.s.g.s.s.s.s.s.s.s.s.s.s.s.s.s.g.s.s.s.s.s.s.s.g.s.s.a.7.s.` G $ . . $ P t.i.N.M.N.N.e.S $ e ) a.s.s.s.s.g.s.s.g.s.s.s.",
"s.g.s.s.s.s.s.s.s.s.s.s.s.s.s.s.s.s.s.s.s.s.s.s.s.g.s.s.s.s.s.s.g.s.7.E e w w w P q.0.0.0.0.0.} N 0 T ` g.g.s.s.s.s.s.s.s.s.s.s.",
"s.s.s.s.s.s.a.s.s.s.s.s.s.s.s.s.s.s.s.s.s.s.s.s.s.s.s.s.s.s.s.s.g.s.a.{ ) ( ) [ H t 6 6 6 6 t m H ) ` 7.s.s.s.s.s.s.s.s.s.s.s.s.",
"s.s.s.s.s.s.s.s.s.s.s.s.s.s.s.s.s.s.s.s.s.s.s.s.s.s.s.s.s.s.s.s.s.s.s.s.g.s.s.p.F %           & T s.s.s.s.s.s.s.a.s.s.s.s.s.s.s.",
"j.j.g.j.j.j.j.j.j.j.j.j.j.j.j.j.j.j.g.j.j.j.g.j.h.j.j.j.j.j.g.j.j.j.j.j.j.j.j.a.F %           & T h.j.j.j.j.g.j.j.j.j.j.j.j.j.h.",
"A.A.A.A.A.A.A.A.A.A.D.A.D.c.m.D.A.A.A.A.A.A.A.A.A.A.A.A.A.A.A.A.A.A.A.A.A.A.A.A.A.A.A.A.A.A.A.A.A.A.A.A.A.A.A.A.A.A.A.A.A.A.A.A.",
"F.F.F.F.F.F.F.F.F.D.F.U.G.F.F.F.F.F.F.F.F.F.F.F.F.F.F.F.F.F.F.F.F.F.F.F.F.F.F.F.F.F.F.F.F.F.F.F.F.F.F.F.F.F.F.F.F.F.F.F.F.F.F.F."
};
