/* XPM */
static char *stab_r31683908182[] = {
/* columns rows colors chars-per-pixel */
"64 64 233 2 ",
"   c #020101",
".  c #0B0305",
"X  c #0B0905",
"o  c #050B0A",
"O  c #0B0C0B",
"+  c #150409",
"@  c #150608",
"#  c #1B050B",
"$  c #130E0A",
"%  c #16110B",
"&  c #1B150D",
"*  c #1F180E",
"=  c #0D0F10",
"-  c #081715",
";  c #131313",
":  c #1B1914",
">  c #1C1C1C",
",  c #24050E",
"<  c #24100F",
"1  c #2A0611",
"2  c #260B14",
"3  c #380816",
"4  c #360B18",
"5  c #231C13",
"6  c #281C17",
"7  c #38151D",
"8  c #0F221E",
"9  c #2B2317",
"0  c #312519",
"q  c #34291B",
"w  c #3A2E1C",
"e  c #3E311E",
"r  c #381B23",
"t  c #0D2926",
"y  c #152623",
"u  c #13312D",
"i  c #173A36",
"p  c #232323",
"a  c #2A2824",
"s  c #2B2B2B",
"d  c #372A23",
"f  c #3E292A",
"g  c #3B3223",
"h  c #283836",
"j  c #333333",
"k  c #363A3A",
"l  c #3B3A3A",
"z  c #430A1B",
"x  c #4C0B1E",
"c  c #43161E",
"v  c #4A0E20",
"b  c #580E24",
"n  c #461623",
"m  c #59182A",
"M  c #630F27",
"N  c #68122B",
"B  c #6E1731",
"V  c #791532",
"C  c #4C2D2B",
"Z  c #443522",
"A  c #4B3B25",
"S  c #48392A",
"D  c #533B28",
"F  c #5E3332",
"G  c #513A30",
"H  c #6B2538",
"J  c #76253D",
"K  c #17433E",
"L  c #2B413C",
"P  c #54422A",
"I  c #5A462B",
"U  c #574136",
"Y  c #5C4B34",
"T  c #504838",
"R  c #5C4B3A",
"E  c #624C2F",
"W  c #634D32",
"Q  c #665236",
"!  c #6D5534",
"~  c #725837",
"^  c #735B39",
"/  c #795D3E",
"(  c #7C613C",
")  c #493D40",
"_  c #7E2C45",
"`  c #1A4A45",
"'  c #1C544E",
"]  c #1D5852",
"[  c #274B47",
"{  c #374342",
"}  c #26524D",
"|  c #295C57",
" . c #23625C",
".. c #3E6150",
"X. c #246C64",
"o. c #28736B",
"O. c #2A7A72",
"+. c #327E76",
"@. c #434343",
"#. c #4B4541",
"$. c #4B4B4B",
"%. c #574C4C",
"&. c #5B5347",
"*. c #575857",
"=. c #655548",
"-. c #745E42",
";. c #645E58",
":. c #725F58",
">. c #7B6343",
",. c #66635E",
"<. c #766457",
"1. c #5D6361",
"2. c #646363",
"3. c #6A6866",
"4. c #6C6C6C",
"5. c #746D67",
"6. c #76736D",
"7. c #747372",
"8. c #7C7C7B",
"9. c #871536",
"0. c #97173D",
"q. c #85673E",
"w. c #981E42",
"e. c #B01C48",
"r. c #8A2946",
"t. c #942B4A",
"y. c #993050",
"u. c #B02F55",
"i. c #C42D5A",
"p. c #CA3B66",
"a. c #D43C6A",
"s. c #836844",
"d. c #8D6F46",
"f. c #8E7046",
"g. c #8E724A",
"h. c #987546",
"j. c #93764C",
"k. c #836E52",
"l. c #8C7250",
"z. c #8A755B",
"x. c #957A53",
"c. c #967B55",
"v. c #997E59",
"b. c #806F69",
"n. c #857768",
"m. c #847E79",
"M. c #D6426E",
"N. c #E14574",
"B. c #2D857B",
"V. c #3A887D",
"C. c #52866F",
"Z. c #80835D",
"A. c #9F8256",
"S. c #9D815B",
"D. c #A18457",
"F. c #A98656",
"G. c #A5895C",
"H. c #B28C5A",
"J. c #B9935F",
"K. c #9C8567",
"L. c #908876",
"P. c #A58B68",
"I. c #AD926B",
"U. c #BA9766",
"Y. c #AB9475",
"T. c #B49974",
"R. c #B6A179",
"E. c #C19C69",
"W. c #CDA672",
"Q. c #C5A579",
"!. c #D2AB76",
"~. c #D3AD78",
"^. c #368C83",
"/. c #35948A",
"(. c #3B9B92",
"). c #3BA297",
"_. c #40A79C",
"`. c #49B3A8",
"'. c #4CB6AB",
"]. c #5CC7BC",
"[. c #62C3B8",
"{. c #65CCC1",
"}. c #72D0C5",
"|. c #79D3C9",
" X c #828282",
".X c #8B8B8B",
"XX c #958D89",
"oX c #959595",
"OX c #9D9D9D",
"+X c #A7988A",
"@X c #B29E82",
"#X c #B7A489",
"$X c #B3AE96",
"%X c #BDAB94",
"&X c #A3A3A3",
"*X c #A9A6A5",
"=X c #ADADAD",
"-X c #B3ABA8",
";X c #B3B3B3",
":X c #BEB5B2",
">X c #BBBBBB",
",X c #DCB682",
"<X c #C5AF92",
"1X c #C3B39B",
"2X c #E4BD87",
"3X c #C5B6A2",
"4X c #C9BCA8",
"5X c #C4BCB7",
"6X c #EAC38C",
"7X c #EAC491",
"8X c #F3CB94",
"9X c #F4D29C",
"0X c #FDD59D",
"qX c #CDC2B5",
"wX c #D3C8B9",
"eX c #84D7CE",
"rX c #99DDD6",
"tX c #A2E0DA",
"yX c #C1C1C1",
"uX c #CBC9C7",
"iX c #D4CCC0",
"pX c #DED5C9",
"aX c #D2D2D2",
"sX c #DDDCDC",
"dX c #E1D9CD",
"fX c #E4DDD3",
"gX c #E1DEDC",
"hX c #E9E3DB",
"jX c #EAE8E5",
"kX c #F2EEE9",
"lX c #F3F0EB",
"zX c #F7F6F5",
"xX c #FEFEFE",
/* pixels */
"f f f f C f f f f f C f f f f f C f f f f f C f f C f f C %.&XzXaX&X8. X8. X X8. X X4.%.f f C C f f f f C f f f f f C f f f f f ",
"G G G G G G G G G G G G C G G G G D G G G G G G G G G G C :.*XjXaX*X.X.X X X8.8.8.8.5.=.G G G G G G G G G C G G G G G C G G G G ",
"/ / >./ / / -.-.-./ -.q.q.-.-.-./ -./ / -.-./ / / / >./ q.k.+XyXyXyX:X*XoX X7.2.4.8.6.<.-.-.s.-./ / -./ -.q.q.-.-.-.-.q.q.-.-.-.",
"f.f.f.f.f.f.f.f.f.f.f.f.d.f.f.f.f.f.f.g.g.d.f.f.d.d.d.d.f.j.m.XX=XaXjXyX=X X2.$.;.m.m.z.f.f.d.d.d.d.d.d.d.d.d.g.f.f.f.f.d.f.f.f.",
"d.f.f.f.d.f.f.d.d.f.d.d.d.f.f.d.d.f.d.f.d.f.d.f.f.d.d.d.d.l.n.m.&XaXjXuX;X.X4.*.3.8.m.z.d.d.d.d.d.d.d.f.d.d.d.d.d.f.d.d.d.d.d.d.",
"d.d.f.f.f.f.d.d.d.d.d.f.d.d.f.d.d.d.d.d.d.d.d.d.d.d.d.d.d.l.n.m.OXyXaXyX>XOX X4.7.8.m.z.d.d.f.d.d.d.d.d.f.d.f.d.d.d.d.f.d.d.d.d.",
"d.f.d.f.d.d.d.d.d.f.d.d.d.d.d.d.d.f.f.d.d.d.f.f.f.d.d.d.d.l.n.XXoX;XyXyXyX;XoX X X Xm.n.f.d.d.d.d.d.d.d.d.d.f.d.d.f.d.d.d.d.d.d.",
"d.d.d.d.f.d.d.f.d.d.d.f.d.f.d.d.d.d.d.d.d.f.f.f.d.d.g.d.d.l.n.C.oX;XyXyXyX;X&XOX*X;X$XP.d.d.d.d.d.d.d.f.d.d.d.d.d.d.d.f.d.d.f.d.",
"d.d.d.d.d.d.d.d.d.d.d.d.d.d.d.d.d.d.d.d.d.d.d.d.f.g.d.g.f.g.n.m.oX;X>XyXyX>X>X>XuXjXuX+Xd.d.d.d.d.d.d.d.d.d.d.f.d.d.d.d.d.d.d.d.",
"d.d.d.d.d.d.d.d.d.d.d.d.d.d.d.d.d.d.d.d.d.d.( / ! ! ! ! ! -.5. XoX=XyXyXyXyXyXyXsXzXfX@Xd.d.d.d.d.d.d.d.d.d.d.d.d.d.d.d.d.d.d.d.",
"d.s.d.d.d.d.f.d.d.d.d.d.d.d.d.d.f.d.f.f.d.s.W Z w w d w w S :.8.oX=XyX>XyXyXyXyXsXzXfX@Xd.d.d.d.d.d.d.d.d.d.f.f.d.d.d.d.d.d.d.d.",
"j.j.j.j.j.j.j.j.j.j.j.j.j.j.j.g.j.j.j.j.g.g.D 5           ; %.C.oX;XyXyXyXyXyXyXsXzXfX%Xj.j.j.h.j.f.j.j.j.j.j.j.j.j.j.j.g.j.j.j.",
"D.D.D.D.D.D.D.D.D.D.D.G.v.D.D.D.D.D.D.j.( W P Z w w e A Y &.&.$.7.&XyXyXyXyXyXyXuXuXuX4X<XR.P.v.D.D.D.D.D.D.D.D.D.D.D.G.v.D.D.D.",
"g.l.l.l.l.l.l.l.l.l.l.l.j.l.l.l.l.l.l.-.S 5 A ! ( ( q.c.I.Y.=.9 *.oXyXyXyX>XyX>X=X&X=XuXfX-XP.g.l.l.l.l.l.l.l.l.l.l.l.l.j.l.l.l.",
"U U G U U U U G U U U G R F G U G G S d 9 5 E j.H.H.H.E.,X~.<.d $.8.&X*X;X;X=X*XoX.XOXaXxX5Xm.:.:.:.=.%.U U U G U U U G U G F R ",
"G G G G G G G G G G G G G G G G G d 6 0 A I h.E.~.~.~.!.!.E.H.c.5.;.1.8.oXoX X8.8. XOXaXxXsX4X*X-X%Xm.=.G G G G G G G G G G G G ",
"-.-./ / / / / / / / / / / / / / ! Z $ 6 E h.E.7X0X0X0X2XJ.H.~.8XP.S > $.8.7.*.$.1.8.OXaXxXxXzXzXzXzX4Xn.-.-.q.-.q.~ q.-.-.q.-.~ ",
"f.f.f.f.f.f.f.d.f.f.f.f.f.d.q.! Y T @.T W ! s.P.T.Q.~.~.W.E.~.~.x.f O j 1.;.$.@.*.3..XuXxXxXxXxXxXxXfX4XT.P.d.d.d.d.d.d.d.d.d.d.",
"f.f.f.f.f.f.f.f.d.d.d.d.f.d.! Z 0 *.8.6.T 9 w S W g.J.W.~.2XW.J.>.0 O s $.$.@.@.@.$.m.yXxXxXxXxXxXxXlXfX5X@Xj.d.d.d.d.d.d.d.d.d.",
"f.f.d.d.d.d.d.d.d.d.d.d.s.q.P 5 = %.oX8.k   = : g W q.U.2X2XU.h.I 5 o > j j l k k k 2.-XkXkXkXkXkXlXkXlXfX1XP.v.j.d.d.d.d.d.d.d.",
"g.d.d.d.d.d.d.d.d.f.d.q.Q A 0 $ O s *.@.p . k 3.6.=.A s.U.U.d.D q %   % > p > p > 6 @.m.1X3X3X1X3X3X3X3X3X3X3X@Xv.d.h.d.d.d.d.d.",
"d.d.d.d.f.d.d.d.d.d.d.( A & X     o = = o o 2.>X;X2.$ A s.d.P % X         o o   o o 9 Q A.A.C.F.v.v.v.v.P.4XjXwX@Xd.d.d.d.d.d.d.",
"d.d.d.d.d.d.d.d.f.d.d.( e X @ , 4 4 v n r f :.OXXX$.  0 I W D n 2 @       % d S T S U Y Q ^ ( q.d.d.d.d.v.#XiX3Xv.l.d.d.d.d.d.d.",
"d.d.d.d.d.d.d.d.d.d.d./ Z X , x V r.t.y.y.y.y.%.{ 6   @ 5 C H y.H 2       a >.I.I.I.g.Y q I ( A.d.d.d.d.c.P.@XP.v.h.d.d.d.d.d.d.",
"d.d.g.d.d.d.d.f.d.d.f./ Z X 3 V e.i.p.a.a.p._ 2           2 _ M.t.7       S I.9X0X9XR.^ - g ! ( d.d.d.d.d.d.d.d.d.d.c.c.c.x.d.d.",
"d.d.d.d.d.d.d.d.d.d.d./ Z X # z M B J _ J J n +           2 _ a.y.7       g x.~.<X$XC.C.K L A I -.d.d.d.d.d.d.d.d.x.v.%X3X3Xd.d.",
"g.d.d.d.d.d.d.d.d.d.d./ Z X   @ + @ , 2 , ; O             2 r.M.y.7       q / G.L.C.(.^.B.] y 9 F d.l.d.d.d.d.d.d.c.%XfXjXjXd.d.",
"f.d.d.d.d.d.d.d.d.q./ I q         - 8 8 8 8 - - - O o o o 2 H y.B 7       9 Q Z.C.V.B.^.B.K 8 5 =.P.v.c.d.d.d.d.d.c.#XpXpXfXd.d.",
"f.f.d.d.d.d.d.d.d.! A 9 %       o u ' ] ' ` ` i u 8 ; ; ; 6 7 m 7 @       y ..C.+.o.o.o.X.K - a m.wX#Xv.d.d.d.d.d.c.v.@X#X#Xd.d.",
"d.d.d.d.d.d.d.d.s.I 9           - ` ^./.^.O.X. .` h > p > > = .           u  ./.O.] } ] ] u - l oXxXiXY.h.c.d.d.d.d.d.d.f.d.d.d.",
"d.d.d.d.d.d.q.! P C n 3 , . = t ` o.(._.).(.^.O.X.[ i i s p ; = 2 4 z ,   t ] O.] K u i u { 1. XyXxXgX4X@Xv.d.d.d.d.d.d.d.d.d.d.",
"h.j.j.j.j.j.-.D 5 c V 9.z . t ' O.(.'.'.'.'.)./.O.X.[ h h p y > n B V z . 8 K  .K - - - - 1.*XsXjXxXzXkXpX#Xv.j.j.j.j.j.j.j.j.j.",
"A.A.A.A.A.A.s.A . 3 V 9.x . u o._.'.].{.{.].'._./.O. .[ h s p p n B V x . - u ` u 5 & X X 1.5XkXlXxXxXxXkXwX@XI.P.v.F.D.D.D.D.D.",
"l.l.l.l.l.l.>.g . 1 M N 3 . i +.'.].{.|.}.}.{.'.).^.X.} h s s s d n z ,   o - y g P Z 5   T XX4XfXxXxXxXzXfXwX<XP.j.l.c.l.l.l.l.",
"U U U U U U C 6   # z x 1 . L ^.].{.|.eX|.eX}.].'.(.O.| k s s s > O           X A q.~ w   9 S 5.:XxXxXxXxXxXxX5Xn.G U G F G G %.",
"G G G G C d 0 7 z x x x 1 . h ^.].|.|.rXrXrX|.{.'.(.O. .L j s j p =       $ 6 Z >.H.j.S   5 f =.L.:X:X:XyXsXxXyX6.G G G G G G G ",
"( / / / D 0 7 m 9.V M x 1   i ^.].|.rXtXtXtX|.{.'.(.O.| { j j j p O       5 P q.G.~.I.Y   0 W >.z.v.K.L.+XwXzXiXY.-./ -.>./ / / ",
"f.f.f.d.P * # b w.9.M z ,   i ^.].|.rXrXtXtX|.{.`./.o.| { k k k a O       9 ! F.W.8XQ.R   g ^ f.g.l.f.f.v.1XhX5X@XD.c.j.g.f.f.f.",
"d.d.d.d.P < # x V M 3 , +   u O.`.].|.|.|.|.[.'.(.B.X.} L k l @.s ;     . 0 ! F.W.8XQ.R   e ~ g.f.d.d.d.c.Y.<X3X4X1XY.j.f.d.d.d.",
"d.d.d.d.D & @ 3 b z #       u X.(.`.].].].].'.(./.o. .[ k l @.@.j ;       0 ~ h.W.8XQ.R   e ~ f.d.d.f.d.j.j.x.@XdXjX1Xv.d.d.f.d.",
"f.d.I W D n n b b 3 #       8 ` X./._.'.'.`.(.^.O. .} { { l k j s 7 3 # . 0 ! F.W.8XW.Y   e ^ f.d.d.f.d.d.d.d.@XpXkX3Xv.f.d.d.d.",
"d.d.9 6 F r.t.J b 3 +       - - u X.(.(.(.^.B.X. .} k { @.{ s > 7 N B 3 . 9 ! F.W.6XQ.Y   e ^ f.f.d.d.d.d.d.d.@XpXkX3Xv.d.d.d.d.",
"f.d.    m u.p.t.b 3 +         O - ` O.B.O.X. .' [ h s k l l >   3 B 0.b % w Q h.U.6XU.R   e ~ f.d.d.d.d.d.f.d.@XpXkX4Xv.g.d.d.d.",
"d.d.    H u.p.t.b 3 +       ; s { { ` ` K K u u t y > p p p ;   , z b m D D D I j.U.A.S   e ~ d.f.d.f.d.d.d.d.@XdXkX3Xv.d.d.d.d.",
"d.d.    m p.M.r.b 3 #       p %.4.{ 8 = o o o o o   o . o o       . 2 D q.W w * I j.q.w . w ~ f.d.d.d.d.d.d.d.@XfXkX3Xv.d.d.d.d.",
"d.d.    m u.p.t.V b z 1 +   > { *.l s p 8 ; =   . O ; > p > ;       % W F.f.g X A f.( w   w ~ d.d.d.d.d.d.d.d.@XdXkX3Xv.d.d.d.d.",
"d.d.    m u.a.u.e.9.V N 4 . = > j l $.$.l j > o O > j @.$.@.p .     * -.W.S.S X A q.q.w   e ^ d.d.d.d.d.d.d.f.@XpXkX3Xv.d.d.d.d.",
"j.j.. O F u.a.i.e.e.e.w.b .   . , l 4.4.*.@.s ; ; j @.*.4.3.j O     : k.6XT.R % D q./ w   e ( j.j.j.j.j.j.j.c.@XdXkX4Xv.j.j.j.j.",
"A.A.S S F J r.u.i.u.e.0.b . # 3 b C ) ) j s r v n r s k ) G C x 4 @ : k.7X,XG.>.d.h./ w   S s.D.v.D.D.D.D.D.D.<XhXlXqXI.S.D.D.D.",
"l.l.>.>.G 7 n t.a.i.i.w.b @ 1 N 9.m > ; O O v V V v O - ; 6 m w.M 1 5 k.7X8X6X~.E.F.^ w   g -.l.g.l.l.l.l.l.l.#XpXjX3XK.g.g.l.g.",
"U U G U d : r H u.y.0.V z . 1 M 9.m 7 7 4 7 B y.w.M 1 # . # x 9.N 7 g c.7X9X8X2XU.d.E w & a S G U G F R U U H b.-XuXXX=.U U G U ",
"G G G G C d d n m m v 4 , . # 1 v N r.r.t.t.u.i.u.w.B z # . , z m D ( I.8X7X~.J.s.D w q 7 Z S G G G G G G D S =.n.m.:.F G G G G ",
"-./ / / / / W q                 # B p.N.N.N.N.N.a.i.e.N 1       w ( F.!.8X2XE.A.P % * A / / / / -.-.-./ / / -.-.q./ / / -./ / / ",
"d.d.f.f.f.f.q.P e w w w w w q w e F _ r.r.r.r.r.r.9.B z # . 5 e ~ D.W.2X9X6XJ.q.P % 5 I f.f.d.f.f.f.f.f.x.I.%XY.v.f.f.f.g.f.f.f.",
"d.d.f.f.f.f.d./ ~ ! ! ~ ! ~ ! ~ ! C r 2 7 2 7 2 1 1 , # . $ Z / F.!.6X8X0X6XE.q.I % 5 I f.d.f.d.f.f.f.d.v.<XdX4XP.d.d.f.d.d.f.f.",
"d.d.d.d.d.d.d.d.d.f.d.d.g.f.d.f.>.A $ o > p s s s s p ; o & I h.E.6X0X0X0X~.H.( D 6 w E d.d.d.d.f.f.f.f.v.1XgX4XY.d.d.d.f.d.f.f.",
"d.d.d.d.d.d.d.d.g.d.d.d.d.d.d.d.( P X > $.4.8..X.X8.7.#.: * I q.E.6X0X0X0X!.>.A A P I / f.d.d.d.d.d.d.d.j.Y.%XY.v.d.d.d.d.d.d.d.",
"d.d.d.d.d.d.d.d.d.d.d.d.d.d.d.d.( A $ j 8.>XaXkXjXaX>X7.a * I A.E.2X0X0X0XR.T $ e ( f.d.f.d.f.d.d.d.d.d.d.f.j.j.d.d.d.d.d.d.d.d.",
"d.d.d.d.f.d.d.d.d.d.d.d.d.d.d.f.q.Y q T ;. X;XjXgX;XC.n.1.*.Q Q ( S.K.K.P.<.I w I ( d.d.d.f.f.d.d.d.d.d.d.d.d.d.d.d.d.d.d.d.d.d.",
"d.d.d.d.d.d.d.d.d.d.d.d.d.d.d.d.d.( Q Y L S .XsXaX Xj 3.OX&X,.q q e g P Z P Y Q / q.d.d.s.f.d.d.d.d.d.d.d.d.d.d.d.d.d.d.d.d.d.d.",
"d.d.d.d.d.d.d.d.d.d.d.d.d.d.d.d.f.f.d.! w : 3.>X=X;.$ ;.;X>X3.: $ X $ o % q Q q.d.d.d.d.f.j.c.A.l.d.d.d.d.d.d.d.d.d.d.d.d.d.d.d.",
"j.j.j.f.j.j.f.j.f.j.j.j.j.j.j.g.j.j.j.( W P &.6.4.=.A %.3.4.=.P P A P P P Y ( j.j.j.j.j.j.Y.<X<XY.j.j.j.j.j.f.j.j.j.j.h.l.j.j.j.",
"A.A.A.A.A.A.A.A.D.A.A.A.A.A.A.A.A.A.A.A.A.g.Y a s R x.Q g a Y l.g.g.A.g.j.A.A.A.D.D.D.D.S.1XfXfX1XD.A.A.D.D.D.D.v.v.v.D.D.D.v.v.",
"G.G.G.G.G.G.G.G.G.G.G.G.G.G.G.D.G.G.S.G.A.A.Y & 9 Q G.Q 5 : Y A.G.G.G.G.A.G.G.G.G.G.G.G.G.3XkXjX1XG.G.D.G.G.G.G.F.F.G.G.G.G.G.F."
};
