/* XPM */
static char *housetileset_copy_61683908363[] = {
/* columns rows colors chars-per-pixel */
"64 64 231 2 ",
"   c #010101",
".  c #0B0305",
"X  c #0D0A06",
"o  c #0B0B0B",
"O  c #050B0B",
"+  c #140308",
"@  c #120E09",
"#  c #1B090E",
"$  c #19050A",
"%  c #1A140D",
"&  c #081615",
"*  c #141413",
"=  c #1C1C1C",
"-  c #1B1816",
";  c #05110F",
":  c #23050E",
">  c #2D0712",
",  c #270C14",
"<  c #390917",
"1  c #360B18",
"2  c #251A17",
"3  c #37141C",
"4  c #0B201E",
"5  c #2C2215",
"6  c #2A231C",
"7  c #31251A",
"8  c #342A1B",
"9  c #3A2D1C",
"0  c #302517",
"q  c #3E311E",
"w  c #3C1823",
"e  c #0C2523",
"r  c #162A26",
"t  c #143935",
"y  c #10322E",
"u  c #232323",
"i  c #2B2B2B",
"p  c #2A2725",
"a  c #3A2D24",
"s  c #3E292A",
"d  c #332625",
"f  c #3D3122",
"g  c #393527",
"h  c #283635",
"j  c #333333",
"k  c #3A3A3A",
"l  c #343B3A",
"z  c #24382E",
"x  c #460B1C",
"c  c #47111F",
"v  c #41321E",
"b  c #560D23",
"n  c #491624",
"m  c #561728",
"M  c #4D0E21",
"N  c #620F27",
"B  c #6B132C",
"V  c #71112D",
"C  c #7B1633",
"Z  c #681D33",
"A  c #4B2727",
"S  c #453521",
"D  c #4A3A24",
"F  c #433429",
"G  c #4B3D2B",
"H  c #47382A",
"J  c #523B27",
"K  c #463B34",
"L  c #513A30",
"P  c #532A2D",
"I  c #75253C",
"U  c #692636",
"Y  c #18433E",
"T  c #324139",
"R  c #59452C",
"E  c #574136",
"W  c #584839",
"Q  c #4D4334",
"!  c #624B2E",
"~  c #624D31",
"^  c #634432",
"/  c #6C5434",
"(  c #695438",
")  c #735B3A",
"_  c #795D3E",
"`  c #725836",
"'  c #7D613C",
"]  c #7F2742",
"[  c #1C4A45",
"{  c #1C534D",
"}  c #1E5A54",
"|  c #264A46",
" . c #25524D",
".. c #285954",
"X. c #394645",
"o. c #22625B",
"O. c #3B6558",
"+. c #29736C",
"@. c #26736B",
"#. c #2B7C74",
"$. c #286E66",
"%. c #434343",
"&. c #4C4B4A",
"*. c #5B5349",
"=. c #525252",
"-. c #5C5C5C",
";. c #5D5953",
":. c #594A48",
">. c #6C574A",
",. c #7B6446",
"<. c #6E6458",
"1. c #686867",
"2. c #7C7C7C",
"3. c #757574",
"4. c #766F6C",
"5. c #476F5B",
"6. c #881637",
"7. c #91193C",
"8. c #84213E",
"9. c #85663E",
"0. c #AF1B47",
"q. c #892946",
"w. c #962B4B",
"e. c #96314F",
"r. c #B22D55",
"t. c #C42C59",
"y. c #CA3B66",
"u. c #D63B69",
"i. c #816641",
"p. c #8D6F46",
"a. c #846B48",
"s. c #8E7046",
"d. c #8E7149",
"f. c #93754C",
"g. c #9A7647",
"h. c #8C7251",
"j. c #8D775A",
"k. c #997E59",
"l. c #977B54",
"z. c #A27D4C",
"x. c #847A6C",
"c. c #887C77",
"v. c #D5426E",
"b. c #DB4371",
"n. c #E14574",
"m. c #2D867C",
"M. c #32887E",
"N. c #768F70",
"B. c #538871",
"V. c #9F8256",
"C. c #9B815D",
"Z. c #A18457",
"A. c #A5895C",
"S. c #A8885C",
"D. c #B28C5A",
"F. c #B6905C",
"G. c #A7804E",
"H. c #9C8665",
"J. c #938577",
"K. c #A58C6A",
"L. c #A38965",
"P. c #BB9766",
"I. c #AB9577",
"U. c #B69C76",
"Y. c #AA916E",
"T. c #C29D6A",
"R. c #CAA46F",
"E. c #CAA776",
"W. c #D5AE7A",
"Q. c #D1AA75",
"!. c #D9B37E",
"~. c #338D83",
"^. c #37948B",
"/. c #37998F",
"(. c #3DA398",
"). c #439A8F",
"_. c #43A69C",
"`. c #55A08D",
"'. c #4AB4A9",
"]. c #4EB9AD",
"[. c #5CC7BB",
"{. c #62C5BB",
"}. c #65CCC2",
"|. c #78D2C9",
" X c #76CFC6",
".X c #828282",
"XX c #8C8C8C",
"oX c #9D9C9C",
"OX c #949393",
"+X c #9A8C86",
"@X c #AA9B8C",
"#X c #BAA689",
"$X c #BDAB93",
"%X c #B5A696",
"&X c #A9AF94",
"*X c #A8A8A8",
"=X c #B4B4B4",
"-X c #BCBBBB",
";X c #B3ACA9",
":X c #C2B19B",
">X c #DEB884",
",X c #E2BB85",
"<X c #C5B6A1",
"1X c #C9BBA8",
"2X c #C4BDB8",
"3X c #EFC892",
"4X c #F3CB94",
"5X c #FED69E",
"6X c #F5D19B",
"7X c #E8C18B",
"8X c #CDC2B5",
"9X c #D5CABA",
"0X c #CFC2AE",
"qX c #98DDD6",
"wX c #84D7CE",
"eX c #A2E0DA",
"rX c #A0DFD9",
"tX c #C1C1C1",
"yX c #CBCBCA",
"uX c #DBD3C9",
"iX c #DDDCDC",
"pX c #D7D5D3",
"aX c #E0D8CC",
"sX c #E3DDD7",
"dX c #E9E3DB",
"fX c #E7E1DA",
"gX c #E9E8E6",
"hX c #F1EDE8",
"jX c #FEFEFE",
"kX c #F7F6F4",
"lX c #F3F0ED",
/* pixels */
"s s s s A s s s s s s s s s 4.2XhXoX:.A s s s s s s s s s s s s 2 + O 2 d 2 # . % d A s s s A s s s s s F s s s s s A s s s s s ",
"L L L L L L L L L L L L L L x.2XgX@X*.L L L L L L L L H G H L H s u - d F a u - p F H L L L L L L L L L L L L L L L L L L L L L ",
"_ _ ,._ _ _ _ ,.,._ ,._ _ ,.j.@X%XJ.,.' ,._ _ _ ( R 9 S q q f v W 1.4.*.H Q <.3.;.G J ( ,.,._ _ _ _ ,._ _ _ _ _ ,._ _ _ _ _ ,.,.",
"s.s.s.s.s.s.p.s.p.p.p.p.p.p.f.l.C.l.d.s.p.p.p.p.` S @ @ @ % @ @ =.*XtX3.u &.oXyX2.d 7 ^ p.p.p.p.p.p.p.p.p.p.p.f.p.s.s.s.p.p.p.p.",
"s.s.s.s.s.s.s.s.s.s.s.s.p.p.p.p.s.s.s.s.s.s.9.` ~ L H F H g 8 5 ;.OX*X3.X.4.tXhX*X:.K L / _ a.p.p.p.d.p.p.p.p.s.s.s.s.s.p.p.p.p.",
"p.p.p.p.p.p.p.p.p.p.p.p.p.p.p.p.p.p.p.p.s.9.! v G ,.K.K.K.C.a./ :.-.-.4.2.oXpXkXtX+X1.%.7 R ' p.p.p.p.p.p.p.p.s.p.p.p.p.p.p.p.p.",
"p.p.p.s.p.p.s.s.f.d.d.s.p.p.p.p.p.p.s.s.s.' R % g C.5X5X5X3XR.G./ 3 * -.*XyXgXlXaX2XXX%.  q ) p.s.p.p.p.p.s.p.p.p.s.p.p.p.p.p.p.",
"p.p.p.p.p.p.l.I.:XI.k.p.p.p.p.p.s.p.s.' ~ R J v ( U.5X5X5X3XR.G./ 5 # K -.c.`.XX`.3.=.p   9 ) p.p.p.s.p.p.p.p.p.p.p.p.s.p.p.p.p.",
"p.p.p.p.p.p.k.:XsX1XK.p.p.p.p.p.p.p.p./ v - v ) V.Q.5X5X5X3XR.G./ 5 . % = u i i i u = o   9 ) p.s.d.s.s.s.d.p.p.p.p.p.p.p.p.p.p.",
"p.p.p.p.p.p.L.:XsX<XK.p.p.p.p.p.p.p.p.~ 0 X v 9.F.>X5X6X4X!.F.9.J %   + : > , 1 3 , 3 1 3 F R ) / ` / / / / / ) i.p.p.p.p.p.p.p.",
"p.p.p.p.p.p.l.Y.#XI.k.p.p.p.p.a.s.p.s.( 0   v 9.F.!.5X7XW.D.9.v 5 @ . < b C 6.q.q.q.q.q.q.U A d 9 8 8 9 9 9 9 R ) p.p.p.p.p.p.p.",
"f.s.f.f.f.f.d.g.g.f.f.f.f.f.g.f.f.f.f.) 8   R 9.F.!.5X!.F.9.v X     $ b 0.r.u.n.n.n.n.n.b.q.,                 d / f.f.f.f.f.f.f.",
"k.Z.Z.Z.Y.:X#XY.Z.Z.Z.Z.k.Z.Z.Z.C.a.( R D S ' D.W.7X5XR.a.R A c > + . < N 7.r.y.r.e.q.q.q.Z M < #   $ < x n m L ^ ( a.k.Z.Z.Z.Z.",
"h.h.h.f.#XyX9X#Xj.h.h.j.h.h.h.h.a.R 7 8 R i.S.!.7X6X5XK.R 3 N 6.b : . + : b 7.r.C w 1 1 w m C V <   > B 7.0.r.q.A 5 E ,.h.h.d.h.",
"L :.L ^ +XpXfX+X^ E L ^ E E L E L 6 X 5 / G.P.E.,X4X5XH.a $ b 7.B w * * ; 1 V 6.m , * * * n C C <   x 6.t.t.u.e.m , d F H H E L ",
"L L L L +XiXsXOXL L L L L L L L H 2 X 5 / g.s.,.x.E.5XC.a . > x P K %.j i d n M w i j k %.P m w :   x 6.0.t.t.r.q.] P 3 2 2 L L ",
",._ ,._ @XsXsX#X,._ _ _ _ _ _ _ ` S X 5 / g.! 5 S L.5XH.a     . i -.3.-.&.j = o u k =.1.3.&.- .     x 6.0.0.0.t.u.y.U #   . ,._ ",
"s.p.s.d.:XsXsX:Xf.s.s.s.s.s.s.s.i.S @ 5 ~ g.R % 8 s.>Xd.7       = k =.X.j u *   - i k &.=.%.j u *   > b C 6.7.r.y.y.] #     p.p.",
"p.p.s.s.:XdXdX:Xh.s.p.p.p.p.p.p.i.D $ 5 / g.! % 5 ` F.` 5       o = u = * *     o * - = u k =.&.u   + > < b B 7.t.v.U +     p.p.",
"p.p.p.s.:XsXsX:Xf.p.p.p.s.p.p.s.i.S @ 0 ` z./ 5 0 / 9.! 2 + .   O . . O . . O O O ; o ; & l -.-.i       + > M q.r.u.] +     p.p.",
"p.p.p.p.#XsXdX:Xd.p.p.p.p.p.p.p.,.D @ 8 p.R.l./ J J J A m x >   o = u u = = e y y t [ [ [ | X.j =       . > b 6.r.y.I #     p.p.",
"p.p.p.g.#XsXsX:Xf.d.p.p.p.p.p.p.9.D @ F L.3XE.z.` v @ c 6.6.x . * j %.k j l | { } $.@.#.m.{ e . .       . > x q.y.y.I #     p.p.",
"p.p.s.s.:XdXdX:Xd.p.p.p.d.p.p.d.' D @ H L.5XW.D._ v   > N V n * u j %.X.l  .} @.#.~././.(.+.t e ;       + > b V q.e.U 8 5 5 p.p.",
"p.p.s.9.#XsXsX:Xf.p.p.p.p.p.p.p.,.D @ D K.5XW.D.9.v   + > 3 d j k k X.l | o.+.~./._.'.'.].^.#.{ y       . > M b n A P R ~ R p.p.",
"p.p.p.s.%XaXsX:Xl.h.f.p.p.p.p.p.9.D @ H K.5XW.D.9.q       o i &.%.k l | ..@.~./.'.[.[.[.[.].(.#.t       + < b x $ X D ' s.s.s.p.",
"s.p.s.s.I.$X1X:X:XU.k.p.p.p.p.p.' D @ H K.6XW.D.' v       o u k k k l X.o.#./.'.[. X|.|.|.{.].~.[   + : < b C b : X S 9.s.s.s.p.",
"p.p.p.s.f.k.U.1XgX1XY.p.p.p.p.p.' D @ g H.5X!.F.9.v       o u j k j X...@.~._.[.|.qXrXrXrXwX{.). .  + < b C 7.V > @ S ' p.p.p.p.",
"s.p.p.s.p.p.K.9XjXuX$XI.I.Y.H.l.' D % g V.7XP.9.R 5       o = h j j l ..@.~.'.[.|.qXeXeXrXwX}.). .  : x N V 6.B c 5 R ,.s.p.p.p.",
"p.p.p.p.p.p.L.1XjXhXaX9X9X9X:XK.i.Q @ 8 ' P.9.R 0 %       . = i j j l ..@.^.'.[. XwXqXqXqX|.{._. .  # x b x x n J R ) 9.p.s.s.s.",
"p.p.p.p.p.p.L.1XkXjXjXjXjXjXuXU.i.v X 5 / g.R %           o - i i i h  .@.^.'.[. X|.|.wXwX|.{.). .  # x x : . 0 ! s.s.p.p.a.a.s.",
"p.p.p.p.p.p.l.@X1XaXhXjXjXjXdX8X@X*.% % q R S r & ;   # < n w p p i h | o.m./.'.[.}.}. X X[.].^.[   > N V < . 5 ~ s.p.p.p.s.s.p.",
"f.f.f.f.f.f.l.L.Y.1XsXjXjXjXkXhXuX3.6 O @ % z Y t &   1 V C m u u i h | ..@.~.(.'.[.}.}.[.]._.m.Y   < C 6.c . 7 / f.f.f.f.f.f.f.",
"Z.Z.Z.Z.Z.Z.Z.Z.Z.#XuXgXkXjXlXiX-X4.r ; ; ; y } { e   < V C n 2 = u i h { o.+.~./.'.].].].(.~.} y   1 V 6.m 2 G ,.V.V.V.V.Z.Z.Z.",
"h.h.h.h.h.h.h.j.d.L.@X<XpXkXpXOX1.O.z t y Y { $.o.y   # < c , o * u r i h [ o.#.~.^.(.(._.m.} y &   # 1 n P J ( ,.d.h.h.h.h.h.h.",
"E E ^ E E E L E L E E <.*XlX=X&.O e Y } { } $.M.@.t             o = u u u y [ } @.@.~.~./.} 4           @ 2 L L E E E E W L W E ",
"L L c.c.4.^ L P L L L ( c.;XJ.j O t o.@.$.+.M.B.5.z       + 3 m n , & * * = y t t [ { } } t ;       . * 2 a L L L L L L L L L G ",
",._ aXaX%Xj.,._ ,._ _ i.h.H.>.d ; Y #.m.M.M.B.N.<.g       # Z e.I 3 . O . ; ; & & 4 4 e e &         2 S ! / _ _ _ _ _ _ ,._ _ _ ",
"p.p.hXgX<XL.p.p.s.s.p.p.s.p.( 8 * Y +.M.)._.N.A.9.v       , ] v.e.3             . # , # : # # + .   9 / p.p.s.s.s.s.s.s.p.p.s.p.",
"p.p.:X:XI.k.s.s.s.p.p.p.p.p._ ! D z Y O.N.&X&XE.A.Q       , ] v.w.w           . 3 U I ] ] Z B M :   8 / p.s.s.s.s.s.s.s.s.p.p.p.",
"p.p.l.f.f.f.p.p.p.p.p.p.p.p.p.a.' Q * Q K.6X6X6XE.(       , ] v.w.3           + U r.v.v.v.t.0.6.x   8 / p.p.p.p.p.p.p.p.p.p.p.p.",
"p.p.p.p.p.p.l.L.@XK.l.p.p.p.p.p.9.! 9 Q ,.Y.Y.Y.h.F       # m e.I P 5 %   - k :.] e.e.e.w.q.6.N <   9 / p.p.p.p.p.p.p.p.p.p.p.p.",
"p.p.p.p.p.s.k.$XuX$XL.p.s.p.p.p.9.' ( R R Q Q Q f -       . , c P ! ! 9 X l N.*X2.P w n n 3 < : +   8 / p.p.p.p.p.s.p.p.s.p.p.p.",
"p.p.p.p.p.p.L.1XhX9XU.k.k.k.k.k.C.C.V.,.q O O O O . .       O X S 9.g.R 2 &.oXpX2.u O ; * X     . X 9 / p.p.p.p.p.p.p.p.p.p.p.s.",
"p.p.p.p.p.p.l.@X<X<X<X<X<X<X<X<X<X<X$X+X*.= = - = 2 r * . X 5 D ,.D.T.f.R W 4.2.%.* = k -.l * X 5 v ^ ,.p.p.p.p.p.p.s.p.p.p.p.p.",
"p.p.p.p.p.p.s.l.k.#XuXhXhXhXlXhXlXhXlX-X2.l l j k k j u o @ J 9.D.!.7XT.g./ F = o . i 1.*X1.u % D ' ' s.p.p.p.p.p.p.p.p.s.p.p.p.",
"p.p.p.p.p.p.p.p.p.I.1XsXhXjXjXjXjXjXjXpXXX=.&.Q X.&.=.j * , ( S.R.!.>XQ.T.l.( H a p K 1..X;.g 8 ~ p.a.s.p.p.p.p.p.p.p.p.p.p.p.p.",
"p.p.p.p.p.p.p.p.p.C.Y.$XuXkXjXjXjXjXjXpXoX1.-.X.&.-.1.%.- 5 a.>XW.R.T.R.!.Q.U.S.h._ ~ W %.Q E ( ' p.s.p.p.p.p.p.p.p.p.p.p.p.p.p.",
"f.d.f.f.f.f.g.d.f.f.f.L.1XhXkXkXkXjXjXiX=X2.1.=.=.4..X=.u p j.,X!.P.D.Q.4X5X5X3XR.z.) 9 X S ' f.f.f.f.f.f.f.f.f.f.d.f.f.f.f.g.f.",
"Z.k.Z.Z.Z.Z.Z.Z.Z.Z.Z.K.:X0X9X0X9XdXkXfX=X2.2.3..XXXoX.X1.=.<.j.A.P.R.W.W.Q.W.E.l./ R G G ( f.Z.V.V.V.V.Z.Z.Z.Z.Z.Z.Z.Z.Z.Z.Z.Z.",
"h.h.h.h.h.h.h.h.h.h.h.j.l.H.K.K.I.2XlXsX*X.XOX*X*X=X=X;X*XXX-.d >.U.7XE.F.D.D.G./ 7 7 J ,.,.h.h.d.h.h.h.h.h.h.f.h.h.h.h.h.h.h.h.",
"L W L ^ W L E E E L ^ E E L L W :.+X8XyX=XoX=X-XtXtXtXtXtX*X1.w W H.T.V.9.' ' ` D 2 2 F E E L W W L W E E E E E L W L W ^ L L E ",
"L L L L L L L P L L L L L L L L U <.c.oX=XyXyXtXtXtXtXtXtX*X.X;.&.( W R v v q q 9 8 d F L L L G L L L G L L L P L L L L L L L L ",
",._ _ _ _ _ _ _ _ _ _ _ ,._ _ _ ,._ _ k.8XjXgXyXtXtX-XtXtX=XoX.X=.r           . 9 ~ _ _ _ _ _ _ ,._ _ _ _ _ _ _ _ _ _ _ ,.,._ _ ",
"s.p.s.s.s.s.s.s.s.s.s.s.p.s.s.p.d.p.p.I.uXkXgXyXtX-XtXtXtX=XoX.X1.Q 9 9 9 9 9 q ! 9.s.p.s.s.p.s.p.p.s.s.s.s.s.s.s.s.s.d.s.s.p.p.",
"p.s.s.s.s.s.s.s.s.s.s.s.s.s.p.s.p.p.p.I.yXkXiXyXtXtXtXtXtX=XoXc.4.,.` / ` ` / ) _ p.s.s.p.s.p.p.p.p.p.s.s.s.s.s.s.s.p.p.p.p.p.p.",
"p.p.p.p.p.p.p.p.p.p.p.p.p.p.p.p.p.p.p.I.1XgXpX-X=X-XtXtXtX=XoX`.x.h.s.s.s.s.s.p.s.p.p.p.p.p.p.p.p.p.p.p.p.p.p.p.p.p.p.p.p.p.p.p.",
"p.p.p.p.p.p.p.p.p.p.p.p.p.p.p.p.p.p.p.H.@X=X*X*X*X=XtXtXtX=XoX.Xx.h.p.s.p.p.s.p.p.p.p.p.p.p.p.p.p.p.p.p.p.p.p.p.p.p.p.p.p.p.p.p.",
"p.p.p.p.s.p.p.p.s.p.p.p.p.p.p.p.p.p.p.j.c.`..X.XXX*XtXtXtX=XoX.X3.j.s.s.p.p.p.p.p.p.p.s.s.p.p.p.p.p.p.p.p.p.p.p.p.s.p.p.p.p.p.p.",
"p.p.p.p.p.p.p.p.p.p.p.p.p.p.p.p.p.p.a.h.j..X3.1.2.OX=XtXyXyX*X.Xx.h.s.s.s.p.p.s.p.p.p.p.p.p.p.p.p.p.p.p.p.p.p.p.p.p.p.p.p.p.p.p.",
"p.p.p.p.p.p.p.p.p.p.p.p.p.p.p.p.p.p.p.h.x.c.4.-.1.XX*XyXiXiX=X.Xx.h.s.s.p.p.s.a.p.p.p.p.p.p.p.p.p.p.p.p.p.p.p.p.p.p.p.p.p.p.p.p.",
"p.p.p.p.p.p.p.p.p.p.p.p.p.p.p.p.p.p.p.h.c.2.1.=.-.2.oX-XsXiX2XOXJ.j.p.s.p.p.p.p.s.p.p.s.p.p.s.s.p.p.p.p.p.p.p.p.p.p.p.p.p.p.p.p.",
"f.f.f.s.f.f.s.f.f.s.f.f.d.f.f.g.f.f.f.j.x.2.3.1.1.2.XX*X=X2XtXtX%XH.f.f.d.f.f.f.f.f.d.f.f.f.f.f.f.f.f.s.f.f.s.f.f.f.f.f.d.g.f.f.",
"V.V.V.V.Z.V.V.Z.k.Z.Z.Z.Z.k.k.z.Z.V.Z.k.c.2.2.2.2..X.X.X+XoXyXlX9X#XV.V.V.V.V.V.V.V.V.V.V.V.V.V.V.V.V.V.V.V.V.V.l.Z.V.V.V.V.k.z.",
"A.A.A.A.A.A.Z.A.A.S.A.A.S.A.S.L.A.A.L.H.c..X2..X.X.X.X.X`.OXtXkXuX#XA.A.A.A.A.Z.A.A.A.A.A.Z.A.A.A.A.A.Z.A.A.A.A.A.S.A.A.A.S.S.L."
};
