/* XPM */
static char *_3e8f128b13543f4cf2ac2fefa1cbd0doTVCE4q4st7lSAY7[] = {
/* columns rows colors chars-per-pixel */
"16 16 4 1 ",
"  c gray",
". c #E4E4E4",
"X c #ECECEC",
"o c #FEFEFE",
/* pixels */
"XoXoXooXoXXXXXX.",
"oXXXXXXXXXXXXXX.",
"oXXXXXXXXXXXXXX.",
"XXXXXXXXXXXXXXX.",
"XXXXXXXXXXXXXXX.",
"oXXXXXXXXXXXXXX.",
"oXXXXXXXXXXXXXX.",
"XXXXXXXXXXXXXXX.",
"oXXXXXXXXXXXXXX.",
"XXXXXXXXXXXXXXX.",
"XXXXXXXXXXXXXXX.",
"XXXXXXXXXXXXXXX.",
"XXXXXXXXXXXXXXX.",
"XXXXXXXXXXXXXXX.",
"XXXXXXXXXXXXXXX.",
"............... "
};
