/* XPM */
static char *housetileset_copy_3_resized[] = {
/* columns rows colors chars-per-pixel */
"64 64 253 2 ",
"   c #9A4F38",
".  c #984C35",
"X  c #A25E47",
"o  c #BB8C75",
"O  c #CCAB94",
"+  c #C1967F",
"@  c #A76751",
"#  c #994E37",
"$  c #984B34",
"%  c #A96B54",
"&  c #C29983",
"*  c #CCAA94",
"=  c #B98871",
"-  c #A15C45",
";  c #984D35",
":  c #974B34",
">  c #9C533D",
",  c #B17963",
"<  c #C8A38D",
"1  c #BB8B75",
"2  c #C0967F",
"3  c #A76750",
"4  c #994D36",
"5  c #C29982",
"6  c #CBAA94",
"7  c #A15B44",
"8  c #974A33",
"9  c #9C533C",
"0  c #B17962",
"q  c #964932",
"w  c #964831",
"e  c #BA8A74",
"r  c #C0957E",
"t  c #A6654E",
"y  c #964730",
"u  c #A86851",
"i  c #C29882",
"p  c #CBA993",
"a  c #B88670",
"s  c #9F5942",
"d  c #954730",
"f  c #9A5039",
"g  c #B07760",
"h  c #9B513A",
"j  c #A36049",
"k  c #BB8C76",
"l  c #CCAB95",
"z  c #C19680",
"x  c #A86952",
"c  c #AA6C56",
"v  c #C39983",
"b  c #BA8972",
"n  c #9D563F",
"m  c #B27A64",
"M  c #C8A48E",
"N  c #AD725B",
"B  c #AC705A",
"V  c #AC7059",
"C  c #B37D66",
"Z  c #C49B85",
"A  c #CFB19B",
"S  c #C8A28C",
"D  c #B6836C",
"F  c #AD715B",
"G  c #B7856F",
"H  c #C9A58E",
"J  c #CFB09A",
"K  c #B27B64",
"L  c #AC715A",
"P  c #AB6F59",
"I  c #AF755F",
"U  c #BD8F79",
"Y  c #CDAC96",
"T  c #C59F88",
"R  c #C59E88",
"E  c #C8A38C",
"W  c #CEAE98",
"Q  c #D2B6A0",
"!  c #C9A58F",
"~  c #C49D87",
"^  c #C49C86",
"/  c #C59E87",
"(  c #C9A690",
")  c #D0B29C",
"_  c #CDAD97",
"`  c #C7A28C",
"'  c #C59D87",
"]  c #C6A08A",
"[  c #D1B49E",
"{  c #CAA791",
"}  c #D0B19B",
"|  c #D2B59F",
" . c #CAA790",
".. c #D1B39D",
"X. c #CEAF98",
"o. c #CBA892",
"O. c #B5816A",
"+. c #B5806A",
"@. c #B47F68",
"#. c #B37E67",
"$. c #B47E68",
"%. c #B58069",
"&. c #B48069",
"*. c #BC8D76",
"=. c #BB8B74",
"-. c #B47F69",
";. c #B6826B",
":. c #C0947E",
">. c #B8856F",
",. c #9E5740",
"<. c #9D543D",
"1. c #C0957F",
"2. c #BF927C",
"3. c #9D553E",
"4. c #9C543D",
"5. c #B07861",
"6. c #C6A18A",
"7. c #A25F48",
"8. c #94452E",
"9. c #A35F49",
"0. c #BE907A",
"q. c #95462F",
"w. c #95462E",
"e. c #94442D",
"r. c #AB6E57",
"t. c #CAA690",
"y. c #B37D67",
"u. c #94452D",
"i. c #974932",
"p. c #A4614B",
"a. c #BE917B",
"s. c #BC8E77",
"d. c #974A32",
"f. c #A4614A",
"g. c #A3614A",
"h. c #AE735D",
"j. c #C19780",
"k. c #A35F48",
"l. c #A3604A",
"z. c #A5634C",
"x. c #BA8B74",
"c. c #A86852",
"v. c #BC8D77",
"b. c #BD8F78",
"n. c #BC8E78",
"m. c #BD8E78",
"M. c #C19781",
"N. c #BD907A",
"B. c #BF937C",
"V. c #CEAF99",
"C. c #CFAF99",
"Z. c #CEAD97",
"A. c #CFB19A",
"S. c #BF947D",
"D. c #C7A18B",
"F. c #BE927B",
"G. c #BF937D",
"H. c #BD9079",
"J. c #BE917A",
"K. c #C39B84",
"L. c #C39A83",
"P. c #A5644D",
"I. c #B7836D",
"U. c #BA8973",
"Y. c #A86A53",
"T. c #A5634D",
"R. c #A4624B",
"E. c #AA6D56",
"W. c #A5644E",
"Q. c #AF765F",
"!. c #A4634C",
"~. c #AE745D",
"^. c #B27B65",
"/. c #B6836D",
"(. c #C39B85",
"). c #C9A48E",
"_. c #B5816B",
"`. c #CAA892",
"'. c #C39A84",
"]. c #BB8D76",
"[. c #9B523B",
"{. c #9F5842",
"}. c #B17A63",
"|. c #B98771",
" X c #CBAA93",
".X c #AD735C",
"XX c #9E563F",
"oX c #9C523B",
"OX c #B17A64",
"+X c #B37C66",
"@X c #B27C65",
"#X c #D0B29B",
"$X c #BA8A73",
"%X c #D0B39D",
"&X c #C9A68F",
"*X c #D4BAA4",
"=X c #C8A48D",
"-X c #C7A18A",
";X c #C69F89",
":X c #CDAC95",
">X c #C6A089",
",X c #CAA891",
"<X c #D5BCA6",
"1X c #AE745E",
"2X c #AE755E",
"3X c #AE735C",
"4X c #AF755E",
"5X c #B8866F",
"6X c #D5BBA5",
"7X c #B7846E",
"8X c #9B5039",
"9X c #9F5841",
"0X c #A96A53",
"qX c #AA6D57",
"wX c #93432C",
"eX c #B98972",
"rX c #95472F",
"tX c #A6664F",
"yX c #B6826C",
"uX c #A96A54",
"iX c #A86953",
"pX c #AF7760",
"aX c #A76851",
"sX c #C29881",
"dX c #CCAC95",
"fX c #CFB099",
"gX c #B7856E",
"hX c #B88770",
"jX c #B98872",
"kX c #B88771",
"lX c #C49D86",
"zX c #A15B45",
"xX c #A05A43",
"cX c #A05B44",
"vX c #95452E",
"bX c #AF7660",
"nX c #C49C85",
"mX c #984D36",
"MX c #94442C",
"NX c #B7846D",
"BX c #C7A28B",
"VX c #BE927C",
"CX c #D6BCA6",
"ZX c #A25E48",
"AX c #AB6E58",
"SX c #C59F89",
"DX c #A76650",
"FX c #9D553F",
"GX c #A25D46",
"HX c #D3B7A1",
"JX c #D1B59F",
"KX c #AC6F59",
"LX c white",
/* pixels */
"        . . X o O + @ # $ #                   # $   % & * = - $ ;                     # : > , < < , > : #                       ",
"# # # # . $ X 1 * 2 3 4 $ # # # # # # # # # # # : # % 5 6 = 7 $ . # # # # # # # # # # 4 8 9 0 < < 0 9 8 4 # # # # # # # # # # # ",
"$ $ $ $ q w 7 e * r t 8 w $ $ $ $ $ $ $ $ $ $ $ y $ u i p a s w q $ $ $ $ $ $ $ $ $ $ 8 d f g < < g f d 8 $ $ $ $ $ $ $ $ $ $ $ ",
"h h h h # # j k l z x f # h h h h h h h h h h h 4 h c v * b X #   h h h h h h h h h h f 4 n m M M m n 4 f h h h h h h h h h h h ",
"N N N N B V C Z A S D F V N N N F B V B F N N N V N G H J & K V B N N N L V V L N N N F P I U Y Y U I P F N N N L V V L N N N N ",
"T T T T R R E W Q A ! R R T T T R ~ ^ ~ R T T T / T ( ) Q _ ` R R T T R / ^ ^ ' R T T R / ] p [ [ p ] / R T T R ' ^ ^ / R T T T ",
"{ { { { { { { { { { { { { { { { * } | A * { { { { { { { { { { { { {  .{ Y ..[ X.o. .{ { { { { { { { { { { {  .o.X.[ ..Y {  .{ { ",
"O.O.O.O.O.O.+.@.#.$.%.O.O.O.@.&.*.( ..M =.-.-.O.O.O.&.$.#.@.+.O.O.+.@.;.:._ } ^ >.@.%.O.O.+.-.#.#.-.+.O.O.%.@.>.^ } _ :.;.@.+.O.",
",.,.,.,.,.,.,.,.,.,.,.,.,.,.<.n % 1.Y 2.u 3.3.,.,.,.,.,.,.,.,.,.,.,.4.s 5.6.o.G 7.4.n ,.,.,.,.,.,.,.,.,.,.n 4.7.G o.6.5.s 4.,.,.",
"w w w w w w w w w w w w w w 8.d 9.0.* *.- q.w.w w w w w w w w w w w e.: r.' t.y.h e.d w w w w w w w w w w d e.h y.t.' r.: u.w w ",
"$ $ $ $ $ $ $ $ $ $ $ $ $ $ w i.p.a.* s.X q w $ $ $ $ $ $ $ $ $ $ : d 4 V /  .@.4.y d.$ $ $ $ $ $ $ $ $ $ d.y 4.@. ./ V 4 y : $ ",
"f.f.f.f.f.f.f.f.f.f.g.g.f.f.7.j h.v W j.L 9.k.f.f.f.f.f.f.f.l.g.f.f.X z.$.< l x.c.X j f.f.f.f.f.f.g.l.g.f.j X c.x.l < $.z.X f.f.",
"U U U U U U U U U s.k o v.b.n.m.i l | * M.n.n.U U U U U b.v.o k s.b.s.N./ J [ M B.s.m.U U U U U n.*.o *.n.b.s.B.M [ J / N.s.U U ",
"l l l l l l l l l _ V.V._ l O l Y C.A V.Y l l l l l l l l Z.C.V.Y l * l _ J A.W l l l l l l l l Y W C.W Y l O l W A.J _ l l l l ",
"2.2.2.2.2.2.2.a.S.D.) [ M 1.a.2.F.N.U N.F.B.B.2.2.2.F.a.j.{ | J T G.a.2.a.H.U J.2.B.2.2.2.2.a.F.K.Y Q l L.F.F.2.J.U H.a.2.B.2.2.",
"P.P.P.P.P.P.P.f.3 I.t.* U.Y.f.T.P.P.z.P.P.P.P.P.P.P.z.R.E.U Y ` #.t p.P.P.T.T.P.P.W.P.P.P.P.R.z.Q.K.W i h.!.R.P.P.T.T.P.P.W.P.P.",
". . . . . . $ w   ~.6.! ^.9 w : . . . . . . . . . . 8 w ,./.o.(.c 4 w . . . . . . . . . . . q 8 R.F.O n.k.8 i.. . . . . . . . . ",
"w w w w w w y e.. F ] ).,   e.d w w w w w w w w w w q.e.9 _.`.'.Y.i.e.w w w w w w w w w w w 8.q.k.N.* ].- q.8.w w w w w w w w w ",
"3.3.3.3.3.3.3.[.{.}.S  .O.7 [.<.3.3.3.3.3.3.3.3.3.3.4.[.k.|. X' .XXX[.3.3.3.3.3.3.3.3.3.3.3.oX4.Y.r Y F.3 9 9 3.3.3.3.3.3.3.3.3.",
"}.OX^.C C C C K @.S._ J i O.K +XC C C ^.OXm @XC C C @XK /.^ #X* U y.K C C C +XK OXK +XC C C ^.@X$XH ..E = @X^.C C C @XK OX^.+XC ",
"H ! ! ! ! ! ! ! ( Y [ [ Z. .! ! ! ! ! ! ! ! ! ! ! ! ! ! { V.| %Xl &X! ! ! ! ! ! ! ! ! ! ! ! ! ! p } | A.p ! ! ! ! ! ! ! ! ! ! ! ",
"*XQ _ =X] -XD.D.D.] ;X;X] D.D.D.D.] E :X| [ * ` ] D.D.D.D.] ;X;X] D.D.D.6.] ! V.Q } { D.] D.D.D.-X>X;X] -XD.D.D.] D.,X) Q W M ] ",
"<XA M.+Xh.1XI Q.I 2Xh.h.1XI Q.Q.2X3X}.S.W l b.5.3X4XQ.Q.I 1Xh.~.2XI Q.I ~.~.%.' } M 5X4Xh.I Q.Q.4X~.h.~.4XQ.Q.I h.Q.= ( A L.$..X",
"6X* 7X-   8X[.[.[.[.[.[.[.[.[.[.h # 9X@.( ` 5.3.# h [.[.[.[.[.[.[.[.[.[.f   f.v.l j.0Xh   [.[.[.[.[.[.[.[.[.[.[.  [.qX'.* = 7.# ",
"6Xp @.9 e.q.y y y y y y y y y y q.wX# 0 M >XL $ wXd y y y y y y y y y y 8.u.9XeX6 G.R.rXe.y y y y y y y y y y y e.y tXM.p D n wX",
"6Xp yXs : . # # # # # # # # # # 4 8 3.C ! D.I [.8 4 # # # # # # # # # # . $ X 1 * 2 3 4 $ # # # # # # # # # # # : # uX5  X5X7 8 ",
"6XX.F..Xc.Y.% Y.iXY.uX% % % % % 0Xu V v.l o.= qXu uXuXY.iX0X% % % % % % x x pXi C.] y.uXx % 0XiXiX0X% % % % % % c.% %.` X.:.2XaX",
"6XQ p ^ i i i M.z j.i & & & & & i sX(.,X[ ..! '.sX5 i z z M.i & & & & & i i R Y Q C.D.5 i 5 M.z z M.5 & & & & & sX& ` J Q * ' M.",
"Y Y l * p p l J ..A Y 6 p * * * 6 6 * l :XdXO * p * _ } ..fXl p  X* * * 6 6 * l Y l * 6 p * W ) ) W * p 6 * * * 6 * * l Y l * 6 ",
"7XgXa = hXhXH.! [ * :.= a = = = jXjX= a gXG hX= a jX2 Y [ =Xn.a kX= = = jXjX|.5XgX>.kX= a e lXA A lXe a = = = = jX= hX>.gXa |.jX",
"7 7 zX- xXs Y.a.Y '.N cXs - - - - - - - 7 zX- - s - 2X~ Y n.3 s xX- - - - - - zX7 zX- cX9Xj _.t.t._.j 9XcX- - - - - - zX7 zX- - ",
"i.i.i.i.d d xXU.* :.P.q q.i.i.i.i.i.i.i.i.i.i.i.q.i.3 M.p 5X,.q.y i.i.i.i.i.i.i.i.i.i.q vX  bXS S bX  vXq i.i.i.i.i.i.i.i.i.i.i.",
"i.i.i.i.d d xXU.* :.P.q q.i.i.i.i.i.i.i.i.i.i.i.q.i.3 M.p 5X,.q.y i.i.i.i.i.i.i.i.i.i.q vX  bXS S bX  vXq i.i.i.i.i.i.i.i.i.i.i.",
"- - - - xXs Y.a.Y '.N cXs - - - - zX7 zX- - - - s - 2X~ Y n.3 s xX- - - - zX7 zX- - - cX9Xj _.t.t._.j 9XcX- - - zX7 zX- - - - - ",
"= = = = hXhXH.! [ * :.= a = jXjX|.5XgX5X|.jXjX= a jX2 Y [ =Xn.a kX= jX= hXG gXa = jXjX= a e lXA A lXe a = jXjX= a gXG hX= jX= = ",
"* * * *  Xp l J ..A Y 6 p * 6 6 * l Y l * 6 6 * p * _ } ..fXl p  X* 6 * * l Y l * 6 6 6 p * W ) ) W * p 6 6 6 * l Y l * * 6 * * ",
"& & & & & & i M.z j.i & & & i i ] W Q _ ;Xi i & & & i z z M.i & & 5 sXL.M ) | p nXsXi & & 5 M.z z M.5 & & i sXnXp | ) M L.sX5 & ",
"% % % % % % % Y.iXY.uX% % % x Y.K ' fX(.0 x x % % % uXY.iX0X% % % % u c G t._ N.F u Y.% % % 0XiXiX0X% % % Y.u F N._ t.G c u % % ",
"# # # # # # # # # # # # # # $ . P.2.l b.f.. $ # # # # # # # # # # # 8 f N R { +.,.8 mX# # # # # # # # # # mX8 ,.+.{ R N f 8 # # ",
"y y y y y y y y y y y y y y e.q.7.N.* k zX8.8.y y y y y y y y y y d wX8 E.~ t.C h MXq.y y y y y y y y y y q.MXh C t.~ E.8 MXd y ",
"[.[.[.[.[.[.[.[.[.[.[.[.[.[.  8X3 S.l 0.P.f   [.[.[.[.[.[.[.[.[.[.[.# <.~.;X`.yXxX# h [.[.[.[.[.[.[.[.[.[.h # xXyX`.;X~.<.  [.[.",
"I I I I I I I Q.I 2Xh.h.1XI ~.2XNXBX) ;X;.~.~.I I I Q.Q.I 1Xh.~.2XI h.g k  XV.z K h.2XI I I Q.Q.4X~.h.~.4X2Xh.K z V. Xk g h.I I ",
"D.D.D.D.D.D.D.D.D.] ;X;X] D.6.D.( J Q J ! 6.] D.D.D.D.D.D.] ;X;X] D.] BXp ..| Y < ] D.D.D.D.D.D.-X>X;X] -XD.] < Y | ..p BX] D.D.",
"! ! ! ! ! ! ! ! ( Y [ [ Z. .! ! ! ! ! ! ! ! ! ! ! ! ! ! { V.| %Xl &X! ! ! ! ! ! ! ! ! ! ! ! ! ! p } | A.p ! ! ! ! ! ! ! ! ! ! ! ",
"C C C C C C C K @.S._ J i O.K +X+XK OXK +XC C C C C @XK /.^ #X* U #.K C @Xm OX^.C C C C C C ^.@X$XH ..E = @X^.C ^.OXm @XC C C C ",
"3.3.3.3.3.3.3.[.{.}.S  .O.7 [.<.3.3.3.3.3.3.3.3.3.3.4.[.k.|. X' .XXX[.3.3.3.3.3.3.3.3.3.3.3.oX4.Y.r Y F.3 9 9 3.3.3.3.3.3.3.3.3.",
"w w w w w w y e.. F ] ).,   e.d w w w w w w w w w w q.e.9 _.`.'.Y.i.e.w w w w w w w w w w w 8.q.k.N.* ].- q.8.w w w w w w w w w ",
". . . . . . $ w   ~.6.! ^.9 w : . . . . . . . . . . 8 w ,./.o.(.c 4 w . . . . . . . . . . . q 8 R.F.O n.k.8 i.. . . . . . . . . ",
"z.T.P.P.W.P.P.f.3 I.t.* U.Y.f.T.P.W.P.P.T.T.P.P.W.P.z.R.E.U Y ` #.t p.P.P.P.P.P.z.P.P.P.W.P.R.z.Q.K.W i h.!.R.P.W.P.P.T.T.P.P.W.",
"b.U J.2.B.B.2.a.S.D.) [ M 1.a.2.2.B.2.J.U U a.2.B.2.F.a.j.{ | J T G.a.2.B.B.VX0.U N.F.2.B.2.a.F.K.Y Q l L.F.a.2.B.2.a.H.U 0.VXB.",
") A W :Xl l l l l _ V.V._ l l l l l l W J J Z.l l l l l l Z.C.V.Y l l l l l Y V.A C.Y l l l l l Y W C.W Y l l l l l _ J A W Y l ",
"CX| H G.s.n.U U U s.k o v.b.U U b.v.F.` ..} ;XJ.v.b.U U b.v.o k s.U U U n.n.2 o.| _ v b.s.U U U n.*.o *.n.U U U s.U (.W | t.r v.",
"6X_ k 0XZXj f.f.f.f.g.g.f.f.f.f.j X 3 = p &X_.P.X g.f.f.f.f.l.g.f.f.f.f.k.k.AXS.Z.^ Q.g.7.f.f.f.f.g.l.g.f.f.f.f.ZXf.0 SX_ U c X ",
"6Xp O.XXy i.$ $ $ $ $ $ $ $ $ $ 8 d [.K ! ] h.  d 8 $ $ $ $ $ $ $ $ $ $ q w 7 e * r t 8 w $ $ $ $ $ $ $ $ $ $ $ y $ u i p 7Xs q.",
"6Xp -.4.8.rXw w w w w w w w w w d e.  , ).] N . e.w w w w w w w w w w w q.vXs U.* S.z.y 8.w w w w w w w w w w w 8.w DXM.p /.XXe.",
"6Xl hXf.4.FX,.,.,.,.,.,.,.,.,.,.XX4.GX;.{ < K xX4.,.,.,.,.,.,.,.,.,.,.,.3.3.tXU dXi r.XX<.,.,.,.,.,.,.,.,.,.,.,.4.,.L Z l e z.9 ",
"CX%X' a @.&.+.@.#.$.%.O.O.O.O.O.%.@.7X'.J W z D @.+.&.$.#.@.+.O.O.O.O.O.-.-.U.` ..`.n.+.@.+.-.#.#.-.+.O.O.O.O.O.@.O.N. X%X;X= $.",
"HXJXV.p { { { { { { { { { { { { {  .o.W [ .._ `. .{ { { { { { { { { { { { { p J | ) l { { { { { { { { { { { { { { { l ) JXC.p  .",
"nX^ ' R R R E W Q A ! R R T T T T T R ' ^ ^ / R R T ( ) Q _ ` R R T T T T T R ' ^ lXR R / ] p [ [ p ] / R T T T T T R lX^ ' R T ",
"KXV L N B V C Z A S D F V N N N N N N L V V L N V N G H J & K V B N N N N N N L V B F F KXI U Y Y U I P F N N N N N F B V L N N ",
"h h h h # # j k l z x f # h h h h h h h h h h h 4 h c v * b X #   h h h h h h h h h h f 4 n m M M m n 4 f h h h h h h h h h h h ",
"$ $ $ $ q w 7 e * r t 8 w $ $ $ $ $ $ $ $ $ $ $ y $ u i p a s w q $ $ $ $ $ $ $ $ $ $ 8 d f g < < g f d 8 $ $ $ $ $ $ $ $ $ $ $ ",
"# # # # . $ X 1 * 2 3 4 $ # # # # # # # # # # # : # % 5 6 = 7 $ . # # # # # # # # # # 4 8 9 0 < < 0 9 8 4 # # # # # # # # # # # ",
"        . . X o O + @ # $ #                   # $   % & * = - $ ;                     # : > , < < , > : #                       "
};
